<svg width="52" height="52" viewBox="0 0 52 52" fill="none" xmlns="http://www.w3.org/2000/svg">
<rect width="52" height="52" rx="26" fill="#FEF0C7" fill-opacity="0.5"/>
<g clip-path="url(#clip0_1219_550)">
<path d="M30.8384 23.5727L32.27 25.5463C32.4463 25.7894 32.7285 25.9333 33.0289 25.9333C33.3293 25.9333 33.6114 25.7894 33.7878 25.5463L35.2193 23.5727C38.0456 22.6359 39.9914 19.9649 39.9914 16.9625C39.9913 13.1234 36.868 10 33.0289 10C29.1897 10 26.0664 13.1234 26.0664 16.9625C26.0663 19.9649 28.0122 22.6359 30.8384 23.5727ZM30.8597 16.1191C30.4936 15.7531 30.4936 15.1594 30.8597 14.7933C31.2258 14.4272 31.8194 14.4272 32.1855 14.7933L33.0289 15.6367L33.8723 14.7933C34.2383 14.4272 34.832 14.4272 35.1981 14.7933C35.5642 15.1594 35.5642 15.753 35.1981 16.1191L34.3547 16.9625L35.198 17.8059C35.5642 18.1719 35.5642 18.7656 35.198 19.1317C34.832 19.4977 34.2385 19.4979 33.8722 19.1317L33.0288 18.2883L32.1855 19.1317C31.8195 19.4977 31.2259 19.4979 30.8597 19.1317C30.4935 18.7656 30.4935 18.172 30.8597 17.8059L31.703 16.9625L30.8597 16.1191Z" fill="#FDB022"/>
<path d="M18.9714 23.8666C20.5822 23.8666 21.8881 22.5607 21.8881 20.9499C21.8881 19.339 20.5822 18.0332 18.9714 18.0332C17.3605 18.0332 16.0547 19.339 16.0547 20.9499C16.0547 22.5607 17.3605 23.8666 18.9714 23.8666Z" fill="#FDB022"/>
<path d="M18.9703 23.8672C16.4065 23.8672 14.2269 25.5246 13.4453 27.8255H24.4951C23.7136 25.5246 21.534 23.8672 18.9703 23.8672Z" fill="#FDB022"/>
<path d="M12.1328 41.0626C12.1328 41.5804 12.5526 42.0001 13.0703 42.0001H38.9286C39.4464 42.0001 39.8661 41.5804 39.8661 41.0626V35.8418H12.1328V41.0626Z" fill="#FDB022"/>
<path d="M41.0625 29.7002H10.9375C10.4197 29.7002 10 30.1199 10 30.6377V33.0294C10 33.5471 10.4197 33.9669 10.9375 33.9669H41.0625C41.5802 33.9669 42 33.5471 42 33.0294V30.6377C42 30.1199 41.5802 29.7002 41.0625 29.7002Z" fill="#FDB022"/>
</g>
<defs>
<clipPath id="clip0_1219_550">
<rect width="32" height="32" fill="white" transform="translate(10 10)"/>
</clipPath>
</defs>
</svg>
