<svg width="52" height="52" viewBox="0 0 52 52" fill="none" xmlns="http://www.w3.org/2000/svg">
<rect width="52" height="52" rx="26" fill="#91959C" fill-opacity="0.3"/>
<path fill-rule="evenodd" clip-rule="evenodd" d="M26 40C29.713 40 33.274 38.525 35.8995 35.8995C38.525 33.274 40 29.713 40 26C40 22.287 38.525 18.726 35.8995 16.1005C33.274 13.475 29.713 12 26 12C22.287 12 18.726 13.475 16.1005 16.1005C13.475 18.726 12 22.287 12 26C12 29.713 13.475 33.274 16.1005 35.8995C18.726 38.525 22.287 40 26 40ZM23.96 31.74H22.54L18 27.2L19.42 25.78L23.26 29.62L31.66 21.2L33.08 22.62L23.96 31.74Z" fill="#404653"/>
</svg>
