<svg width="166" height="169" viewBox="0 0 166 169" fill="none" xmlns="http://www.w3.org/2000/svg">
<path d="M161.202 20.3812C161.563 22.9283 159.655 24.7106 155.697 25.259L147.738 26.3414L145.703 11.6032L153.244 10.5642C157.118 10.0302 159.229 11.3471 159.543 13.62C159.647 14.2855 159.557 14.9669 159.284 15.5828C159.012 16.1988 158.568 16.7235 158.006 17.0944C159.749 17.4552 160.957 18.5917 161.202 20.3812ZM150.245 14.0602L150.631 16.9032L153.496 16.5063C154.885 16.3151 155.535 15.7306 155.405 14.7854C155.275 13.8401 154.492 13.4721 153.103 13.6633L150.245 14.0602ZM156.927 20.4966C156.79 19.4864 155.964 19.1076 154.532 19.306L151.036 19.7859L151.45 22.7768L154.961 22.2933C156.375 22.0985 157.068 21.5068 156.927 20.4966Z" fill="#E0E0E0"/>
<path d="M23.4333 105.325H7.41797V107.861H23.4333V105.325Z" fill="#EBEBEB"/>
<path d="M23.4333 114.561H7.41797V117.097H23.4333V114.561Z" fill="#EBEBEB"/>
<path d="M15.4238 110.105H7.41797V112.642H15.4238V110.105Z" fill="#EBEBEB"/>
<path d="M65.8291 126.828H53.5371V116.733H59.905V118.862H55.6694V124.699H63.7005V122.578H65.8291V126.828Z" fill="#EBEBEB"/>
<path d="M72.9189 126.828H67.6803V124.699H70.7903V118.862H62.7556V121.582H60.627V116.733H72.9189V126.828Z" fill="#EBEBEB"/>
<path d="M162.851 41.2671H164.977L162 56.1459H159.875L162.851 41.2671Z" fill="#EBEBEB"/>
<path d="M2.71289 23.7545H35.8691V71.8257H2.94019L2.71289 23.7545Z" fill="#E0E0E0"/>
<path d="M0.22493 71.5984H33.0781L33.0781 23.9782L0.22493 23.9782L0.22493 71.5984Z" fill="white"/>
<path d="M33.3042 23.7545V71.8257H0V23.7545H33.3042ZM32.8532 71.3783V24.2055H0.450983V71.3747L32.8532 71.3783Z" fill="#E0E0E0"/>
<path d="M28.9952 29.1376H4.30664V66.4429H28.9952V29.1376Z" fill="white"/>
<path d="M4.30699 29.1374C4.30699 29.1374 4.30699 29.2023 4.30699 29.3214C4.30699 29.4404 4.30699 29.6244 4.30699 29.8517C4.30699 30.3244 4.30699 31.0135 4.30699 31.901C4.30699 33.7049 4.32503 36.299 4.33586 39.5893C4.33586 46.1665 4.36833 55.4639 4.38997 66.4427L4.28174 66.3344H28.9667L28.8513 66.4535C28.8513 52.3828 28.8513 39.3945 28.8729 29.1482L28.9667 29.242L11.0032 29.1951L6.06402 29.159H4.76158H4.30699C4.30699 29.159 4.45131 29.159 4.73994 29.159H6.02794L10.9743 29.1338L29.0136 29.0833H29.1074V29.1771C29.1074 39.4378 29.1074 52.4117 29.1327 66.4823V66.6014H29.01H4.32503H4.2168V66.4932C4.23844 55.5 4.25648 46.1629 4.27091 39.5677C4.27091 36.2882 4.29256 33.6905 4.29978 31.9046C4.29978 31.0243 4.29978 30.346 4.29978 29.877C4.29978 29.6569 4.29978 29.4837 4.29978 29.3611C4.29978 29.2384 4.30699 29.1374 4.30699 29.1374Z" fill="#E0E0E0"/>
<path d="M0.134766 71.5985C0.280126 71.3064 0.45804 71.0317 0.665121 70.7795C1.02591 70.2925 1.51658 69.6322 2.10827 68.9143C2.69996 68.1963 3.22309 67.5686 3.63078 67.1104C3.83201 66.8535 4.06612 66.6243 4.3271 66.4285C4.37761 66.4718 3.43235 67.6191 2.29227 69.0478C1.15218 70.4765 0.185276 71.6418 0.134766 71.5985Z" fill="#E0E0E0"/>
<path d="M0.228118 23.9816C0.278628 23.9419 1.23471 25.064 2.36036 26.4855C3.48602 27.907 4.35912 29.0976 4.30861 29.1372C4.2581 29.1769 3.30202 28.0549 2.17636 26.6334C1.05071 25.2119 0.184823 24.0213 0.228118 23.9816Z" fill="#E0E0E0"/>
<path d="M33.0835 24.0178L28.7793 29.3286L33.0835 24.0178Z" fill="white"/>
<path d="M28.7813 29.3289C28.7308 29.2892 29.6544 28.0661 30.8414 26.6013C32.0283 25.1365 33.0349 23.9784 33.0855 24.0181C33.136 24.0578 32.2124 25.2808 31.0254 26.7492C29.8384 28.2176 28.8318 29.3613 28.7813 29.3289Z" fill="#E0E0E0"/>
<path d="M33.0793 71.5985C33.0252 71.6418 32.0799 70.5162 30.9687 69.1199C29.8575 67.7237 28.988 66.5223 29.0457 66.497C29.1034 66.4718 30.0415 67.5794 31.1563 68.9756C32.2711 70.3719 33.1298 71.5733 33.0793 71.5985Z" fill="#E0E0E0"/>
<path d="M18.2446 48.3348H13.8936L13.374 49.5327C13.2265 49.8427 13.1407 50.1784 13.1215 50.5212C13.1117 50.6739 13.1451 50.8263 13.2178 50.9609C13.2906 51.0955 13.3997 51.2069 13.5328 51.2825C13.9183 51.426 14.3264 51.4993 14.7378 51.4989V51.8345H10.6465V51.4989C11.0592 51.4446 11.441 51.2512 11.7288 50.9505C12.1804 50.39 12.5452 49.7649 12.8112 49.0961L17.2128 39.2827H17.386L21.82 49.3847C22.0634 50.0405 22.4159 50.6505 22.8627 51.1887C23.1076 51.3919 23.414 51.5063 23.7322 51.5134V51.8489H17.772V51.5134H18.0173C18.3648 51.5426 18.7136 51.4739 19.0239 51.3149C19.0894 51.2674 19.1419 51.2041 19.1765 51.131C19.2112 51.0579 19.227 50.9772 19.2224 50.8964C19.2215 50.7825 19.2032 50.6693 19.1683 50.5609C19.1683 50.5068 19.0672 50.2795 18.8977 49.8826L18.2446 48.3348ZM17.9344 47.6638L16.1052 43.4318L14.2183 47.6638H17.9344Z" fill="#E0E0E0"/>
<path d="M71.4077 164.432C70.8233 163.931 69.5172 162.34 70.5238 160.489C70.8846 159.81 71.6783 159.475 72.3855 159.176C73.1176 158.929 73.8075 158.571 74.4311 158.115C75.5387 157.173 75.8454 155.607 76.5958 154.348C77.4401 152.905 79.0131 151.823 80.6799 151.902C82.5849 151.989 84.176 153.544 84.8975 155.319C85.6191 157.094 85.6407 159.067 85.6588 160.983C85.6588 162.044 85.6191 163.238 84.8398 163.956C84.1182 164.616 83.0359 164.623 82.069 164.595L71.6206 164.273" fill="#F5F5F5"/>
<path d="M91.3337 135.793H63.9355L68.8711 165.223C68.9737 165.835 69.2478 166.407 69.6615 166.87C70.0752 167.334 70.6118 167.671 71.209 167.842L71.3064 167.871C71.3894 167.889 71.4652 167.918 71.5517 167.932C71.7349 167.969 71.9207 167.99 72.1074 167.997V168.026L72.2408 168.004H84.4535C84.6789 168.004 84.9036 167.981 85.1245 167.936C85.8393 167.825 86.498 167.483 86.9992 166.961C87.5005 166.44 87.8166 165.768 87.899 165.049L90.2765 144.77L90.3848 143.965L91.3264 135.934L91.3337 135.793ZM86.1672 154.554H83.3531L83.6381 146.014H86.8852L86.1672 154.554ZM87.1702 146.014H89.8616L88.8587 154.554H86.4378L87.1702 146.014ZM79.1355 164.021L78.9659 156.603H83.0139L82.7686 164.021H79.1355ZM74.7591 156.603H78.6917L78.8649 164.021H75.3364L74.7591 156.603ZM75.0622 164.021H71.7646C71.4507 162.019 71.043 159.417 70.5993 156.603H74.4849L75.0622 164.021ZM74.6004 154.554L73.9365 146.014H78.45L78.6448 154.554H74.6004ZM78.9298 154.554L78.7314 146.014H83.3783L83.0825 154.554H78.9298ZM78.6845 143.965L78.4752 136.053H83.6814L83.418 143.965H78.6845ZM78.4139 143.965H73.785L73.1717 136.053H78.2227L78.4139 143.965ZM73.5144 143.965H68.6077C68.4346 142.883 68.2722 141.836 68.1243 140.909C67.612 137.709 67.4207 136.508 67.3125 136.053H72.8867L73.5144 143.965ZM73.6732 146.014L74.3262 154.554H70.2782C70.1411 153.688 70.004 152.811 69.8669 151.935C69.5494 149.918 69.2319 147.901 68.9324 146.014H73.6732ZM70.004 154.554H67.3594L65.9163 146.014H68.6474C69.0948 148.652 69.5386 151.592 70.004 154.554ZM70.3251 156.603C70.7292 159.169 71.126 161.701 71.4868 164.021H68.9613L67.7166 156.603H70.3251ZM83.0392 164.021L83.2845 156.603H85.9904L85.359 164.021H83.0392ZM83.7066 143.965L83.97 136.053H87.7474L87.0728 143.965H83.7066ZM67.0564 136.053C67.1646 136.627 67.6625 139.74 68.3335 143.965H65.5843L64.2566 136.053H67.0564ZM87.7474 164.021H85.6296L86.2646 156.603H88.6169L87.7474 164.021ZM90.0998 143.965H87.3434L88.018 136.053H91.0306L90.0998 143.965Z" fill="#E0E0E0"/>
<path d="M165.659 168.859C165.659 168.914 128.722 168.953 83.1693 168.953C37.6164 168.953 0.671875 168.914 0.671875 168.859C0.671875 168.805 37.5983 168.766 83.1693 168.766C128.74 168.766 165.659 168.809 165.659 168.859Z" fill="#263238"/>
<path d="M138.187 8.8584H19.6289V100.3H138.187V8.8584Z" fill="white"/>
<path d="M128.436 66.7031H26.5938V69.7698H128.436V66.7031Z" fill="#EBEBEB"/>
<path d="M128.386 62.637H26.543V65.7036H128.386V62.637Z" fill="#EBEBEB"/>
<path d="M128.386 58.5171H26.543V61.5838H128.386V58.5171Z" fill="#EBEBEB"/>
<path d="M128.386 54.3965H26.543V57.4632H128.386V54.3965Z" fill="#EBEBEB"/>
<path d="M128.436 70.9136H26.5938V73.9803H128.436V70.9136Z" fill="#EBEBEB"/>
<path d="M128.436 74.8857H26.5938V77.9524H128.436V74.8857Z" fill="#EBEBEB"/>
<path d="M128.436 79.0203H26.5938V82.0869H128.436V79.0203Z" fill="#EBEBEB"/>
<path d="M128.436 82.9495H26.5938V86.0161H128.436V82.9495Z" fill="#EBEBEB"/>
<path d="M128.436 86.7266H26.5938V89.7932H128.436V86.7266Z" fill="#EBEBEB"/>
<path d="M128.436 91.02H26.5938V94.0867H128.436V91.02Z" fill="#EBEBEB"/>
<path d="M138.306 8.76794H19.6289V15.5724H138.306V8.76794Z" fill="#175CD3"/>
<path d="M27.9208 22.6151H27.1992V22.3481H28.9707V22.6151H28.2491V24.4912H27.946L27.9208 22.6151Z" fill="#263238"/>
<path d="M28.932 23.6792C28.9291 23.5117 28.9762 23.347 29.0672 23.2063C29.1582 23.0656 29.289 22.9552 29.443 22.889C29.597 22.8229 29.7672 22.8041 29.9319 22.8351C30.0966 22.866 30.2484 22.9452 30.3679 23.0627C30.4874 23.1802 30.5692 23.3306 30.603 23.4947C30.6368 23.6589 30.6209 23.8293 30.5575 23.9845C30.494 24.1396 30.3858 24.2723 30.2467 24.3657C30.1076 24.4591 29.9438 24.509 29.7762 24.509C29.6652 24.514 29.5544 24.4961 29.4507 24.4564C29.3469 24.4166 29.2525 24.3559 29.1733 24.2781C29.0941 24.2002 29.0317 24.1068 28.9902 24.0038C28.9487 23.9008 28.9289 23.7903 28.932 23.6792ZM30.321 23.6792C30.3167 23.5719 30.2811 23.4683 30.2185 23.381C30.1559 23.2938 30.069 23.2269 29.9687 23.1886C29.8684 23.1503 29.7591 23.1423 29.6543 23.1655C29.5494 23.1888 29.4537 23.2423 29.3791 23.3194C29.3044 23.3965 29.254 23.4939 29.2341 23.5994C29.2142 23.7049 29.2258 23.8139 29.2673 23.913C29.3088 24.012 29.3785 24.0966 29.4677 24.1564C29.5568 24.2162 29.6616 24.2485 29.769 24.2493C29.8437 24.252 29.9182 24.2389 29.9876 24.211C30.057 24.1831 30.1198 24.1409 30.1719 24.0871C30.2239 24.0334 30.2641 23.9693 30.2898 23.899C30.3154 23.8287 30.3261 23.7539 30.321 23.6792Z" fill="#263238"/>
<path d="M31.7071 23.0625C31.7066 23.0352 31.7115 23.0081 31.7217 22.9827C31.7318 22.9574 31.7469 22.9343 31.766 22.9148C31.7851 22.8953 31.808 22.8798 31.8332 22.8693C31.8584 22.8587 31.8854 22.8533 31.9127 22.8533C31.9682 22.8533 32.0214 22.8753 32.0607 22.9146C32.0999 22.9538 32.122 23.007 32.122 23.0625C32.122 23.118 32.0999 23.1712 32.0607 23.2105C32.0214 23.2497 31.9682 23.2718 31.9127 23.2718C31.8854 23.2718 31.8584 23.2664 31.8332 23.2558C31.808 23.2452 31.7851 23.2298 31.766 23.2103C31.7469 23.1908 31.7318 23.1677 31.7217 23.1423C31.7115 23.117 31.7066 23.0898 31.7071 23.0625ZM31.7071 24.2964C31.7066 24.2691 31.7115 24.242 31.7217 24.2166C31.7318 24.1912 31.7469 24.1681 31.766 24.1487C31.7851 24.1292 31.808 24.1137 31.8332 24.1032C31.8584 24.0926 31.8854 24.0872 31.9127 24.0872C31.9399 24.0871 31.9667 24.0926 31.9917 24.1032C32.0167 24.1138 32.0393 24.1293 32.0582 24.1489C32.077 24.1684 32.0918 24.1915 32.1015 24.2169C32.1112 24.2422 32.1157 24.2693 32.1148 24.2964C32.1157 24.3237 32.1112 24.3509 32.1015 24.3765C32.0919 24.4021 32.0772 24.4254 32.0584 24.4452C32.0396 24.4651 32.017 24.4809 31.992 24.4919C31.967 24.5029 31.94 24.5088 31.9127 24.5093C31.8594 24.5093 31.8082 24.4886 31.7698 24.4516C31.7314 24.4146 31.7089 24.3641 31.7071 24.3108V24.2964Z" fill="#263238"/>
<path d="M26.5938 35.1739L26.7056 34.9394C26.9038 35.0992 27.1509 35.1858 27.4055 35.1848C27.7663 35.1848 27.9287 35.0404 27.9287 34.8564C27.9287 34.3405 26.6479 34.6652 26.6479 33.8787C26.6479 33.554 26.9004 33.2726 27.456 33.2726C27.6965 33.2691 27.9331 33.3342 28.1379 33.4602L28.0369 33.7055C27.8637 33.5937 27.6622 33.5336 27.456 33.5324C27.0952 33.5324 26.9437 33.6839 26.9437 33.8679C26.9437 34.3838 28.2245 34.0627 28.2245 34.8384C28.2245 35.1631 27.9647 35.4409 27.4055 35.4409C27.112 35.4499 26.8247 35.3554 26.5938 35.1739Z" fill="#263238"/>
<path d="M30.1306 33.814V35.4159H29.8564V35.1741C29.7932 35.2581 29.7107 35.3255 29.6159 35.3707C29.521 35.416 29.4167 35.4376 29.3117 35.4339C29.218 35.4436 29.1233 35.4322 29.0346 35.4006C28.9459 35.369 28.8654 35.3179 28.799 35.2512C28.7326 35.1844 28.6819 35.1036 28.6508 35.0148C28.6196 34.9259 28.6088 34.8312 28.6189 34.7376V33.814H28.9112V34.7015C28.9112 35.019 29.0699 35.1741 29.3441 35.1741C29.4133 35.1785 29.4826 35.1674 29.547 35.1418C29.6114 35.1161 29.6694 35.0765 29.7166 35.0258C29.7639 34.9751 29.7993 34.9145 29.8204 34.8485C29.8415 34.7824 29.8476 34.7125 29.8384 34.6438V33.814H30.1306Z" fill="#263238"/>
<path d="M32.3295 34.615C32.3351 34.7231 32.3181 34.8312 32.2797 34.9324C32.2412 35.0336 32.182 35.1256 32.106 35.2027C32.0299 35.2797 31.9387 35.3401 31.838 35.3799C31.7374 35.4197 31.6295 35.4382 31.5214 35.434C31.4109 35.4391 31.301 35.4171 31.201 35.3699C31.101 35.3227 31.0141 35.2519 30.9477 35.1634V35.416H30.6699V33.1719H30.9586V34.0522C31.0257 33.9684 31.1117 33.9015 31.2094 33.857C31.3072 33.8125 31.4141 33.7917 31.5214 33.796C31.6297 33.7913 31.7378 33.8094 31.8387 33.849C31.9396 33.8886 32.0311 33.949 32.1072 34.0262C32.1834 34.1033 32.2425 34.1956 32.2808 34.297C32.3191 34.3985 32.3357 34.5068 32.3295 34.615ZM32.0373 34.615C32.0324 34.5092 31.9965 34.4072 31.9341 34.3215C31.8717 34.2359 31.7855 34.1705 31.6863 34.1334C31.5871 34.0963 31.4792 34.0891 31.3759 34.1128C31.2726 34.1364 31.1786 34.1898 31.1054 34.2664C31.0322 34.343 30.9831 34.4394 30.9642 34.5436C30.9453 34.6479 30.9574 34.7554 30.999 34.8528C31.0406 34.9502 31.1099 35.0333 31.1982 35.0917C31.2866 35.1501 31.3902 35.1813 31.4961 35.1815C31.57 35.1837 31.6435 35.1704 31.7118 35.1424C31.7802 35.1143 31.8419 35.0722 31.8929 35.0188C31.944 34.9654 31.9832 34.9018 32.0081 34.8323C32.0329 34.7627 32.0429 34.6887 32.0373 34.615Z" fill="#263238"/>
<path d="M32.1797 35.9245L32.2735 35.7008C32.3403 35.7528 32.4234 35.7796 32.508 35.7766C32.6631 35.7766 32.7497 35.6792 32.7497 35.4952V33.8139H33.0384V35.4952C33.0466 35.5652 33.0392 35.6363 33.0166 35.7031C32.9941 35.77 32.9569 35.831 32.9079 35.8818C32.8589 35.9325 32.7992 35.9718 32.7332 35.9966C32.6671 36.0215 32.5964 36.0313 32.526 36.0255C32.4026 36.0313 32.2807 35.9958 32.1797 35.9245ZM32.6956 33.316C32.6961 33.2904 32.7016 33.2652 32.7118 33.2417C32.722 33.2183 32.7368 33.197 32.7552 33.1793C32.7736 33.1615 32.7954 33.1476 32.8192 33.1382C32.843 33.1289 32.8685 33.1243 32.894 33.1248C32.9315 33.1262 32.9678 33.1386 32.9982 33.1605C33.0287 33.1823 33.0521 33.2127 33.0655 33.2477C33.0789 33.2827 33.0816 33.3209 33.0735 33.3575C33.0653 33.3941 33.0465 33.4275 33.0195 33.4536C32.9925 33.4796 32.9584 33.4971 32.9216 33.5039C32.8847 33.5107 32.8466 33.5065 32.8121 33.4919C32.7776 33.4772 32.7481 33.4527 32.7274 33.4215C32.7067 33.3902 32.6956 33.3535 32.6956 33.316Z" fill="#263238"/>
<path d="M35.0371 34.7122H33.7382C33.7571 34.8497 33.8278 34.9747 33.9357 35.0619C34.0436 35.149 34.1808 35.1917 34.3191 35.1812C34.4056 35.1843 34.4917 35.1685 34.5715 35.1348C34.6513 35.1012 34.7227 35.0505 34.7809 34.9864L34.9433 35.174C34.8628 35.2611 34.7643 35.3294 34.6546 35.3743C34.5449 35.4192 34.4267 35.4395 34.3083 35.4338C34.1965 35.4424 34.0842 35.4275 33.9786 35.39C33.8729 35.3524 33.7764 35.2932 33.6951 35.216C33.6138 35.1388 33.5497 35.0454 33.5067 34.9418C33.4638 34.8383 33.4431 34.7269 33.446 34.6148C33.4415 34.5074 33.4591 34.4003 33.4978 34.3001C33.5365 34.1998 33.5955 34.1086 33.6709 34.0321C33.7464 33.9556 33.8368 33.8955 33.9365 33.8555C34.0362 33.8154 34.1431 33.7964 34.2506 33.7994C34.3585 33.7961 34.4659 33.8155 34.5658 33.8563C34.6658 33.8971 34.7561 33.9584 34.8309 34.0363C34.9057 34.1141 34.9633 34.2068 35.0001 34.3083C35.0368 34.4098 35.0519 34.5179 35.0443 34.6256C35.0407 34.6473 35.0371 34.6834 35.0371 34.7122ZM33.7346 34.503H34.7629C34.7521 34.374 34.6932 34.2539 34.598 34.1663C34.5028 34.0787 34.3781 34.0301 34.2487 34.0301C34.1194 34.0301 33.9947 34.0787 33.8995 34.1663C33.8043 34.2539 33.7454 34.374 33.7346 34.503Z" fill="#263238"/>
<path d="M35.2919 34.6148C35.2892 34.5042 35.3095 34.3943 35.3516 34.292C35.3936 34.1896 35.4566 34.0972 35.5363 34.0205C35.616 33.9438 35.7109 33.8845 35.8148 33.8465C35.9187 33.8084 36.0293 33.7924 36.1397 33.7995C36.269 33.7922 36.3978 33.8199 36.5127 33.8795C36.6276 33.9392 36.7244 34.0287 36.7928 34.1386L36.5727 34.2829C36.5266 34.2095 36.4619 34.1496 36.3853 34.109C36.3087 34.0685 36.2228 34.0488 36.1361 34.052C35.9942 34.0634 35.8617 34.1278 35.7651 34.2324C35.6685 34.3371 35.6149 34.4742 35.6149 34.6166C35.6149 34.7591 35.6685 34.8962 35.7651 35.0009C35.8617 35.1055 35.9942 35.1699 36.1361 35.1813C36.2228 35.1844 36.3087 35.1648 36.3853 35.1243C36.4619 35.0837 36.5266 35.0238 36.5727 34.9504L36.7928 35.0911C36.7271 35.205 36.6316 35.2988 36.5165 35.3624C36.4014 35.426 36.2711 35.4569 36.1397 35.4519C36.0276 35.4586 35.9153 35.4416 35.8101 35.4021C35.7049 35.3625 35.6092 35.3013 35.5293 35.2223C35.4493 35.1434 35.3868 35.0485 35.3459 34.9438C35.305 34.8392 35.2866 34.7271 35.2919 34.6148Z" fill="#263238"/>
<path d="M38.0932 35.322C37.9896 35.4 37.862 35.4395 37.7324 35.4338C37.6643 35.4418 37.5953 35.4343 37.5305 35.412C37.4657 35.3897 37.4067 35.3531 37.3579 35.305C37.3091 35.2569 37.2717 35.1984 37.2485 35.1339C37.2252 35.0694 37.2168 35.0005 37.2237 34.9324V34.052H36.9531V33.8139H37.2237V33.4531H37.516V33.8139H37.9741V34.052H37.516V34.9215C37.5109 34.9565 37.5139 34.9922 37.5246 35.0259C37.5353 35.0595 37.5534 35.0904 37.5777 35.116C37.602 35.1417 37.6318 35.1616 37.6648 35.1741C37.6978 35.1867 37.7333 35.1916 37.7685 35.1885C37.8507 35.1899 37.9309 35.1632 37.9958 35.1127L38.0932 35.322Z" fill="#263238"/>
<path d="M39.084 34.0123C39.0835 33.9852 39.0885 33.9582 39.0987 33.933C39.1088 33.9079 39.124 33.885 39.1432 33.8658C39.1624 33.8466 39.1852 33.8315 39.2104 33.8213C39.2356 33.8112 39.2625 33.8062 39.2897 33.8067C39.3163 33.8067 39.3427 33.812 39.3673 33.8224C39.3919 33.8329 39.4141 33.8481 39.4326 33.8673C39.4511 33.8865 39.4656 33.9093 39.4751 33.9342C39.4847 33.9591 39.4891 33.9857 39.4881 34.0123C39.4891 34.0392 39.4847 34.0659 39.4752 34.091C39.4657 34.1161 39.4513 34.1391 39.4328 34.1586C39.4143 34.1781 39.3921 34.1937 39.3676 34.2045C39.343 34.2153 39.3165 34.2211 39.2897 34.2216C39.2624 34.2216 39.2353 34.2161 39.2101 34.2056C39.1849 34.195 39.1621 34.1796 39.143 34.1601C39.1238 34.1406 39.1087 34.1175 39.0986 34.0921C39.0885 34.0668 39.0835 34.0396 39.084 34.0123ZM39.084 35.2354C39.0835 35.2082 39.0885 35.1813 39.0987 35.1561C39.1088 35.1309 39.124 35.1081 39.1432 35.0889C39.1624 35.0697 39.1852 35.0546 39.2104 35.0444C39.2356 35.0342 39.2625 35.0292 39.2897 35.0297C39.3163 35.0297 39.3427 35.0351 39.3673 35.0455C39.3919 35.0559 39.4141 35.0712 39.4326 35.0904C39.4511 35.1096 39.4656 35.1323 39.4751 35.1572C39.4847 35.1821 39.4891 35.2087 39.4881 35.2354C39.4891 35.262 39.4847 35.2886 39.4751 35.3135C39.4656 35.3385 39.4511 35.3612 39.4326 35.3804C39.4141 35.3996 39.3919 35.4148 39.3673 35.4253C39.3427 35.4357 39.3163 35.4411 39.2897 35.441C39.2625 35.4415 39.2356 35.4365 39.2104 35.4264C39.1852 35.4162 39.1624 35.4011 39.1432 35.3819C39.124 35.3627 39.1088 35.3398 39.0987 35.3147C39.0885 35.2895 39.0835 35.2625 39.084 35.2354Z" fill="#263238"/>
<path d="M23.8006 12.1705C23.8006 12.3133 23.7582 12.4528 23.679 12.5714C23.5997 12.6901 23.487 12.7826 23.3551 12.8372C23.2233 12.8918 23.0782 12.9061 22.9382 12.8783C22.7983 12.8504 22.6697 12.7817 22.5688 12.6808C22.4679 12.5799 22.3991 12.4513 22.3713 12.3113C22.3434 12.1713 22.3577 12.0263 22.4123 11.8944C22.467 11.7626 22.5594 11.6499 22.6781 11.5706C22.7968 11.4913 22.9363 11.449 23.079 11.449C23.2704 11.449 23.4539 11.525 23.5892 11.6603C23.7245 11.7956 23.8006 11.9792 23.8006 12.1705Z" fill="white"/>
<path d="M26.4236 12.1705C26.4236 12.3133 26.3813 12.4528 26.302 12.5714C26.2227 12.6901 26.11 12.7826 25.9782 12.8372C25.8463 12.8918 25.7012 12.9061 25.5613 12.8783C25.4213 12.8504 25.2927 12.7817 25.1918 12.6808C25.0909 12.5799 25.0222 12.4513 24.9943 12.3113C24.9665 12.1713 24.9808 12.0263 25.0354 11.8944C25.09 11.7626 25.1825 11.6499 25.3012 11.5706C25.4198 11.4913 25.5593 11.449 25.702 11.449C25.8934 11.449 26.0769 11.525 26.2123 11.6603C26.3476 11.7956 26.4236 11.9792 26.4236 12.1705Z" fill="white"/>
<path d="M29.0486 12.1705C29.0486 12.3133 29.0063 12.4528 28.927 12.5714C28.8477 12.6901 28.735 12.7826 28.6032 12.8372C28.4713 12.8918 28.3262 12.9061 28.1863 12.8783C28.0463 12.8504 27.9177 12.7817 27.8168 12.6808C27.7159 12.5799 27.6472 12.4513 27.6193 12.3113C27.5915 12.1713 27.6058 12.0263 27.6604 11.8944C27.715 11.7626 27.8075 11.6499 27.9262 11.5706C28.0448 11.4913 28.1843 11.449 28.327 11.449C28.5184 11.449 28.7019 11.525 28.8373 11.6603C28.9726 11.7956 29.0486 11.9792 29.0486 12.1705Z" fill="white"/>
<path d="M47.3253 48.2128C47.3253 48.2128 47.3253 48.1803 47.3253 48.1262V47.8845C47.3253 47.6608 47.3253 47.3505 47.3253 46.9536C47.3253 46.1383 47.3253 44.9657 47.2929 43.4865L47.347 43.537L26.0606 43.5803L26.1544 43.4865V45.8785C26.1544 46.665 26.1544 47.4443 26.1544 48.2056L26.0534 48.1226L41.2064 48.1659L45.691 48.1911H46.9032H47.2207H47.3326H47.2315H46.9285H45.7343L41.2713 48.2164L26.0606 48.2561H25.9668V43.4937L26.0606 43.3999L47.347 43.4396H47.4011V43.4937C47.4011 44.9838 47.3795 46.1707 47.3722 46.9933C47.3722 47.3866 47.3722 47.6933 47.3722 47.9097V48.1226C47.3617 48.1551 47.3459 48.1855 47.3253 48.2128Z" fill="#263238"/>
<path d="M60.4586 48.2125C60.4537 48.1827 60.4537 48.1522 60.4586 48.1223C60.4586 48.0538 60.4586 47.9708 60.4586 47.8734C60.4586 47.6389 60.4586 47.325 60.4405 46.9245C60.4405 46.0983 60.4225 44.9258 60.4045 43.4862L60.473 43.5512L48.8268 43.58L48.9206 43.4862V45.9071C48.9206 46.7008 48.9206 47.4657 48.9206 48.2053L48.8304 48.1151L57.1538 48.1584L59.5855 48.1837H60.2421H60.4766C60.4057 48.1888 60.3346 48.1888 60.2637 48.1837H59.6252L57.2151 48.2089L48.8304 48.2522H48.7402V45.8638C48.7402 45.4705 48.7402 45.0701 48.7402 44.6624V43.4429L48.834 43.3491L60.4802 43.3744H60.5452V43.4429C60.5452 44.8861 60.5163 46.0839 60.5091 46.9209C60.5091 47.3142 60.5091 47.6425 60.5091 47.8553C60.5091 48.0682 60.4622 48.2161 60.4586 48.2125Z" fill="#263238"/>
<path d="M28.2356 45.2363H27.4707V44.9585H29.3179V45.2363H28.5531V47.1882H28.2356V45.2363Z" fill="#263238"/>
<path d="M29.5234 44.9802C29.5234 44.9531 29.5289 44.9262 29.5395 44.9012C29.5501 44.8762 29.5656 44.8536 29.5851 44.8348C29.6047 44.8159 29.6278 44.8012 29.6532 44.7915C29.6785 44.7818 29.7056 44.7772 29.7327 44.7782C29.7591 44.7772 29.7853 44.7816 29.81 44.7909C29.8347 44.8002 29.8573 44.8143 29.8764 44.8325C29.8956 44.8506 29.9109 44.8724 29.9215 44.8965C29.9322 44.9206 29.9379 44.9467 29.9383 44.973C29.9317 45.0233 29.907 45.0695 29.8688 45.103C29.8307 45.1364 29.7816 45.1549 29.7309 45.1549C29.6801 45.1549 29.6311 45.1364 29.593 45.103C29.5548 45.0695 29.5301 45.0233 29.5234 44.973V44.9802ZM29.5776 45.5034H29.8842V47.1919H29.5776V45.5034Z" fill="#263238"/>
<path d="M31.4178 47.0939C31.3141 47.1727 31.1871 47.2146 31.057 47.213C30.9849 47.2215 30.9119 47.2137 30.8433 47.1902C30.7747 47.1666 30.7123 47.128 30.6607 47.077C30.6091 47.0261 30.5696 46.9642 30.5451 46.8959C30.5206 46.8277 30.5119 46.7548 30.5194 46.6826V45.7554H30.2344V45.5029H30.5194V45.1421H30.8261V45.5029H31.3095V45.7554H30.8261V46.679C30.8261 46.863 30.9199 46.9641 31.0894 46.9641C31.1765 46.9648 31.2615 46.937 31.3312 46.8847L31.4178 47.0939Z" fill="#263238"/>
<path d="M31.7871 44.8289H32.0938V47.192H31.7871V44.8289Z" fill="#263238"/>
<path d="M34.1963 46.4485H32.8253C32.8443 46.594 32.9187 46.7265 33.0329 46.8186C33.1471 46.9106 33.2925 46.9551 33.4387 46.9427C33.5297 46.9466 33.6205 46.9306 33.7046 46.8957C33.7887 46.8608 33.8642 46.8079 33.9257 46.7407L34.0953 46.9391C34.0109 47.0309 33.9074 47.1031 33.7921 47.1504C33.6767 47.1978 33.5524 47.2193 33.4279 47.2133C33.3101 47.222 33.1918 47.2058 33.0807 47.1659C32.9696 47.1259 32.8681 47.0631 32.7827 46.9815C32.6974 46.8999 32.6301 46.8013 32.5853 46.6921C32.5404 46.5829 32.5189 46.4655 32.5223 46.3474C32.5173 46.2341 32.5357 46.1209 32.5763 46.015C32.617 45.9091 32.679 45.8127 32.7586 45.7318C32.8381 45.6509 32.9335 45.5873 33.0387 45.5448C33.1439 45.5024 33.2567 45.4821 33.3701 45.4852C33.4838 45.4824 33.5967 45.5033 33.7017 45.5468C33.8068 45.5902 33.9016 45.6551 33.98 45.7373C34.0585 45.8195 34.1189 45.9172 34.1574 46.0242C34.1959 46.1311 34.2116 46.2449 34.2036 46.3583C34.2028 46.3884 34.2004 46.4186 34.1963 46.4485ZM32.8253 46.2284H33.9077C33.8867 46.1 33.8207 45.9833 33.7216 45.8991C33.6224 45.8149 33.4966 45.7687 33.3665 45.7687C33.2365 45.7687 33.1106 45.8149 33.0115 45.8991C32.9124 45.9833 32.8464 46.1 32.8253 46.2284Z" fill="#263238"/>
<path d="M43.9375 45.644H45.9615L44.9513 46.6579L43.9375 45.644Z" fill="#263238"/>
<path d="M56.7949 45.644H58.8189L57.8051 46.6579L56.7949 45.644Z" fill="#263238"/>
<path d="M134.333 96.1722C134.333 95.6202 134.304 75.1023 134.261 41.2461L134.333 41.3147L23.9756 41.34L24.0694 41.2461C24.0694 60.6059 24.0694 79.19 24.0694 96.1722L23.9792 96.082L134.344 96.1722L23.9792 96.2588H23.8926V96.1722C23.8926 79.19 23.8926 60.6059 23.8926 41.2461V41.1523H23.9936L134.351 41.1776H134.398V41.2461C134.358 75.1023 134.333 95.6202 134.333 96.1722Z" fill="#E0E0E0"/>
<path d="M134.333 39.1501C134.333 39.1501 134.333 38.9336 134.333 38.5259C134.333 38.1182 134.333 37.5085 134.333 36.722C134.333 35.1309 134.333 32.7858 134.312 29.766L134.351 29.8021L23.8244 29.8598L23.9182 29.766V39.1464L23.8244 39.0526L102.281 39.0923L125.768 39.1176H132.132H133.785C134.146 39.1176 134.355 39.1176 134.355 39.1176H133.799H132.158H125.815L102.364 39.1464L23.8389 39.1861H23.709V29.6614H23.8064L134.333 29.7227H134.369V29.7588C134.369 32.7894 134.351 35.1381 134.348 36.7364C134.348 37.5265 134.348 38.1326 134.348 38.5403C134.348 38.948 134.333 39.1501 134.333 39.1501Z" fill="#E0E0E0"/>
<path d="M134.333 27.7707C134.333 27.7707 134.333 27.5578 134.333 27.1465C134.333 26.7352 134.333 26.1291 134.333 25.3426C134.333 23.7515 134.333 21.41 134.312 18.3902L134.351 18.4263L23.8244 18.484L23.9182 18.3902V27.7707L23.8244 27.6769L102.281 27.7165L125.768 27.7454H132.132H133.785H134.355H133.799H132.158H125.815L102.364 27.7743L23.8389 27.814H23.709V18.282H23.8064L134.333 18.3397H134.369V18.3794C134.369 21.4064 134.351 23.7587 134.348 25.3534C134.348 26.1471 134.348 26.7496 134.348 27.1573C134.348 27.565 134.333 27.7707 134.333 27.7707Z" fill="#E0E0E0"/>
<path d="M105.599 43.905C105.424 43.8989 105.255 43.9605 105.125 44.0768C104.995 44.1932 104.915 44.3553 104.902 44.5291V46.9752C104.942 47.2039 105.061 47.4113 105.239 47.5608C105.416 47.7102 105.641 47.7922 105.873 47.7922C106.105 47.7922 106.33 47.7102 106.507 47.5608C106.685 47.4113 106.804 47.2039 106.843 46.9752V45.0017H106.652V46.8923C106.633 47.0879 106.542 47.2695 106.397 47.4016C106.252 47.5337 106.062 47.607 105.866 47.607C105.669 47.607 105.48 47.5337 105.334 47.4016C105.189 47.2695 105.098 47.0879 105.079 46.8923V44.5508C105.079 44.4158 105.133 44.2865 105.228 44.191C105.324 44.0956 105.453 44.0421 105.588 44.0421C105.723 44.0421 105.852 44.0956 105.948 44.191C106.043 44.2865 106.097 44.4158 106.097 44.5508V46.5351C106.078 46.5959 106.041 46.6492 105.99 46.6871C105.939 46.725 105.877 46.7454 105.813 46.7454C105.75 46.7454 105.688 46.725 105.637 46.6871C105.586 46.6492 105.548 46.5959 105.53 46.5351V45.0054H105.343V46.4665V46.5351C105.366 46.6414 105.424 46.7366 105.509 46.8049C105.594 46.8731 105.699 46.9104 105.808 46.9104C105.917 46.9104 106.022 46.8731 106.107 46.8049C106.192 46.7366 106.25 46.6414 106.273 46.5351V46.4954C106.273 46.4954 106.273 46.4737 106.273 46.4629V44.5147C106.256 44.3475 106.178 44.1927 106.053 44.08C105.929 43.9674 105.767 43.905 105.599 43.905Z" fill="#263238"/>
<path d="M79.85 44.9839H77.0684V45.424H79.85V44.9839Z" fill="#263238"/>
<path d="M79.85 46.5891H77.0684V47.0293H79.85V46.5891Z" fill="#263238"/>
<path d="M78.461 45.8137H77.0684V46.2539H78.461V45.8137Z" fill="#263238"/>
<path d="M90.2934 44.9839H87.5117V45.424H90.2934V44.9839Z" fill="#263238"/>
<path d="M90.2934 46.5891H87.5117V47.0293H90.2934V46.5891Z" fill="#263238"/>
<path d="M90.295 45.8137H88.9023V46.2539H90.295V45.8137Z" fill="#263238"/>
<path d="M85.143 44.9839H82.3613V45.424H85.143V44.9839Z" fill="#263238"/>
<path d="M85.143 46.5891H82.3613V47.0293H85.143V46.5891Z" fill="#263238"/>
<path d="M85.143 45.8137H82.3613V46.2539H85.143V45.8137Z" fill="#263238"/>
<path d="M97.2629 46.885H94.9863V45.0161H96.1661V45.4094H95.3832V46.4881H96.8696V46.0985H97.2629V46.885Z" fill="#263238"/>
<path d="M98.5718 46.885H97.6049V46.4881H98.1785V45.4094H96.6921V45.9145H96.2988V45.0161H98.5718V46.885Z" fill="#263238"/>
<path d="M99.4941 45.8027H100.706L100.1 46.3656L99.4941 45.8027Z" fill="#263238"/>
<path d="M72.0977 45.9942V44.9443H72.4584V45.9798C72.4584 46.3622 72.6316 46.5282 72.9311 46.5282C73.2305 46.5282 73.4001 46.3622 73.4001 45.9798V44.9443H73.7392V45.9942C73.7467 46.1056 73.7311 46.2174 73.6936 46.3225C73.6561 46.4276 73.5974 46.524 73.5211 46.6055C73.4448 46.687 73.3526 46.752 73.2502 46.7964C73.1478 46.8409 73.0373 46.8638 72.9257 46.8638C72.814 46.8638 72.7036 46.8409 72.6011 46.7964C72.4987 46.752 72.4065 46.687 72.3302 46.6055C72.254 46.524 72.1952 46.4276 72.1577 46.3225C72.1202 46.2174 72.1047 46.1056 72.1121 45.9942H72.0977Z" fill="#263238"/>
<path d="M68.9756 44.7349H69.2859L68.8493 46.8996H68.5391L68.9756 44.7349Z" fill="#263238"/>
<path d="M66.0578 46.3184C66.0578 46.6792 65.7476 46.9137 65.1631 46.9137H63.9941V44.749H65.1018C65.6718 44.749 65.9532 44.9835 65.9532 45.3191C65.9544 45.417 65.9275 45.5132 65.8757 45.5964C65.824 45.6795 65.7494 45.746 65.661 45.7881C65.7759 45.8211 65.8769 45.8908 65.9485 45.9866C66.0202 46.0823 66.0586 46.1989 66.0578 46.3184ZM64.6147 45.1856V45.5969H65.0368C65.2425 45.5969 65.3471 45.5283 65.3471 45.3876C65.3471 45.2469 65.2425 45.1784 65.0368 45.1784L64.6147 45.1856ZM65.4517 46.2499C65.4517 46.102 65.3399 46.0298 65.1306 46.0298H64.6147V46.47H65.127C65.3254 46.4628 65.4373 46.3906 65.4373 46.2427L65.4517 46.2499Z" fill="#263238"/>
<path d="M75.3843 48.3425C75.2916 47.5149 75.2602 46.6816 75.2905 45.8494C75.2602 45.016 75.2915 44.1815 75.3843 43.3528C75.4792 44.1814 75.5106 45.016 75.4781 45.8494C75.5105 46.6816 75.4792 47.5151 75.3843 48.3425Z" fill="#E0E0E0"/>
<path d="M91.9187 48.3425C91.8238 47.5151 91.7925 46.6816 91.8249 45.8494C91.7924 45.016 91.8238 44.1814 91.9187 43.3528C92.0115 44.1815 92.0428 45.016 92.0125 45.8494C92.0428 46.6816 92.0114 47.5149 91.9187 48.3425Z" fill="#E0E0E0"/>
<path d="M101.925 48.4436C101.833 47.616 101.801 46.7827 101.832 45.9505C101.801 45.1184 101.832 44.2851 101.925 43.4575C102.018 44.2851 102.05 45.1184 102.019 45.9505C102.049 46.7827 102.018 47.616 101.925 48.4436Z" fill="#E0E0E0"/>
<path d="M109.503 48.2958C109.411 47.4683 109.379 46.635 109.41 45.8028C109.379 44.9694 109.411 44.1349 109.503 43.3062C109.601 44.1346 109.633 44.9693 109.601 45.8028C109.633 46.6351 109.601 47.4686 109.503 48.2958Z" fill="#E0E0E0"/>
<path d="M74.1021 47.0796C73.3617 47.2047 72.6056 47.2047 71.8652 47.0796C72.6056 46.9546 73.3617 46.9546 74.1021 47.0796Z" fill="#263238"/>
<path d="M52.2309 44.7348V46.8995H51.9243V44.9981H51.4336V44.7275L52.2309 44.7348Z" fill="#263238"/>
<path d="M54.2323 46.6362V46.9068H52.6737V46.6795L53.5576 45.828C53.7885 45.6044 53.8318 45.4673 53.8318 45.3338C53.8318 45.1101 53.6731 44.973 53.37 44.973C53.2657 44.9674 53.1615 44.9856 53.0652 45.0262C52.969 45.0669 52.8832 45.1288 52.8144 45.2075L52.6016 45.0271C52.7013 44.917 52.8242 44.8304 52.9615 44.7737C53.0988 44.7169 53.2469 44.6913 53.3953 44.6988C53.8499 44.6988 54.1385 44.9297 54.1385 45.3013C54.1344 45.4349 54.0997 45.5659 54.0371 45.6841C53.9746 45.8022 53.8859 45.9046 53.7777 45.9832L53.1139 46.6218L54.2323 46.6362Z" fill="#263238"/>
<path d="M134.334 50.6878C134.334 50.7383 109.584 50.7816 79.0612 50.7816C48.5387 50.7816 23.7852 50.7383 23.7852 50.6878C23.7852 50.6373 48.5279 50.594 79.0612 50.594C109.595 50.594 134.334 50.6481 134.334 50.6878Z" fill="#E0E0E0"/>
<path d="M127.512 56.1608C127.512 56.2113 105.038 56.2546 77.3192 56.2546C49.6 56.2546 27.123 56.2113 27.123 56.1608C27.123 56.1103 49.6109 56.0598 77.3192 56.0598C105.028 56.0598 127.512 56.1067 127.512 56.1608Z" fill="#263238"/>
<path d="M127.512 60.2269C127.512 60.281 105.038 60.3207 77.3192 60.3207C49.6 60.3207 27.123 60.281 27.123 60.2269C27.123 60.1727 49.5928 60.1331 77.3192 60.1331C105.046 60.1331 127.512 60.1764 127.512 60.2269Z" fill="#263238"/>
<path d="M127.512 64.2967C127.512 64.3472 105.038 64.3905 77.3192 64.3905C49.6 64.3905 27.123 64.358 27.123 64.2967C27.123 64.2353 49.5928 64.2029 77.3192 64.2029C105.046 64.2029 127.512 64.2426 127.512 64.2967Z" fill="#263238"/>
<path d="M127.512 68.3626C127.512 68.4167 105.038 68.4564 77.3192 68.4564C49.6 68.4564 27.123 68.4167 27.123 68.3626C27.123 68.3085 49.5928 68.2688 77.3192 68.2688C105.046 68.2688 127.512 68.3265 127.512 68.3626Z" fill="#263238"/>
<path d="M127.512 72.4324C127.512 72.4829 105.038 72.5262 77.3192 72.5262C49.6 72.5262 27.123 72.4829 27.123 72.4324C27.123 72.3819 49.5928 72.3386 77.3192 72.3386C105.046 72.3386 127.512 72.3783 127.512 72.4324Z" fill="#263238"/>
<path d="M127.512 76.4986C127.512 76.5527 105.038 76.5924 77.3192 76.5924C49.6 76.5924 27.123 76.5527 27.123 76.4986C27.123 76.4445 49.5928 76.4048 77.3192 76.4048C105.046 76.4048 127.512 76.4481 127.512 76.4986Z" fill="#263238"/>
<path d="M127.512 80.5682C127.512 80.6187 105.038 80.662 77.3192 80.662C49.6 80.662 27.123 80.6187 27.123 80.5682C27.123 80.5177 49.5928 80.4744 77.3192 80.4744C105.046 80.4744 127.512 80.514 127.512 80.5682Z" fill="#263238"/>
<path d="M127.584 84.4898C127.584 84.5403 105.111 84.5836 77.3915 84.5836C49.6723 84.5836 27.1953 84.5403 27.1953 84.4898C27.1953 84.4393 49.6651 84.396 77.3915 84.396C105.118 84.396 127.584 84.4393 127.584 84.4898Z" fill="#263238"/>
<path d="M127.658 88.4117C127.658 88.4658 105.185 88.5055 77.4693 88.5055C49.7537 88.5055 27.2695 88.4658 27.2695 88.4117C27.2695 88.3576 49.7393 88.3179 77.4693 88.3179C105.199 88.3179 127.658 88.3612 127.658 88.4117Z" fill="#263238"/>
<path d="M27.3457 92.3331C27.3457 92.2826 49.8191 92.2393 77.5347 92.2393C105.25 92.2393 127.731 92.2826 127.731 92.3331C127.731 92.3836 105.261 92.4269 77.5347 92.4269C49.8083 92.4269 27.3457 92.3872 27.3457 92.3331Z" fill="#263238"/>
<path d="M138.185 100.299C138.185 99.6573 138.157 64.0946 138.11 8.85824L138.185 8.93761H19.6383L19.7321 8.84381C19.7321 41.7836 19.7321 72.9483 19.7321 100.285L19.6491 100.202L138.207 100.285L19.6491 100.372H19.5625V100.285C19.5625 72.9483 19.5625 41.7836 19.5625 8.84381V8.75H19.6671L138.185 8.7969H138.265V8.87267C138.218 64.0946 138.185 99.6573 138.185 100.299Z" fill="#263238"/>
<path d="M91.8242 37.2521V45.1172C91.8242 45.8138 92.1009 46.4818 92.5935 46.9744C93.0861 47.467 93.7541 47.7437 94.4507 47.7437H104.091C104.231 47.7437 104.369 47.7763 104.494 47.8389C104.62 47.9016 104.729 47.9925 104.813 48.1045L107.172 53.2457L110.015 48.1947C110.101 48.0987 110.206 48.0218 110.323 47.969C110.441 47.9161 110.568 47.8886 110.697 47.888H120.799C121.494 47.8795 122.158 47.5955 122.644 47.0984C123.13 46.6013 123.4 45.9316 123.393 45.2362V37.2015C123.393 36.8565 123.325 36.5148 123.193 36.1961C123.06 35.8774 122.867 35.588 122.622 35.3443C122.378 35.1006 122.088 34.9076 121.769 34.7762C121.45 34.6448 121.108 34.5777 120.763 34.5786L94.4616 34.6255C94.1157 34.6241 93.773 34.691 93.4531 34.8223C93.1332 34.9537 92.8424 35.1469 92.5973 35.391C92.3523 35.635 92.1579 35.925 92.0252 36.2444C91.8925 36.5638 91.8242 36.9062 91.8242 37.2521Z" fill="#175CD3"/>
<path d="M98.4421 44.0455H96.7969V42.4942L100.585 38.356L100.661 38.3379C100.863 38.2564 101.082 38.2296 101.297 38.26C101.513 38.2904 101.716 38.377 101.888 38.5111C102.367 38.9513 102.248 39.7558 102.219 39.846V39.9254L98.4421 44.0455ZM97.3597 43.5008H98.2184L101.714 39.6764C101.739 39.5436 101.736 39.4072 101.705 39.2757C101.675 39.1442 101.618 39.0202 101.538 38.9116C101.444 38.8491 101.337 38.8103 101.225 38.7983C101.113 38.7864 101 38.8017 100.895 38.843L97.3597 42.7034V43.5008Z" fill="white"/>
<path d="M109.142 42.9992V43.5368H106.014V39.229H109.055V39.763H106.631V41.0871H108.795V41.6282H106.631V43.0173L109.142 42.9992Z" fill="white"/>
<path d="M113.11 38.9696V43.5372H112.544V43.0176C112.411 43.1983 112.235 43.3435 112.032 43.4403C111.83 43.5372 111.607 43.5829 111.382 43.5732C110.954 43.5533 110.55 43.3692 110.254 43.0591C109.958 42.749 109.793 42.3369 109.793 41.9082C109.793 41.4796 109.958 41.0674 110.254 40.7573C110.55 40.4473 110.954 40.2631 111.382 40.2432C111.6 40.2354 111.816 40.2787 112.014 40.3695C112.212 40.4604 112.386 40.5963 112.522 40.7663V38.9624L113.11 38.9696ZM112.526 41.9064C112.513 41.6958 112.438 41.4937 112.311 41.3249C112.184 41.1562 112.011 41.0281 111.813 40.9566C111.614 40.8851 111.399 40.8732 111.194 40.9224C110.988 40.9716 110.802 41.0797 110.657 41.2335C110.513 41.3872 110.416 41.5799 110.38 41.7878C110.343 41.9956 110.368 42.2096 110.452 42.4035C110.535 42.5973 110.674 42.7624 110.85 42.8786C111.026 42.9948 111.233 43.0569 111.444 43.0573C111.591 43.0566 111.737 43.0258 111.872 42.9668C112.007 42.9077 112.129 42.8216 112.23 42.7138C112.33 42.6061 112.408 42.4789 112.458 42.34C112.507 42.2012 112.528 42.0536 112.519 41.9064H112.526Z" fill="white"/>
<path d="M114.125 39.2653C114.125 39.2134 114.134 39.1619 114.154 39.114C114.174 39.066 114.204 39.0225 114.241 38.9861C114.278 38.9497 114.322 38.9212 114.37 38.9022C114.418 38.8833 114.47 38.8742 114.522 38.8757C114.623 38.8708 114.721 38.906 114.796 38.9735C114.872 39.0411 114.917 39.1357 114.922 39.2365C114.924 39.2893 114.915 39.3419 114.895 39.391C114.875 39.4401 114.846 39.4846 114.808 39.5218C114.771 39.559 114.726 39.5881 114.677 39.6073C114.627 39.6265 114.575 39.6353 114.522 39.6333C114.472 39.6353 114.422 39.6273 114.374 39.6098C114.327 39.5924 114.284 39.5658 114.247 39.5316C114.21 39.4974 114.181 39.4563 114.16 39.4106C114.139 39.365 114.127 39.3156 114.125 39.2653ZM114.23 40.2719H114.818V43.519H114.23V40.2719Z" fill="white"/>
<path d="M117.778 43.3456C117.571 43.5026 117.316 43.5829 117.056 43.5729C116.918 43.5888 116.778 43.5734 116.646 43.5278C116.514 43.4823 116.395 43.4078 116.295 43.3098C116.196 43.2118 116.121 43.0928 116.074 42.9616C116.027 42.8305 116.01 42.6904 116.024 42.5519V40.7479H115.469V40.2609H116.024V39.5393H116.612V40.2609H117.55V40.7479H116.612V42.5158C116.603 42.587 116.609 42.6595 116.631 42.728C116.652 42.7966 116.689 42.8594 116.738 42.9119C116.787 42.9645 116.847 43.0054 116.914 43.0317C116.981 43.0581 117.053 43.0692 117.125 43.0642C117.292 43.0653 117.454 43.0107 117.587 42.9091L117.778 43.3456Z" fill="white"/>
<path d="M34.9352 158.775C33.9899 158.728 33.7121 157.397 34.0657 156.52C34.4193 155.644 35.1084 154.864 35.1192 153.919C35.1192 153.1 34.6069 152.357 34.5564 151.538C34.4662 150.062 35.8949 148.857 35.9562 147.382C36.0031 146.227 35.2022 145.13 35.397 143.994C35.6026 142.774 36.8762 141.977 37.1684 140.772C37.4787 139.495 36.5912 138.138 36.9303 136.868C37.2695 135.598 38.7631 134.668 38.5503 133.376C38.4249 132.96 38.2768 132.552 38.1065 132.153C37.8395 131.19 38.3663 130.179 39.0048 129.407C39.6434 128.635 40.4263 127.964 40.8088 127.03C41.4185 125.615 40.9964 123.891 41.7107 122.527C42.3097 121.394 43.6373 120.629 43.8033 119.359C44.4744 120.503 43.8033 121.957 43.9693 123.278C44.0703 124.136 44.5177 124.912 44.7883 125.734C45.0635 126.575 45.161 127.464 45.0747 128.345C44.9883 129.226 44.72 130.079 44.2868 130.85C43.7095 131.864 42.822 132.824 42.8653 133.989C42.9194 135.4 44.3337 136.425 44.5826 137.814C44.9434 139.802 42.822 141.591 43.1142 143.586C43.19 144.102 43.4245 144.589 43.475 145.109C43.6229 146.877 41.6205 148.125 41.3103 149.875C41.0866 151.159 41.8298 152.487 41.5231 153.757C41.285 154.734 40.4408 155.611 40.6464 156.596C40.7888 157.008 40.97 157.405 41.1876 157.783C41.3497 158.169 41.4018 158.593 41.3381 159.007C41.2744 159.42 41.0975 159.809 40.8268 160.128C40.5456 160.438 40.1731 160.65 39.7633 160.735C39.3534 160.819 38.9274 160.771 38.5466 160.597" fill="#175CD3"/>
<g opacity="0.5">
<path d="M41.1997 157.801C40.9821 157.423 40.8009 157.026 40.6585 156.614C40.4529 155.629 41.2971 154.752 41.5352 153.775C41.8419 152.505 41.0987 151.177 41.3224 149.892C41.629 148.143 43.6314 146.894 43.4871 145.127C43.4402 144.607 43.2057 144.12 43.1263 143.604C42.8341 141.605 44.9519 139.816 44.5947 137.831C44.3457 136.442 42.9351 135.418 42.8773 134.007C42.8341 132.842 43.7216 131.882 44.2988 130.868C44.7321 130.097 45.0004 129.244 45.0868 128.363C45.1731 127.482 45.0756 126.593 44.8003 125.752C44.5297 124.93 44.0788 124.154 43.9813 123.295C43.8298 121.975 44.4864 120.521 43.8154 119.377C43.6494 120.647 42.3217 121.412 41.7228 122.545C41.0013 123.909 41.4306 125.633 40.8209 127.048C40.4276 127.968 39.6447 128.653 39.0169 129.425C38.3892 130.197 37.8516 131.207 38.1186 132.171C38.2888 132.57 38.437 132.978 38.5623 133.394C38.7752 134.685 37.2815 135.616 36.9424 136.886C36.6033 138.156 37.4908 139.513 37.1805 140.79C36.8883 141.995 35.6147 142.792 35.4091 144.012C35.2142 145.148 36.0152 146.245 35.9683 147.399C35.907 148.875 34.4782 150.08 34.5684 151.556C34.6189 152.375 35.1385 153.118 35.1313 153.937C35.1313 154.882 34.4097 155.661 34.0778 156.538C33.7458 157.415 34.002 158.746 34.9473 158.793L38.5768 160.619C38.9575 160.792 39.3835 160.84 39.7934 160.756C40.2032 160.672 40.5757 160.459 40.8569 160.15C41.1253 159.828 41.2994 159.438 41.3599 159.024C41.4204 158.609 41.3649 158.186 41.1997 157.801Z" fill="white"/>
</g>
<path d="M39.9695 156.925C39.7193 156.503 39.5942 156.019 39.6087 155.529C39.7061 154.988 40.6189 154.515 40.8462 153.598C41.1384 152.408 40.6081 150.308 40.8462 149.107C41.1529 147.48 42.8378 146.408 42.7692 144.777C42.7476 144.301 42.8161 143.031 42.7692 142.562C42.5888 140.74 44.1907 139.517 43.9562 137.706C43.7938 136.443 42.4842 134.96 42.4806 133.665C42.4806 132.583 43.2491 131.655 43.7578 130.685C44.5289 129.229 44.7345 127.539 44.335 125.941C44.1366 125.201 43.7902 124.497 43.7361 123.733C43.6495 122.528 44.2412 121.142 43.7361 120.125C43.5593 121.308 42.4337 122.098 41.9033 123.181C41.2683 124.483 41.5642 126.042 41.0158 127.384C40.655 128.257 39.9911 128.939 39.4355 129.693C38.8799 130.447 38.4145 131.407 38.6057 132.28C38.7349 132.634 38.8445 132.995 38.934 133.362C39.0711 134.542 37.8048 135.494 37.4909 136.685C37.177 137.875 37.8517 139.066 37.5631 140.264C37.2853 141.389 36.1812 142.919 35.972 144.056C35.7736 145.116 36.7332 145.806 36.6575 146.866C36.5637 148.234 35.2143 149.882 35.2143 151.235C35.2143 151.986 35.8601 152.228 35.8277 152.982C35.788 153.851 35.0592 155.583 34.7453 156.413C34.575 156.787 34.5063 157.2 34.5462 157.61C34.5861 158.02 34.7332 158.412 34.9726 158.747L39.0279 160.76C40.7993 159.927 40.7199 158.162 39.9695 156.925Z" fill="#175CD3"/>
<path d="M42.6933 126.308C42.6985 126.338 42.6985 126.369 42.6933 126.399C42.6933 126.467 42.6933 126.554 42.6933 126.662C42.6933 126.896 42.6932 127.236 42.65 127.676C42.6162 128.214 42.4943 128.743 42.2892 129.242C42.051 129.837 41.546 130.371 41.0697 130.984C40.8118 131.297 40.6148 131.656 40.4888 132.041C40.3614 132.462 40.3124 132.902 40.3445 133.34C40.3878 134.256 40.6692 135.209 40.8027 136.248C40.8836 136.784 40.8652 137.331 40.7486 137.861C40.6803 138.135 40.5734 138.399 40.4311 138.644C40.2755 138.876 40.1334 139.117 40.0054 139.365C39.8235 139.897 39.8147 140.473 39.9801 141.01C40.0379 141.295 40.1028 141.584 40.1389 141.883C40.1702 142.188 40.1617 142.494 40.1136 142.796C40.0011 143.386 39.8132 143.958 39.5544 144.499C39.3137 145.019 39.1052 145.552 38.9303 146.097C38.7785 146.617 38.7307 147.161 38.7895 147.699C38.8681 148.232 38.8875 148.772 38.8473 149.308C38.7517 149.813 38.5789 150.3 38.335 150.752C38.1094 151.167 37.9373 151.61 37.8226 152.068C37.6531 152.963 37.9056 153.822 37.8876 154.616C37.8406 155.328 37.6836 156.029 37.4222 156.694C37.2341 157.191 37.1011 157.708 37.0253 158.234C36.9832 158.567 37.0177 158.905 37.1263 159.223C37.2093 159.436 37.2742 159.54 37.2634 159.548C37.1986 159.448 37.143 159.343 37.0975 159.234C36.9726 158.914 36.9256 158.569 36.9604 158.227C37.0222 157.695 37.1432 157.171 37.3211 156.665C37.5715 156.008 37.7187 155.317 37.7577 154.616C37.7577 154.226 37.7036 153.822 37.6603 153.393C37.5938 152.944 37.5938 152.488 37.6603 152.04C37.8371 151.102 38.5262 150.297 38.6669 149.283C38.7034 148.757 38.6828 148.228 38.6055 147.707C38.5412 147.145 38.589 146.576 38.7462 146.033C39.0565 144.925 39.7312 143.918 39.926 142.749C39.9711 142.462 39.9783 142.169 39.9477 141.88C39.9152 141.591 39.8503 141.306 39.7925 141.021C39.6197 140.45 39.6336 139.838 39.8322 139.275C39.9631 139.026 40.1089 138.785 40.2688 138.553C40.4025 138.322 40.5044 138.073 40.5718 137.814C40.6833 137.302 40.7016 136.774 40.6259 136.255C40.4997 135.234 40.2183 134.271 40.1786 133.336C40.1491 132.882 40.2042 132.425 40.3409 131.991C40.4749 131.596 40.6804 131.229 40.947 130.908C41.4413 130.291 41.9392 129.776 42.1773 129.202C42.3851 128.713 42.5153 128.194 42.5634 127.665C42.6103 127.232 42.6211 126.889 42.6355 126.658C42.6355 126.55 42.6355 126.463 42.6355 126.395C42.6355 126.326 42.6933 126.308 42.6933 126.308Z" fill="#263238"/>
<path d="M29.1434 159.245C27.8229 159.436 27.0725 157.668 27.3214 156.358C27.5704 155.049 28.3172 153.779 28.0719 152.465C27.859 151.329 26.9318 150.441 26.6287 149.319C26.0984 147.299 27.7472 145.242 27.4261 143.186C27.1771 141.577 25.7665 140.274 25.7232 138.647C25.6907 136.876 27.2457 135.433 27.307 133.686C27.3864 131.825 25.7845 130.194 25.9108 128.34C26.037 126.485 27.8446 124.789 27.1952 123.054C26.9823 122.48 26.5205 122.033 26.2463 121.485C25.6113 120.222 26.0659 118.681 26.7406 117.437C27.4152 116.192 28.31 115.027 28.6058 113.641C29.0568 111.516 27.9997 109.243 28.6058 107.147C29.1218 105.412 30.7706 103.99 30.6335 102.183C31.8818 103.586 31.355 105.79 31.9395 107.569C32.3003 108.731 33.1445 109.683 33.7434 110.748C34.3565 111.835 34.7371 113.038 34.8613 114.28C34.9855 115.522 34.8506 116.776 34.465 117.963C33.9419 119.526 32.975 121.095 33.3538 122.701C33.8192 124.638 36.0561 125.67 36.7813 127.528C37.8203 130.187 35.3742 133.246 36.3303 135.938C36.5756 136.63 37.0518 137.237 37.2395 137.947C37.9322 140.354 35.4969 142.638 35.551 145.138C35.5943 146.981 36.9941 148.619 36.9075 150.459C36.8498 151.881 35.919 153.346 36.4746 154.634C36.7163 155.2 37.1962 155.622 37.5569 156.135C37.8882 156.623 38.0777 157.194 38.1045 157.784C38.1312 158.373 37.9942 158.959 37.7085 159.475C37.4042 159.982 36.9464 160.379 36.4014 160.608C35.8565 160.837 35.2528 160.886 34.6779 160.749" fill="#175CD3"/>
<g opacity="0.5">
<path d="M37.5512 156.156C37.1904 155.644 36.7177 155.222 36.4688 154.655C35.9132 153.349 36.8296 151.902 36.9017 150.481C36.9811 148.641 35.5885 147.003 35.5452 145.159C35.4911 142.655 37.9264 140.375 37.2337 137.969C37.028 137.247 36.5698 136.652 36.3245 135.959C35.3684 133.268 37.8145 130.208 36.7755 127.549C36.0539 125.691 33.8134 124.663 33.348 122.722C32.9872 121.117 33.9397 119.547 34.4592 117.985C34.8448 116.798 34.9798 115.543 34.8555 114.301C34.7313 113.059 34.3507 111.857 33.7377 110.769C33.1351 109.705 32.2945 108.752 31.9337 107.591C31.3637 105.805 31.876 103.622 30.6277 102.204C30.7467 104.008 29.116 105.433 28.6001 107.169C27.9795 109.254 29.0366 111.527 28.6001 113.663C28.3042 115.048 27.4059 116.213 26.7348 117.458C26.0637 118.703 25.6055 120.243 26.2405 121.506C26.5147 122.055 26.9621 122.502 27.1894 123.076C27.8388 124.811 26.024 126.51 25.905 128.361C25.7859 130.212 27.3806 131.846 27.3012 133.708C27.2435 135.433 25.6885 136.876 25.7354 138.633C25.7751 140.26 27.1786 141.562 27.4347 143.171C27.7558 145.235 26.107 147.292 26.6374 149.305C26.9296 150.427 27.8568 151.314 28.0805 152.451C28.3259 153.764 27.5754 155.034 27.3301 156.344C27.0848 157.653 27.8316 159.425 29.1521 159.23L34.6829 160.76C35.2578 160.897 35.8616 160.847 36.4065 160.618C36.9514 160.389 37.4092 159.993 37.7135 159.486C37.9955 158.97 38.1295 158.386 38.1009 157.798C38.0722 157.211 37.882 156.642 37.5512 156.156Z" fill="white"/>
</g>
<path d="M35.6071 155.294C35.2463 154.897 34.7303 154.013 34.7195 153.461C34.7195 152.685 35.8416 151.776 35.9065 150.445C35.9895 148.717 34.6762 145.95 34.6618 144.229C34.6618 141.887 36.6822 139.939 36.1446 137.716C35.9859 137.063 35.7297 135.285 35.5385 134.646C34.7881 132.171 36.6714 130.039 35.8524 127.596C35.2824 125.89 33.0599 124.194 32.7027 122.401C32.4069 120.918 33.215 119.407 33.6552 117.92C34.3241 115.691 34.1455 113.293 33.1537 111.188C32.6739 110.221 32.01 109.366 31.7106 108.302C31.2596 106.656 31.7106 104.575 30.7004 103.319C30.7761 105.008 29.4376 106.407 29.0011 108.053C28.4743 110.033 29.3113 112.111 28.9217 114.121C28.6655 115.431 27.9259 116.556 27.3631 117.751C26.8003 118.945 26.4178 120.406 26.9193 121.564C27.1394 122.062 27.5074 122.462 27.677 122.989C28.1893 124.584 26.6956 126.254 26.5946 127.99C26.4936 129.725 27.76 131.19 27.677 132.929C27.5976 134.567 26.49 136.988 26.508 138.618C26.508 140.141 28.045 140.83 28.2326 142.327C28.4707 144.243 27.0276 146.906 27.4389 148.771C27.6662 149.806 28.6006 149.969 28.7629 151.022C28.9469 152.238 28.4022 154.836 28.2001 156.073C27.9981 157.311 28.2001 158.191 29.1526 159.248L35.322 160.922C37.5842 159.245 36.9853 156.809 35.6071 155.294Z" fill="#175CD3"/>
<path d="M31.0004 112.133C31.1454 112.761 31.2514 113.397 31.3179 114.038C31.4094 114.792 31.3814 115.555 31.2349 116.3C31.1288 116.764 30.9652 117.212 30.7478 117.635C30.5277 118.09 30.2608 118.544 30.0263 119.038C29.7522 119.546 29.5771 120.1 29.5103 120.673C29.4488 121.293 29.5002 121.919 29.6619 122.52C29.9721 123.783 30.6252 125.046 31.105 126.427C31.3612 127.146 31.4834 127.905 31.4658 128.668C31.4444 129.063 31.3692 129.454 31.2421 129.83C31.089 130.19 30.9553 130.559 30.8416 130.934C30.6576 131.702 30.9463 132.496 31.2638 133.243C31.4225 133.621 31.5885 134.004 31.7183 134.408C31.8446 134.818 31.9173 135.242 31.9348 135.671C31.936 136.515 31.833 137.356 31.6281 138.175C31.4349 138.961 31.2903 139.759 31.1952 140.563C31.1573 140.952 31.1573 141.343 31.1952 141.732C31.2427 142.114 31.3236 142.49 31.4369 142.858C31.6919 143.571 31.8662 144.31 31.9565 145.062C31.9674 145.787 31.8627 146.509 31.6462 147.201C31.4427 147.84 31.3214 148.502 31.2854 149.171C31.3047 149.795 31.4153 150.413 31.6137 151.004C31.7962 151.558 31.9504 152.12 32.0755 152.689C32.1714 153.214 32.1969 153.749 32.1513 154.28C32.1188 154.782 32.0611 155.251 32.0034 155.687C31.8801 156.43 31.8401 157.184 31.8843 157.935C31.9181 158.409 32.0614 158.868 32.3028 159.277C32.476 159.551 32.5951 159.677 32.5878 159.685C32.4713 159.565 32.3662 159.434 32.274 159.295C32.0189 158.886 31.8632 158.422 31.8194 157.942C31.7669 157.186 31.7984 156.426 31.9132 155.676C31.9637 155.24 32.0214 154.771 32.0503 154.276C32.0885 153.753 32.0594 153.227 31.9637 152.711C31.8357 152.146 31.6792 151.589 31.4947 151.04C31.2817 150.439 31.16 149.809 31.1339 149.171C31.1715 148.49 31.2926 147.817 31.4947 147.165C31.7052 146.488 31.8063 145.782 31.7941 145.073C31.7004 144.335 31.5274 143.609 31.2782 142.908C31.16 142.533 31.0767 142.148 31.0292 141.757C30.9895 141.358 30.9895 140.955 31.0292 140.556C31.1227 139.745 31.2673 138.942 31.4622 138.149C31.6641 137.344 31.7659 136.516 31.7652 135.685C31.7484 135.271 31.6781 134.861 31.556 134.466C31.4297 134.072 31.2638 133.694 31.105 133.311C30.9361 132.933 30.8008 132.541 30.7009 132.139C30.5982 131.735 30.5908 131.312 30.6793 130.905C30.7944 130.524 30.9305 130.149 31.087 129.783C31.2102 129.422 31.283 129.045 31.3034 128.664C31.3174 127.921 31.1952 127.181 30.9427 126.482C30.4845 125.096 29.835 123.844 29.5248 122.56C29.3596 121.943 29.3106 121.301 29.3804 120.666C29.4511 120.08 29.6323 119.513 29.9144 118.995C30.167 118.497 30.4376 118.043 30.6612 117.599C30.8771 117.184 31.0407 116.744 31.1483 116.289C31.3016 115.553 31.3381 114.797 31.2565 114.049C31.2024 113.432 31.123 112.966 31.0725 112.635C31.0509 112.478 31.0328 112.358 31.0184 112.274C31.0055 112.228 30.9994 112.181 31.0004 112.133Z" fill="#263238"/>
<path d="M28.3264 160.111C27.5724 160.471 26.7822 159.566 26.6776 158.732C26.573 157.899 26.775 156.997 26.3745 156.257C26.0138 155.619 25.2922 155.265 24.9098 154.652C24.1882 153.544 24.7907 151.996 24.1882 150.82C23.7264 149.908 22.6332 149.399 22.2941 148.436C21.9333 147.4 22.5682 146.228 22.2941 145.17C21.9838 144.041 20.7102 143.366 20.4252 142.241C20.1402 141.115 20.8978 139.741 20.1726 138.828C19.8962 138.561 19.606 138.31 19.3031 138.074C18.679 137.439 18.6501 136.429 18.8161 135.548C18.982 134.668 19.2887 133.802 19.1985 132.915C19.0578 131.554 17.9863 130.389 17.9538 129.032C17.9285 127.892 18.6285 126.727 18.21 125.67C19.2238 126.265 19.3428 127.683 20.0139 128.639C20.4613 129.263 21.1431 129.671 21.7096 130.191C22.2835 130.727 22.7402 131.376 23.0506 132.098C23.3611 132.819 23.5187 133.597 23.5135 134.383C23.5135 135.418 23.2285 136.548 23.7661 137.432C24.4155 138.514 25.956 138.687 26.7498 139.658C27.8862 141.05 27.0131 143.352 28.1027 144.777C28.3841 145.138 28.7774 145.419 29.0371 145.805C29.9175 147.111 28.9 148.948 29.3979 150.434C29.7804 151.517 30.9313 152.238 31.2416 153.36C31.4797 154.219 31.2019 155.265 31.7863 155.94C32.0753 156.199 32.3882 156.429 32.7208 156.629C33.0102 156.86 33.2305 157.167 33.3577 157.515C33.485 157.863 33.5142 158.239 33.4423 158.602C33.3638 158.958 33.1764 159.281 32.9062 159.525C32.6359 159.77 32.2962 159.924 31.9343 159.966" fill="#175CD3"/>
<g opacity="0.5">
<path d="M32.754 156.636C32.4214 156.436 32.1085 156.205 31.8195 155.946C31.2351 155.272 31.5129 154.226 31.2748 153.367C30.9645 152.248 29.8316 151.538 29.4311 150.441C28.9152 148.954 29.9326 147.118 29.0704 145.812C28.8106 145.426 28.4173 145.152 28.1359 144.784C27.0536 143.359 27.9194 141.057 26.783 139.664C25.9892 138.694 24.4487 138.51 23.7993 137.438C23.2617 136.551 23.5359 135.425 23.5467 134.389C23.5519 133.604 23.3943 132.826 23.0838 132.104C22.7734 131.383 22.3167 130.733 21.7428 130.197C21.1763 129.678 20.4945 129.27 20.0471 128.646C19.358 127.69 19.2389 126.272 18.2432 125.677C18.6617 126.734 17.9617 127.899 17.987 129.039C18.0195 130.406 19.091 131.565 19.2317 132.921C19.3219 133.809 19.0116 134.678 18.8493 135.555C18.6869 136.432 18.7122 137.438 19.3363 138.08C19.6392 138.316 19.9294 138.568 20.2058 138.834C20.9274 139.747 20.1734 141.115 20.4584 142.247C20.7434 143.38 22.017 144.051 22.3273 145.177C22.6195 146.234 21.9665 147.407 22.3273 148.442C22.6664 149.405 23.7704 149.914 24.2214 150.827C24.8131 152.003 24.2214 153.551 24.943 154.658C25.3326 155.272 26.0578 155.625 26.4077 156.264C26.8082 156.986 26.6026 157.909 26.7108 158.739C26.819 159.569 27.6056 160.485 28.3596 160.117L31.9675 159.962C32.3379 159.933 32.6895 159.787 32.9716 159.545C33.2537 159.303 33.4516 158.978 33.5369 158.616C33.6034 158.246 33.5653 157.865 33.427 157.515C33.2887 157.165 33.0557 156.86 32.754 156.636Z" fill="white"/>
</g>
<path d="M31.4234 156.499C31.0477 156.279 30.7415 155.957 30.5395 155.572C30.3808 155.11 30.9003 154.348 30.6658 153.537C30.3808 152.487 29.0603 151.087 28.7175 150.059C28.2557 148.659 29.1 147.1 28.3568 145.874C28.1331 145.513 27.6352 144.499 27.3971 144.153C26.4735 142.818 27.1878 141.176 26.2245 139.874C25.5535 138.961 23.8938 138.376 23.3382 137.373C22.8764 136.54 23.064 135.483 23.0424 134.505C23.0113 133.042 22.4409 131.641 21.4405 130.573C20.9679 130.089 20.405 129.703 20.0226 129.13C19.4345 128.231 19.301 126.903 18.4568 126.344C18.8176 127.34 18.2944 128.437 18.3522 129.505C18.4207 130.793 19.3227 131.875 19.4778 133.152C19.5788 133.986 19.3515 134.805 19.2469 135.627C19.1423 136.45 19.1928 137.399 19.7195 137.994C19.9468 138.25 20.2427 138.42 20.4411 138.716C21.0544 139.571 20.4808 140.859 20.7478 141.919C21.0148 142.98 22.0646 143.611 22.3497 144.669C22.6203 145.664 22.4254 147.328 22.7501 148.298C23.0568 149.207 24.0995 149.326 24.5 150.185C25.0123 151.285 24.6623 153.158 25.2684 154.197C25.6076 154.771 26.1957 154.688 26.4987 155.279C26.8595 155.972 27.0255 157.628 27.1373 158.411C27.1698 158.774 27.2969 159.121 27.5058 159.419C27.7147 159.718 27.9982 159.956 28.3279 160.11L32.3434 159.919C33.3789 158.469 32.5455 157.137 31.4234 156.499Z" fill="#175CD3"/>
<path d="M20.3203 131.558C20.3203 131.558 20.3203 131.576 20.3672 131.623L20.4827 131.825C20.5837 132.005 20.7316 132.272 20.8904 132.629C21.092 133.059 21.2247 133.518 21.2836 133.989C21.3007 134.622 21.2352 135.254 21.0888 135.869C21.0205 136.227 21.0205 136.594 21.0888 136.951C21.1711 137.336 21.3227 137.703 21.5362 138.034C21.9655 138.726 22.5969 139.343 23.1489 140.094C23.4443 140.476 23.6669 140.909 23.8055 141.371C23.8713 141.614 23.9029 141.866 23.8993 142.118C23.8755 142.358 23.8671 142.599 23.8741 142.839C23.9627 143.329 24.2039 143.779 24.5632 144.124C24.7327 144.319 24.9239 144.517 25.0647 144.737C25.2159 144.961 25.3372 145.203 25.4254 145.459C25.5921 145.966 25.694 146.492 25.7285 147.025C25.763 147.531 25.8305 148.035 25.9305 148.533C26.0411 149.013 26.2486 149.466 26.5403 149.864C26.8253 150.245 27.0673 150.656 27.2618 151.091C27.4096 151.524 27.4864 151.978 27.4891 152.436C27.4951 152.856 27.5533 153.273 27.6623 153.677C27.9149 154.442 28.4813 155.002 28.8096 155.629C29.0803 156.199 29.2604 156.808 29.3436 157.433C29.4131 157.901 29.5341 158.359 29.7044 158.801C29.8157 159.075 29.9871 159.322 30.2059 159.522C30.2916 159.582 30.3736 159.647 30.4512 159.717C30.3582 159.669 30.27 159.612 30.1878 159.547C29.9532 159.353 29.7678 159.106 29.6466 158.826C29.4706 158.379 29.3447 157.915 29.2714 157.44C29.1832 156.823 28.9994 156.223 28.7266 155.662C28.4055 155.056 27.8247 154.504 27.5505 153.695C27.2763 152.887 27.4675 151.967 27.1392 151.123C26.9429 150.7 26.7009 150.299 26.4176 149.929C26.1235 149.52 25.9138 149.056 25.8007 148.565C25.5661 147.573 25.6527 146.501 25.2992 145.513C25.2096 145.271 25.0882 145.041 24.9384 144.831C24.7905 144.622 24.6173 144.427 24.4477 144.228C24.0664 143.859 23.8135 143.377 23.7261 142.854C23.7197 142.602 23.7281 142.35 23.7514 142.1C23.7582 141.857 23.7303 141.614 23.6684 141.378C23.5336 140.933 23.3198 140.517 23.037 140.148C22.4995 139.426 21.8681 138.784 21.4315 138.073C21.2137 137.732 21.0596 137.355 20.9769 136.959C20.9084 136.591 20.9084 136.215 20.9769 135.847C21.1308 135.241 21.2048 134.618 21.197 133.993C21.1468 133.525 21.0251 133.067 20.8362 132.636C20.6847 132.276 20.5476 132.009 20.4755 131.821C20.4358 131.738 20.3997 131.669 20.3744 131.612C20.3547 131.595 20.3366 131.577 20.3203 131.558Z" fill="#263238"/>
<path d="M44.7299 152.689H20.6582V156.957H44.7299V152.689Z" fill="#455A64"/>
<path d="M22.4512 156.109L25.3771 168.859H39.7256L42.9294 156.109H22.4512Z" fill="#455A64"/>
<path d="M44.713 156.961C44.713 157.008 39.3012 157.047 32.587 157.047C25.8727 157.047 20.4609 157.008 20.4609 156.961C20.4609 156.914 25.8727 156.878 32.587 156.878C39.3012 156.878 44.713 156.914 44.713 156.961Z" fill="#263238"/>
<path d="M153.833 131.634C153.833 131.634 145.686 135.35 137.763 135.35C130.429 135.35 122.221 131.655 122.221 131.655L153.833 131.634Z" fill="#E0E0E0"/>
<path d="M136.932 164.898H140.074V131.987H136.932V164.898Z" fill="#E0E0E0"/>
<path d="M124.416 165.464H152.305V163.534H124.416V165.464Z" fill="#E0E0E0"/>
<path d="M149.037 166.294C149.036 166.716 149.161 167.128 149.394 167.478C149.628 167.829 149.96 168.102 150.349 168.264C150.738 168.425 151.166 168.468 151.579 168.386C151.992 168.305 152.372 168.102 152.67 167.805C152.968 167.507 153.171 167.128 153.253 166.715C153.336 166.302 153.294 165.873 153.133 165.484C152.972 165.095 152.699 164.762 152.349 164.528C151.999 164.294 151.587 164.169 151.166 164.169C150.602 164.169 150.061 164.393 149.662 164.792C149.263 165.19 149.038 165.731 149.037 166.294Z" fill="#263238"/>
<path d="M136.645 166.294C136.644 166.716 136.768 167.128 137.002 167.478C137.235 167.829 137.567 168.102 137.956 168.264C138.345 168.425 138.773 168.468 139.186 168.386C139.599 168.305 139.979 168.102 140.277 167.805C140.575 167.507 140.778 167.128 140.861 166.715C140.943 166.302 140.901 165.873 140.74 165.484C140.579 165.095 140.306 164.762 139.956 164.528C139.606 164.294 139.194 164.169 138.773 164.169C138.209 164.169 137.668 164.393 137.269 164.792C136.87 165.19 136.645 165.731 136.645 166.294Z" fill="#263238"/>
<path d="M122.293 166.294C122.292 166.716 122.416 167.128 122.65 167.478C122.883 167.829 123.216 168.102 123.605 168.264C123.993 168.425 124.422 168.468 124.835 168.386C125.248 168.305 125.627 168.102 125.925 167.805C126.224 167.507 126.427 167.128 126.509 166.715C126.592 166.302 126.55 165.873 126.389 165.484C126.228 165.095 125.955 164.762 125.605 164.528C125.254 164.294 124.843 164.169 124.422 164.169C123.858 164.169 123.317 164.393 122.918 164.792C122.519 165.19 122.294 165.731 122.293 166.294Z" fill="#263238"/>
<path d="M137.766 145.599H142.041V143.832H137.766V145.599Z" fill="#E0E0E0"/>
<path d="M141.261 146.837H142.816V142.59H141.261V146.837Z" fill="#E0E0E0"/>
<path d="M120.818 131.634H156.403C157.029 131.634 157.63 131.385 158.074 130.941C158.517 130.498 158.766 129.897 158.766 129.27C158.766 128.644 158.517 128.043 158.074 127.599C157.63 127.156 157.029 126.907 156.403 126.907H120.818C120.191 126.907 119.59 127.156 119.147 127.599C118.704 128.043 118.455 128.644 118.455 129.27C118.455 129.897 118.704 130.498 119.147 130.941C119.59 131.385 120.191 131.634 120.818 131.634Z" fill="#455A64"/>
<path d="M153.605 69.4342C153.605 69.4342 156.47 68.3157 156.351 65.8732C156.231 63.4307 152.941 61.0134 153.136 57.3478C153.32 53.9059 148.392 43.6849 141.353 47.2458C140.172 47.0928 138.973 47.1588 137.817 47.4406C135.548 48.0901 134.84 50.262 133.487 52.4123C131.42 55.7315 130.01 58.3472 131.009 60.6598C132.008 62.9725 132.427 63.6508 131.651 65.6243C130.641 68.2003 129.605 67.4535 129.945 69.7048L136.078 69.8022L136.659 68.3013L136.724 69.9248L140.332 69.8779L153.605 69.4342Z" fill="#263238"/>
<path d="M136.095 50.8574C136.171 51.8063 135.55 52.6614 134.923 53.3829C134.295 54.1045 133.598 54.8261 133.479 55.7822C133.249 57.449 134.886 58.9895 134.562 60.6419C134.389 61.5259 133.667 62.2402 133.541 63.135C133.414 64.0297 133.902 64.8415 134.468 65.4981C135.034 66.1548 135.745 66.6959 136.272 67.4067C136.272 67.4067 137.336 69.1348 140.601 68.0092" fill="#263238"/>
<path d="M138.889 49.6522L146.981 51.3695C147.359 51.3939 147.714 51.5596 147.975 51.8337C148.237 52.1078 148.385 52.4701 148.392 52.8488L148.294 70.3649C148.288 71.5619 147.887 72.7233 147.154 73.6697L146.382 74.6655C144.622 76.9348 141.057 76.7039 139.711 74.1676C139.629 74.024 139.567 73.8699 139.527 73.7094C139.494 73.5788 139.469 73.4463 139.452 73.3126L139.296 71.606C139.217 70.0474 139.206 68.46 139.206 68.4744C139.206 68.4888 135.894 68.0559 135.043 63.7842C134.621 61.6628 134.595 58.1559 134.664 55.2877C134.725 52.7044 136.309 49.479 138.889 49.6522Z" fill="#FFBE9D"/>
<path d="M135.895 58.585C135.899 58.7286 135.959 58.8648 136.062 58.965C136.165 59.0652 136.303 59.1217 136.447 59.1226C136.518 59.125 136.59 59.1129 136.657 59.0869C136.724 59.0609 136.785 59.0215 136.836 58.9713C136.887 58.921 136.928 58.8608 136.955 58.7945C136.982 58.7281 136.996 58.6568 136.995 58.585C136.99 58.4414 136.93 58.3052 136.827 58.205C136.724 58.1048 136.587 58.0483 136.443 58.0474C136.371 58.045 136.3 58.0571 136.233 58.0831C136.166 58.1091 136.105 58.1485 136.054 58.1987C136.002 58.249 135.962 58.3092 135.934 58.3756C135.907 58.4419 135.894 58.5132 135.895 58.585Z" fill="#263238"/>
<path d="M135.479 57.0806C135.551 57.1491 135.955 56.8244 136.561 56.8028C137.167 56.7811 137.6 57.0626 137.662 56.9868C137.723 56.911 137.618 56.8244 137.424 56.6945C137.16 56.5279 136.851 56.446 136.54 56.46C136.231 56.4686 135.933 56.5775 135.692 56.7703C135.515 56.9182 135.457 57.0481 135.479 57.0806Z" fill="#263238"/>
<path d="M141.203 58.4407C141.208 58.5843 141.268 58.7205 141.371 58.8207C141.474 58.9209 141.611 58.9774 141.755 58.9783C141.826 58.9812 141.896 58.9699 141.962 58.9453C142.028 58.9206 142.089 58.8829 142.14 58.8346C142.192 58.7862 142.233 58.728 142.262 58.6635C142.29 58.5989 142.306 58.5293 142.307 58.4587C142.302 58.3149 142.242 58.1785 142.138 58.0788C142.034 57.979 141.895 57.9237 141.752 57.9248C141.681 57.9219 141.612 57.933 141.546 57.9575C141.48 57.982 141.42 58.0194 141.369 58.0674C141.318 58.1155 141.277 58.1732 141.248 58.2373C141.22 58.3014 141.205 58.3706 141.203 58.4407Z" fill="#263238"/>
<path d="M141.122 56.9365C141.19 57.0051 141.598 56.6804 142.204 56.6587C142.81 56.6371 143.243 56.9185 143.286 56.8427C143.33 56.767 143.243 56.6804 143.048 56.5505C142.785 56.3827 142.476 56.3008 142.164 56.316C141.855 56.3245 141.558 56.4335 141.316 56.6263C141.143 56.7814 141.086 56.9041 141.122 56.9365Z" fill="#263238"/>
<path d="M139.343 61.4425C139.026 61.358 138.7 61.312 138.372 61.3054C138.221 61.3054 138.076 61.2729 138.048 61.1719C138.03 61.0155 138.058 60.8573 138.131 60.7173C138.26 60.3565 138.394 59.956 138.535 59.5484C139.09 57.8815 139.487 56.5178 139.422 56.4961C139.357 56.4745 138.849 57.8058 138.289 59.469L137.907 60.6452C137.819 60.8322 137.799 61.0437 137.849 61.2441C137.874 61.2958 137.911 61.3414 137.956 61.3776C138.001 61.4138 138.053 61.4396 138.109 61.4533C138.193 61.473 138.279 61.4815 138.365 61.4786C138.691 61.5103 139.02 61.4982 139.343 61.4425Z" fill="#263238"/>
<path d="M139.205 68.4707C141.228 68.4241 143.198 67.8157 144.895 66.7136C144.895 66.7136 143.567 69.7442 139.252 69.5097L139.205 68.4707Z" fill="#EB996E"/>
<path d="M139.65 62.8605C139.758 62.7154 139.901 62.5997 140.065 62.524C140.23 62.4484 140.411 62.4152 140.591 62.4276C140.722 62.4347 140.85 62.468 140.968 62.5257C141.086 62.5833 141.191 62.6641 141.277 62.7631C141.36 62.8584 141.412 62.9771 141.426 63.1029C141.439 63.2288 141.414 63.3558 141.353 63.4666C141.261 63.5762 141.14 63.6563 141.003 63.6968C140.866 63.7372 140.72 63.7362 140.584 63.6939C140.3 63.6081 140.036 63.4657 139.808 63.2754C139.74 63.2294 139.681 63.172 139.632 63.1059C139.61 63.0734 139.598 63.0351 139.598 62.9958C139.598 62.9565 139.61 62.9182 139.632 62.8858" fill="#EB996E"/>
<path d="M141.103 61.7855C141.005 61.7855 141.027 62.4277 140.497 62.9039C139.966 63.3801 139.277 63.3405 139.273 63.427C139.27 63.5136 139.432 63.5497 139.721 63.5461C140.098 63.5347 140.459 63.3917 140.742 63.142C141.012 62.9021 141.18 62.5676 141.211 62.2076C141.222 61.937 141.146 61.7819 141.103 61.7855Z" fill="#263238"/>
<path d="M141.154 55.1756C141.219 55.3344 141.807 55.2369 142.507 55.2911C143.207 55.3452 143.774 55.5183 143.86 55.3704C143.9 55.2983 143.795 55.1503 143.564 55.0096C143.255 54.8273 142.906 54.721 142.547 54.6994C142.19 54.6695 141.831 54.7265 141.501 54.8653C141.252 54.9772 141.126 55.0998 141.154 55.1756Z" fill="#263238"/>
<path d="M135.566 54.4831C135.674 54.613 136.078 54.4579 136.569 54.4326C137.059 54.4074 137.478 54.4867 137.568 54.3424C137.608 54.2739 137.535 54.1404 137.351 54.0177C137.101 53.8729 136.814 53.8066 136.526 53.8272C136.237 53.8477 135.962 53.9543 135.735 54.1332C135.566 54.2775 135.515 54.4182 135.566 54.4831Z" fill="#263238"/>
<path d="M150.56 51.3694C149.961 49.6051 147.544 47.6713 145.268 46.8018C144.625 46.563 143.936 46.48 143.255 46.5596C142.575 46.6393 141.923 46.8793 141.353 47.26L138.467 49.1722C138.617 49.8766 138.954 50.5276 139.443 51.0565C139.932 51.5854 140.554 51.9727 141.245 52.1775C141.966 52.3868 142.865 52.4301 143.312 53.0542C143.76 53.6784 143.529 54.6309 143.958 55.2875C144.55 56.1967 146.123 56.1209 146.57 57.0914C146.768 57.5244 146.678 58.0439 146.884 58.4732C147.155 59.0433 148.627 59.7432 149.225 59.5556C149.824 59.368 149.803 58.3253 149.99 57.7841C150.225 57.1737 150.243 56.5012 150.041 55.8792C149.749 54.6597 150.961 52.5347 150.56 51.3694Z" fill="#263238"/>
<path d="M147.453 60.0859C147.453 59.7648 147.781 59.0035 148.095 58.935C148.936 58.7726 150.458 58.7798 150.556 60.9229C150.689 63.8489 147.72 63.3798 147.713 63.2969C147.706 63.2139 147.493 61.1899 147.453 60.0859Z" fill="#FFBE9D"/>
<path d="M148.557 62.1459C148.557 62.1459 148.608 62.1784 148.698 62.2145C148.821 62.265 148.958 62.265 149.081 62.2145C149.384 62.0882 149.622 61.5867 149.611 61.0564C149.608 60.8055 149.547 60.5588 149.434 60.3348C149.401 60.2471 149.347 60.1686 149.278 60.1058C149.208 60.043 149.124 59.9979 149.034 59.974C148.974 59.9609 148.912 59.9693 148.858 59.9977C148.803 60.0261 148.761 60.0726 148.738 60.1291C148.705 60.2121 148.738 60.2698 148.709 60.2734C148.68 60.2771 148.644 60.2302 148.662 60.1075C148.676 60.0335 148.714 59.9662 148.77 59.9163C148.849 59.8533 148.948 59.8223 149.048 59.8297C149.169 59.8486 149.283 59.8979 149.38 59.973C149.476 60.0481 149.552 60.1465 149.6 60.259C149.738 60.5065 149.812 60.7841 149.817 61.0672C149.817 61.6589 149.546 62.2253 149.128 62.366C149.05 62.3917 148.968 62.3999 148.887 62.3899C148.805 62.3799 148.728 62.352 148.658 62.3083C148.565 62.2181 148.547 62.1531 148.557 62.1459Z" fill="#EB996E"/>
<path d="M128.503 82.177L123.326 95.6812L113.585 96.3018L112.08 100.534L124.939 103.027C124.939 103.027 128.806 104.152 131.011 99.2422L134.781 85.8101L128.503 82.177Z" fill="#FFBE9D"/>
<path d="M104.34 98.4121C104.396 98.5268 104.485 98.6224 104.595 98.6866C104.706 98.7508 104.833 98.7809 104.96 98.7729C105.014 98.7687 105.068 98.7577 105.119 98.7404C105.48 98.6213 105.455 97.8709 105.455 97.8709L107.219 97.5823C107.219 97.5823 109.513 99.0615 110.332 100.043C111.151 101.024 113.219 100.23 113.219 100.23L113.94 96.4674L110.693 93.5306C110.693 93.5306 110.895 93.7038 110.668 93.1698C110.441 92.6359 109.423 92.8271 109.423 92.8271C109.264 92.5565 108.597 92.4663 108.597 92.4663L105.75 92.7946C105.458 92.8256 105.176 92.9225 104.926 93.0781C104.676 93.2337 104.464 93.4439 104.307 93.693L103.102 95.5979C103.102 95.5979 102.464 96.9725 102.568 97.2936C102.616 97.424 102.71 97.5324 102.832 97.5987C102.954 97.6651 103.096 97.6849 103.232 97.6544C103.232 97.6544 103.373 98.5564 103.593 98.5889C103.842 98.5775 104.086 98.52 104.314 98.4193L104.34 98.4121Z" fill="#FFBE9D"/>
<path d="M109.708 99.4369C109.647 99.3993 109.591 99.3558 109.539 99.307L109.062 98.9246C108.463 98.4591 107.838 98.0279 107.19 97.633H107.229L105.465 97.9324L105.527 97.8567C105.532 98.0017 105.521 98.1469 105.494 98.2896C105.471 98.4475 105.4 98.5947 105.292 98.7117C105.227 98.7706 105.145 98.8084 105.058 98.82C104.977 98.8381 104.893 98.8381 104.812 98.82C104.641 98.7947 104.485 98.7089 104.372 98.5782C104.344 98.5458 104.318 98.5108 104.296 98.4736L104.278 98.4448C104.257 98.4448 104.473 98.5169 104.383 98.4808L104.325 98.5025C104.253 98.5313 104.177 98.5602 104.098 98.5855C104.018 98.6093 103.938 98.6286 103.856 98.6432C103.813 98.6471 103.769 98.6471 103.726 98.6432C103.67 98.6493 103.614 98.6393 103.564 98.6143C103.485 98.5547 103.424 98.4732 103.391 98.3798C103.356 98.3011 103.326 98.2204 103.301 98.1381C103.254 97.9731 103.217 97.8057 103.189 97.6366L103.293 97.7088C103.173 97.7351 103.048 97.7282 102.932 97.6888C102.816 97.6494 102.712 97.5789 102.633 97.4851C102.552 97.3828 102.509 97.2549 102.514 97.1243C102.521 97.0092 102.541 96.8953 102.575 96.7851C102.707 96.3508 102.87 95.9264 103.062 95.5152C103.264 95.1905 103.485 94.8477 103.705 94.4978C103.842 94.2813 103.975 94.0648 104.112 93.8519C104.238 93.6287 104.386 93.4195 104.556 93.2278C104.74 93.0448 104.958 92.9001 105.198 92.8021C105.43 92.7162 105.673 92.6652 105.92 92.6505L108.608 92.3511H108.629C108.789 92.377 108.946 92.4181 109.098 92.4737C109.263 92.5233 109.407 92.6245 109.51 92.7624L109.409 92.7299C109.554 92.6636 109.713 92.6336 109.873 92.6424C110.033 92.6512 110.188 92.6985 110.325 92.7804C110.563 92.9544 110.725 93.2124 110.78 93.502L110.758 93.4659L112.995 95.4791L113.597 96.0347C113.671 96.0959 113.738 96.1635 113.799 96.2367C113.718 96.1872 113.642 96.1291 113.572 96.0636L112.944 95.5368L110.661 93.5814V93.5597C110.611 93.3074 110.468 93.0831 110.26 92.9319C110.144 92.8643 110.013 92.826 109.878 92.8203C109.744 92.8147 109.61 92.8418 109.488 92.8995L109.427 92.9247L109.391 92.867C109.304 92.7637 109.188 92.6884 109.059 92.6505C108.916 92.5997 108.768 92.5623 108.619 92.5387H108.64L105.956 92.8562C105.723 92.8692 105.493 92.9166 105.274 92.9969C105.058 93.086 104.862 93.2173 104.697 93.3829C104.536 93.5664 104.395 93.7659 104.275 93.9782L103.867 94.624L103.225 95.6414C103.038 96.0438 102.879 96.4585 102.749 96.8825C102.718 96.9798 102.698 97.0803 102.691 97.182C102.688 97.27 102.718 97.356 102.774 97.4237C102.832 97.4919 102.908 97.5429 102.993 97.5715C103.078 97.6001 103.169 97.6051 103.257 97.5861H103.344V97.6727C103.37 97.8335 103.406 97.9925 103.452 98.1489C103.478 98.2906 103.542 98.4226 103.636 98.5313C103.66 98.5375 103.685 98.5375 103.708 98.5313H103.816C103.891 98.5184 103.965 98.5003 104.037 98.4772L104.253 98.4015L104.307 98.3834L104.412 98.4231V98.4484C104.429 98.4783 104.449 98.5061 104.473 98.5313C104.56 98.6336 104.68 98.7015 104.812 98.7226C104.877 98.7351 104.943 98.7351 105.007 98.7226C105.066 98.7172 105.122 98.6932 105.166 98.654C105.314 98.4442 105.383 98.1885 105.361 97.9324V97.8675H105.422L107.19 97.5933H107.211H107.229C107.876 97.9986 108.494 98.447 109.08 98.9354C109.286 99.1086 109.441 99.2457 109.539 99.3431C109.598 99.3691 109.655 99.4005 109.708 99.4369Z" fill="#EB996E"/>
<path d="M108.949 93.8195C108.658 93.9502 108.351 94.0412 108.036 94.0901C107.263 94.2483 106.472 94.3053 105.684 94.2596L105.778 94.1983C105.731 94.339 105.68 94.4869 105.619 94.6312C105.285 95.4643 104.795 96.226 104.176 96.8753C103.989 97.0691 103.789 97.2499 103.577 97.4165C103.422 97.532 103.335 97.5897 103.324 97.5788C103.314 97.568 103.635 97.2902 104.079 96.7851C104.656 96.1256 105.119 95.3745 105.45 94.5627C105.507 94.4184 105.558 94.274 105.605 94.1406L105.63 94.072H105.698C106.473 94.1187 107.251 94.0824 108.018 93.9638C108.596 93.8808 108.942 93.7906 108.949 93.8195Z" fill="#EB996E"/>
<path d="M106.256 95.4788C106.149 96.0625 105.902 96.6112 105.534 97.0771C105.225 97.5808 104.793 97.9979 104.279 98.2894C104.243 98.2461 104.842 97.7482 105.383 96.9689C105.924 96.1896 106.195 95.4608 106.256 95.4788Z" fill="#EB996E"/>
<path d="M113.793 99.0871C113.793 99.0871 113.764 99.1087 113.702 99.1376C113.612 99.1814 113.518 99.2177 113.421 99.2458C113.058 99.359 112.678 99.4031 112.299 99.3757C111.716 99.337 111.156 99.1344 110.683 98.7912C110.081 98.3482 109.65 97.711 109.463 96.9873L109.568 97.0558C108.889 97.1838 108.196 97.2165 107.508 97.1533C107.252 97.1282 106.998 97.0897 106.746 97.0378C106.495 96.9978 106.251 96.9174 106.025 96.7997C105.899 96.7322 105.802 96.6221 105.751 96.4894C105.73 96.4206 105.724 96.3485 105.732 96.2772C105.74 96.2059 105.762 96.137 105.798 96.0745C105.868 95.953 105.983 95.8637 106.119 95.8256L106.447 95.7462C107.313 95.5369 108.103 95.3854 108.767 95.2808C109.431 95.1761 109.972 95.1148 110.347 95.0823C110.541 95.0566 110.736 95.047 110.932 95.0535C110.744 95.1038 110.552 95.1376 110.358 95.1545C109.997 95.2086 109.449 95.2916 108.788 95.4107C108.128 95.5297 107.345 95.6957 106.49 95.9121L106.166 95.9987C106.121 96.0098 106.079 96.0303 106.043 96.0589C106.007 96.0876 105.977 96.1236 105.956 96.1647C105.933 96.2045 105.917 96.2488 105.912 96.2948C105.906 96.3407 105.91 96.3874 105.924 96.4317C105.961 96.5238 106.032 96.5985 106.122 96.6409C106.332 96.7471 106.557 96.819 106.79 96.8538C107.035 96.9042 107.283 96.9415 107.533 96.9656C108.204 97.0276 108.88 96.9972 109.543 96.8755H109.626L109.647 96.9584C109.801 97.571 110.14 98.1212 110.618 98.5344C111.095 98.9475 111.689 99.2035 112.317 99.2675C112.679 99.3015 113.045 99.2759 113.399 99.1917C113.528 99.1495 113.66 99.1146 113.793 99.0871Z" fill="#EB996E"/>
<path d="M110.446 147.382C110.422 147.276 110.422 147.166 110.446 147.061C110.495 146.767 110.606 146.486 110.771 146.238C110.826 146.152 110.892 146.074 110.966 146.004C111.013 145.959 111.071 145.927 111.135 145.912C111.198 145.898 111.265 145.901 111.327 145.921C111.364 145.934 111.398 145.955 111.426 145.984C111.454 146.012 111.476 146.046 111.489 146.083C111.512 146.155 111.512 146.232 111.489 146.303C111.44 146.416 111.383 146.526 111.32 146.631C111.193 146.844 111.089 147.057 110.926 147.295C110.878 147.363 110.812 147.417 110.736 147.452C110.66 147.486 110.576 147.499 110.493 147.49C110.341 147.464 110.197 147.401 110.075 147.306C109.848 147.142 109.641 146.952 109.458 146.74C109.371 146.635 109.292 146.53 109.216 146.422C109.132 146.316 109.071 146.193 109.036 146.061C109.019 145.984 109.028 145.904 109.061 145.832C109.094 145.76 109.15 145.701 109.22 145.665C109.287 145.646 109.358 145.644 109.426 145.66C109.494 145.675 109.557 145.708 109.609 145.755C109.765 145.892 109.904 146.049 110.021 146.22C110.192 146.459 110.326 146.722 110.421 146.999C110.466 147.098 110.491 147.205 110.493 147.313C110.332 146.957 110.136 146.618 109.909 146.3C109.794 146.147 109.662 146.007 109.516 145.885C109.485 145.857 109.448 145.837 109.408 145.826C109.367 145.816 109.325 145.815 109.285 145.823C109.251 145.843 109.224 145.874 109.211 145.911C109.197 145.948 109.196 145.988 109.209 146.025C109.242 146.132 109.296 146.232 109.368 146.318C109.441 146.42 109.519 146.519 109.602 146.613C109.776 146.813 109.972 146.992 110.187 147.147C110.281 147.226 110.394 147.278 110.515 147.299C110.566 147.306 110.617 147.298 110.664 147.277C110.71 147.256 110.75 147.222 110.778 147.18C110.912 146.985 111.042 146.743 111.164 146.541C111.227 146.449 111.281 146.351 111.327 146.249C111.359 146.155 111.327 146.098 111.276 146.069C111.132 146.011 110.988 146.177 110.887 146.318C110.676 146.642 110.527 147.003 110.446 147.382Z" fill="#263238"/>
<path d="M118.811 147.671L122.963 156.669L129.663 153.573L125.366 142.436L118.811 147.671Z" fill="#FFBE9D"/>
<path d="M122.176 156.066L124.601 160.688C124.601 160.688 118.392 167.11 118.976 168.546L133.574 161.546L129.562 152.271L122.176 156.066Z" fill="#455A64"/>
<path d="M128.815 157.895C128.973 157.875 129.133 157.912 129.266 158.001C129.399 158.09 129.495 158.224 129.536 158.378C129.563 158.536 129.529 158.698 129.441 158.832C129.354 158.966 129.219 159.061 129.064 159.1C128.893 159.126 128.718 159.088 128.574 158.992C128.43 158.897 128.327 158.751 128.284 158.584C128.268 158.412 128.319 158.241 128.427 158.106C128.534 157.972 128.69 157.884 128.862 157.863" fill="#E0E0E0"/>
<g opacity="0.6">
<path d="M133.576 161.55L132.956 160.385L119.199 167.543C119.199 167.543 118.687 168.138 118.979 168.56L133.576 161.55Z" fill="white"/>
</g>
<path d="M124.33 160.731C124.367 160.803 124.738 160.662 125.2 160.731C125.662 160.8 125.99 161.002 126.044 160.944C126.098 160.886 125.792 160.522 125.232 160.457C124.673 160.392 124.294 160.688 124.33 160.731Z" fill="#263238"/>
<path d="M123.103 162.098C123.103 162.174 123.486 162.149 123.872 162.333C124.258 162.517 124.481 162.806 124.55 162.769C124.619 162.733 124.474 162.308 123.987 162.084C123.5 161.86 123.071 162.03 123.103 162.098Z" fill="#263238"/>
<path d="M123.111 164.349C123.183 164.349 123.111 163.927 122.75 163.628C122.389 163.328 121.971 163.332 121.971 163.404C121.971 163.476 122.274 163.588 122.573 163.841C122.873 164.093 123.039 164.375 123.111 164.349Z" fill="#263238"/>
<path d="M123.633 158.948C123.694 158.999 123.976 158.746 124.39 158.588C124.805 158.429 125.181 158.396 125.188 158.317C125.195 158.238 124.773 158.129 124.286 158.317C123.799 158.505 123.572 158.909 123.633 158.948Z" fill="#263238"/>
<path d="M120.81 154.865L109.863 127.495C109.863 127.495 110.109 122.805 110.967 121.344C111.826 119.883 137.904 111.26 137.904 111.26C137.904 111.26 144.546 109.662 148.973 111.26C153.399 112.858 158.035 114.467 157.541 117.563C156.812 122.083 152.894 126.774 152.894 126.774L133.722 127.344L123.259 131.154L130.295 151.322L120.81 154.865Z" fill="#263238"/>
<path d="M111.075 136.151L110.83 146.058L118.208 146.238L119.269 134.347L111.075 136.151Z" fill="#FFBE9D"/>
<path d="M110.391 145.174L110.524 150.398C110.524 150.398 102.118 153.418 102.01 154.962L118.195 155.124L118.693 145.022L110.391 145.174Z" fill="#455A64"/>
<path d="M115.533 149.741C115.689 149.79 115.821 149.895 115.904 150.036C115.987 150.176 116.016 150.342 115.984 150.502C115.94 150.657 115.838 150.79 115.699 150.872C115.56 150.954 115.395 150.981 115.238 150.946C115.073 150.894 114.933 150.783 114.845 150.633C114.758 150.484 114.729 150.307 114.765 150.138C114.827 149.98 114.948 149.851 115.103 149.78C115.258 149.709 115.434 149.7 115.595 149.756" fill="#E0E0E0"/>
<g opacity="0.6">
<path d="M118.194 155.121L118.165 153.811L102.651 154.143C102.651 154.143 101.93 154.45 102.006 154.959L118.194 155.121Z" fill="white"/>
</g>
<path d="M110.264 150.308C110.264 150.387 110.661 150.427 111.047 150.669C111.433 150.91 111.635 151.264 111.711 151.231C111.787 151.199 111.668 150.744 111.195 150.441C110.722 150.138 110.246 150.225 110.264 150.308Z" fill="#263238"/>
<path d="M108.557 150.993C108.539 151.069 108.878 151.206 109.145 151.545C109.412 151.884 109.485 152.234 109.564 152.234C109.643 152.234 109.697 151.783 109.358 151.372C109.019 150.961 108.561 150.917 108.557 150.993Z" fill="#263238"/>
<path d="M107.571 153.014C107.643 153.014 107.759 152.653 107.571 152.206C107.384 151.758 107.005 151.592 106.969 151.657C106.933 151.722 107.16 151.957 107.329 152.317C107.499 152.678 107.492 153.006 107.571 153.014Z" fill="#263238"/>
<path d="M110.427 148.421C110.459 148.493 110.82 148.385 111.267 148.421C111.715 148.457 112.061 148.601 112.104 148.533C112.148 148.464 111.812 148.172 111.285 148.147C110.759 148.121 110.387 148.338 110.427 148.421Z" fill="#263238"/>
<path d="M115.383 108.644C115.383 108.644 110.963 108.283 110.472 113.089C109.982 117.895 109.502 140.267 109.502 140.267L119.835 141.126L121.433 118.252L137.903 111.26C137.903 111.26 118.334 108.031 115.383 108.644Z" fill="#263238"/>
<path d="M133.602 102.172C133.602 102.172 130.921 109.694 131.437 110.531C131.953 111.368 138.848 114.821 138.848 114.821L156.111 121.448C156.111 121.448 157.883 118.631 157.883 114.298C157.883 109.965 151.879 102.172 151.879 102.172H133.602Z" fill="#263238"/>
<path d="M138.726 110.859L138.643 110.902L138.398 111.018L137.442 111.44L133.855 113.006L121.466 118.338L121.52 118.259C121.365 120.517 121.195 122.949 121.019 125.475C120.6 131.377 120.214 136.818 119.907 141.125V141.201H119.832L112.306 140.541L110.235 140.35L109.69 140.292C109.628 140.287 109.567 140.279 109.506 140.267C109.568 140.261 109.631 140.261 109.693 140.267L110.238 140.299L112.313 140.451L119.842 141.046L119.759 141.118C120.055 136.81 120.43 131.377 120.842 125.467C121.019 122.942 121.203 120.503 121.35 118.252V118.198L121.405 118.176L133.819 112.905L137.427 111.389L138.398 110.993L138.647 110.895C138.671 110.879 138.698 110.867 138.726 110.859Z" fill="#455A64"/>
<path d="M152.435 111.621C152.27 111.591 152.109 111.546 151.952 111.487L150.649 111.069C149.238 110.588 147.79 110.22 146.32 109.968C144.843 109.726 143.335 109.746 141.864 110.026C141.262 110.166 140.667 110.339 140.082 110.542C140.221 110.448 140.372 110.372 140.529 110.315C140.952 110.138 141.389 109.996 141.835 109.892C143.319 109.568 144.851 109.528 146.349 109.777C147.836 110.027 149.296 110.416 150.711 110.939C151.256 111.13 151.692 111.299 151.995 111.415C152.149 111.468 152.296 111.537 152.435 111.621Z" fill="#455A64"/>
<path d="M150.011 107.652C149.508 107.62 149.003 107.62 148.499 107.652C148.034 107.684 147.482 107.757 146.865 107.829C146.248 107.901 145.577 107.984 144.877 108.117C143.678 108.309 142.528 108.734 141.493 109.369C141.082 109.658 140.69 109.974 140.32 110.314C140.388 110.195 140.473 110.085 140.573 109.99C140.827 109.719 141.11 109.478 141.417 109.268C142.451 108.586 143.618 108.132 144.841 107.937C145.563 107.803 146.23 107.724 146.847 107.663C147.464 107.601 148.019 107.544 148.492 107.526C148.866 107.51 149.24 107.527 149.611 107.576C149.747 107.579 149.883 107.604 150.011 107.652Z" fill="#455A64"/>
<path d="M127.213 80.7879C127.213 80.7879 130.298 75.6395 131.156 74.5968C131.844 73.7928 132.709 73.1583 133.682 72.7424C134.066 72.5743 134.47 72.4531 134.883 72.3816L139.324 71.4002C139.324 71.4002 139.324 74.4308 142.51 74.6184C145.696 74.8061 148.359 70.3828 148.359 70.3828C148.359 70.3828 153.489 71.1765 154.716 71.8079C155.942 72.4393 157.873 73.2511 158.937 78.5546L159.68 83.7572L150.837 84.5617L149.989 97.7088L145.602 100.797C145.602 100.797 133.44 103.958 132.664 104.167C131.889 104.376 131.629 84.5617 131.629 84.5617C131.629 84.5617 128.505 82.5593 127.213 80.7879Z" fill="#175CD3"/>
<path d="M133.034 78.5762C132.965 78.6966 132.908 78.8235 132.864 78.955C132.763 79.2039 132.633 79.5683 132.503 80.0374C131.759 82.4257 131.452 84.9289 131.598 87.4263C131.626 87.9061 131.663 88.2921 131.702 88.5555C131.712 88.6935 131.737 88.8301 131.774 88.9632C131.792 88.8254 131.792 88.6861 131.774 88.5483C131.756 88.2813 131.738 87.8989 131.728 87.4226C131.652 84.9415 131.955 82.4634 132.626 80.0734C132.752 79.6152 132.864 79.2472 132.943 78.9911C132.992 78.8574 133.022 78.7179 133.034 78.5762Z" fill="#263238"/>
<path d="M151.158 78.2625C151.175 78.3966 151.175 78.5324 151.158 78.6665C151.158 78.9624 151.132 79.3268 151.114 79.7489C151.071 80.7122 151.01 81.9641 150.945 83.3568C150.88 84.7494 150.808 86.0338 150.736 86.9646C150.703 87.4228 150.671 87.7944 150.642 88.047C150.637 88.1812 150.617 88.3145 150.58 88.4438C150.562 88.311 150.562 88.1762 150.58 88.0434C150.58 87.7439 150.602 87.3795 150.616 86.961C150.656 85.9941 150.71 84.7458 150.768 83.3531C150.826 81.9605 150.916 80.6761 150.992 79.7453C151.031 79.2835 151.067 78.9119 151.096 78.6629C151.101 78.5275 151.122 78.3932 151.158 78.2625Z" fill="#263238"/>
<path d="M133.411 100.108L150.068 96.5002L150.837 84.5942L158.244 83.9124C158.244 83.9124 157.724 92.0336 157.685 94.469C157.576 101.49 155.217 102.698 154.015 103.647C152.814 104.596 132.664 104.167 132.664 104.167L133.411 100.108Z" fill="#FFBE9D"/>
<path d="M123.956 102.266C124.012 102.38 124.101 102.476 124.211 102.54C124.322 102.604 124.449 102.634 124.576 102.626C124.632 102.62 124.686 102.607 124.739 102.59C125.1 102.475 125.074 101.724 125.074 101.724L126.839 101.436C126.839 101.436 129.133 102.915 129.949 103.896C130.764 104.878 132.835 104.084 132.835 104.084L133.556 100.321L130.309 97.3841C130.309 97.3841 130.508 97.5573 130.284 97.0234C130.06 96.4894 129.039 96.6806 129.039 96.6806C128.881 96.41 128.213 96.3198 128.213 96.3198L125.363 96.6481C125.071 96.679 124.789 96.7754 124.539 96.9304C124.289 97.0853 124.077 97.2947 123.92 97.5429L122.715 99.4514C122.715 99.4514 122.08 100.826 122.181 101.144C122.228 101.274 122.322 101.383 122.444 101.45C122.567 101.516 122.709 101.536 122.845 101.504C122.845 101.504 122.985 102.41 123.223 102.439C123.467 102.428 123.705 102.37 123.927 102.269L123.956 102.266Z" fill="#FFBE9D"/>
<path d="M130.024 99.5632C130.024 99.5957 129.641 99.5633 129.031 99.5849C128.239 99.6228 127.456 99.7697 126.704 100.021C126.292 100.16 125.892 100.331 125.507 100.534C125.164 100.729 124.803 100.895 124.691 101.136C124.668 101.192 124.658 101.252 124.664 101.312C124.67 101.372 124.69 101.429 124.724 101.479C124.776 101.56 124.851 101.623 124.94 101.659C125.021 101.685 125.105 101.697 125.189 101.695C125.189 101.695 125.099 101.775 124.915 101.724C124.806 101.693 124.71 101.627 124.641 101.537C124.592 101.474 124.56 101.4 124.548 101.322C124.536 101.244 124.545 101.164 124.572 101.089C124.65 100.923 124.776 100.784 124.933 100.689C125.088 100.588 125.25 100.483 125.431 100.386C126.535 99.7754 127.777 99.4563 129.039 99.4586C129.37 99.4444 129.702 99.4797 130.024 99.5632Z" fill="#EB996E"/>
<path d="M130.223 101.381C130.223 101.436 129.061 101.381 127.636 101.472C126.211 101.562 125.064 101.728 125.053 101.674C125.292 101.582 125.542 101.522 125.796 101.493C126.402 101.392 127.012 101.324 127.625 101.288C128.238 101.253 128.852 101.253 129.465 101.288C129.721 101.285 129.976 101.316 130.223 101.381Z" fill="#EB996E"/>
<path d="M123.976 102.193C123.951 102.094 123.939 101.992 123.94 101.89C123.921 101.613 123.921 101.334 123.94 101.057C123.948 100.862 123.975 100.669 124.019 100.479C124.07 100.256 124.164 100.045 124.297 99.8589C124.582 99.43 124.95 99.0621 125.379 98.7766C125.8 98.4853 126.259 98.2535 126.743 98.0875C127.143 97.9738 127.557 97.9119 127.973 97.9035C128.334 97.9035 128.612 97.9035 128.807 97.9035C128.909 97.8986 129.011 97.9096 129.11 97.9359C128.736 97.9902 128.358 98.0215 127.98 98.0297C127.578 98.0581 127.18 98.1319 126.793 98.2498C126.329 98.4165 125.888 98.6447 125.484 98.9281C125.076 99.2054 124.724 99.5581 124.448 99.9672C124.228 100.299 124.103 100.684 124.088 101.082C123.997 101.757 124.015 102.197 123.976 102.193Z" fill="#EB996E"/>
<path d="M128.09 97.0231C128.09 97.052 127.664 97.0628 126.982 97.1421C126.3 97.2215 125.275 97.2901 124.68 98.192C124.099 98.8679 123.613 99.6206 123.237 100.429C123.113 100.78 123.023 101.143 122.966 101.511C122.949 101.411 122.949 101.308 122.966 101.208C122.982 100.932 123.038 100.66 123.132 100.4C123.476 99.5601 123.954 98.7815 124.547 98.0946C124.708 97.8856 124.894 97.6977 125.102 97.5354C125.305 97.3893 125.532 97.2817 125.773 97.2179C126.169 97.1144 126.574 97.0504 126.982 97.0267C127.349 96.9787 127.722 96.9775 128.09 97.0231Z" fill="#EB996E"/>
<path d="M129.346 103.294C129.285 103.257 129.228 103.213 129.176 103.164L128.696 102.782C128.097 102.315 127.472 101.884 126.824 101.49H126.867L125.103 101.793L125.164 101.717C125.168 101.861 125.156 102.005 125.128 102.147C125.107 102.306 125.038 102.454 124.929 102.573C124.864 102.631 124.782 102.668 124.695 102.681C124.613 102.697 124.528 102.697 124.446 102.681C124.276 102.655 124.122 102.569 124.009 102.439C123.981 102.406 123.955 102.371 123.93 102.334V102.306L124.035 102.342L123.977 102.363C123.901 102.392 123.825 102.421 123.75 102.443C123.671 102.469 123.59 102.489 123.508 102.504C123.465 102.508 123.421 102.508 123.378 102.504C123.321 102.51 123.263 102.499 123.212 102.472C123.135 102.411 123.075 102.331 123.039 102.241C123.006 102.158 122.978 102.078 122.952 101.995C122.906 101.832 122.868 101.665 122.841 101.497L122.942 101.57C122.822 101.596 122.698 101.589 122.582 101.549C122.466 101.51 122.364 101.439 122.285 101.346C122.203 101.244 122.159 101.116 122.162 100.985C122.172 100.869 122.194 100.754 122.227 100.642C122.357 100.208 122.52 99.785 122.714 99.376L123.356 98.3585L123.764 97.7127C123.89 97.4888 124.04 97.2795 124.212 97.0886C124.394 96.9052 124.611 96.7604 124.85 96.6628C125.082 96.5777 125.325 96.5266 125.572 96.5113L128.256 96.2083H128.278C128.439 96.2321 128.598 96.2732 128.75 96.3309C128.913 96.3793 129.056 96.4793 129.158 96.6159L129.06 96.5871C129.206 96.5199 129.365 96.4893 129.525 96.4981C129.685 96.5069 129.84 96.5548 129.977 96.6376C130.214 96.8114 130.376 97.0697 130.428 97.3592L130.406 97.3231L132.593 99.3543L133.195 99.9099C133.268 99.9712 133.336 100.039 133.397 100.112C133.316 100.062 133.239 100.004 133.17 99.9388L132.542 99.4084C131.986 98.9322 131.214 98.2611 130.266 97.4421V97.4169C130.215 97.166 130.072 96.9432 129.865 96.7927C129.749 96.7254 129.618 96.687 129.483 96.6807C129.349 96.6744 129.215 96.7005 129.093 96.7566L129.032 96.7855L128.996 96.7278C128.909 96.6242 128.793 96.5488 128.664 96.5113C128.52 96.4614 128.373 96.424 128.223 96.3995H128.245L125.557 96.717C125.325 96.7282 125.096 96.7757 124.879 96.8577C124.662 96.9455 124.466 97.0769 124.302 97.2437C124.138 97.4247 123.996 97.6245 123.88 97.839C123.742 98.0519 123.609 98.2683 123.472 98.4848C123.252 98.8456 123.032 99.1775 122.83 99.5022C122.642 99.9033 122.481 100.317 122.35 100.74C122.321 100.839 122.302 100.94 122.292 101.043C122.29 101.131 122.321 101.217 122.379 101.285C122.436 101.353 122.512 101.404 122.596 101.432C122.681 101.461 122.771 101.466 122.859 101.447H122.949V101.533C122.975 101.694 123.01 101.853 123.053 102.01C123.084 102.15 123.147 102.281 123.237 102.392C123.261 102.396 123.286 102.396 123.31 102.392H123.418C123.494 102.392 123.566 102.36 123.641 102.338L123.858 102.262L123.908 102.241C123.818 102.205 124.038 102.288 124.017 102.277V102.298C124.034 102.327 124.053 102.355 124.074 102.381C124.162 102.484 124.284 102.553 124.417 102.576C124.48 102.589 124.545 102.589 124.608 102.576C124.668 102.57 124.724 102.546 124.771 102.508C124.917 102.297 124.986 102.042 124.966 101.786V101.721H125.023L126.791 101.447H126.813H126.831C127.479 101.851 128.098 102.3 128.685 102.789C128.891 102.962 129.046 103.099 129.143 103.197C129.214 103.222 129.282 103.255 129.346 103.294Z" fill="#EB996E"/>
<path d="M145.104 108.428H142.305V109.045L148.438 168.874H151.71L145.104 108.428Z" fill="#455A64"/>
<path d="M145.104 108.428C145.104 108.428 145.104 108.536 145.133 108.742C145.161 108.947 145.187 109.258 145.226 109.658C145.309 110.463 145.436 111.642 145.587 113.161C145.912 116.203 146.384 120.604 146.969 126.059C148.149 136.955 149.783 152.058 151.609 168.885L151.702 168.78H148.43L148.524 168.863C145.638 140.704 143.166 116.877 142.326 109.045C142.326 108.76 142.326 108.59 142.326 108.428L142.3 108.453H144.415H144.93H145.1H144.938H144.429L142.3 108.435H142.271V109.081C143.036 116.924 145.454 140.754 148.34 168.914V169H151.8V168.895C149.945 152.047 148.282 136.926 147.081 126.012C146.471 120.572 145.998 116.181 145.638 113.143C145.468 111.632 145.335 110.463 145.244 109.662C145.197 109.268 145.161 108.969 145.14 108.76C145.118 108.55 145.104 108.428 145.104 108.428Z" fill="#263238"/>
<path d="M95.5943 108.428H92.791V109.059L98.6321 168.859H101.508L95.5943 108.428Z" fill="#263238"/>
<path d="M156.812 109.045L56.9287 109.153L56.8926 106.516H156.812V109.045Z" fill="#455A64"/>
<path d="M70.9777 108.428H73.781V109.059L67.9435 168.859H65.0645L70.9777 108.428Z" fill="#455A64"/>
<path d="M70.8514 109.21C70.8514 109.21 70.8514 109.315 70.8297 109.521C70.8081 109.726 70.7828 110.026 70.7468 110.419C70.671 111.213 70.5628 112.375 70.4184 113.872C70.1334 116.87 69.7149 121.21 69.199 126.586C68.1563 137.327 66.7132 152.202 65.1041 168.798L65.0247 168.711H67.911L67.8316 168.78C70.5591 141.093 72.8826 117.638 73.6403 109.849V109.214L73.6619 109.236H71.5477H71.0246H71.5369H73.6619H73.6836V109.257C73.6836 109.423 73.6836 109.596 73.6836 109.892C72.9295 117.685 70.6638 141.144 67.9831 168.838V168.906H64.9453V168.82C66.5797 152.223 68.0481 137.323 69.1088 126.568C69.6427 121.203 70.0757 116.87 70.3751 113.879C70.5267 112.389 70.6421 111.231 70.7359 110.444C70.7756 110.055 70.8081 109.759 70.8297 109.557L70.8514 109.21Z" fill="#263238"/>
<path d="M111.456 108.655H108.652V109.29L114.493 168.859H117.373L111.456 108.655Z" fill="#455A64"/>
<path d="M111.581 109.456C111.581 109.456 111.581 109.561 111.606 109.763C111.632 109.965 111.653 110.268 111.689 110.661C111.765 111.448 111.873 112.606 112.014 114.1C112.303 117.087 112.736 121.409 113.234 126.763C114.276 137.464 115.723 152.292 117.332 168.809L117.411 168.723H114.525L114.601 168.791C111.873 141.209 109.55 117.845 108.796 110.084V109.456H108.781H110.899H111.585H111.422H110.91H108.781H108.76V110.113C109.503 117.834 111.776 141.205 114.453 168.791V168.86H117.487V168.773C115.853 152.242 114.384 137.385 113.324 126.684C112.786 121.337 112.357 117.022 112.057 114.056C111.906 112.57 111.79 111.419 111.697 110.636C111.653 110.246 111.624 109.951 111.603 109.749C111.581 109.546 111.581 109.456 111.581 109.456Z" fill="#263238"/>
<path d="M156.441 109.063C156.441 109.012 136.302 108.972 111.466 108.972C86.629 108.972 66.4863 109.012 66.4863 109.063C66.4863 109.113 86.6218 109.153 111.466 109.153C136.309 109.153 156.441 109.113 156.441 109.063Z" fill="#263238"/>
<path d="M93.8701 87.9927L115.81 88.1695C116.531 88.1695 117.202 88.5122 117.31 89.2157L119.706 105.206H131.006C131.181 105.206 131.349 105.275 131.473 105.399C131.597 105.523 131.666 105.691 131.666 105.866C131.666 106.041 131.597 106.209 131.473 106.333C131.349 106.457 131.181 106.526 131.006 106.526H94.9272L92.4631 89.6487C92.4327 89.4451 92.4462 89.2374 92.5027 89.0395C92.5592 88.8416 92.6574 88.6581 92.7907 88.5012C92.9239 88.3444 93.0892 88.2179 93.2754 88.1302C93.4616 88.0424 93.6644 87.9956 93.8701 87.9927Z" fill="#E0E0E0"/>
<path d="M93.8701 87.9926C93.7489 87.9851 93.6272 87.996 93.5093 88.0251C93.1728 88.1041 92.8758 88.3012 92.6723 88.5807C92.522 88.7861 92.4286 89.0275 92.4017 89.2806C92.3939 89.5833 92.4206 89.8859 92.4811 90.1826C92.5749 90.8284 92.6795 91.5752 92.7986 92.4086L94.8334 106.533V106.591H94.8911L129.909 106.613H130.851C131.022 106.629 131.195 106.596 131.349 106.519C131.505 106.431 131.625 106.29 131.688 106.122C131.748 105.955 131.747 105.771 131.684 105.604C131.622 105.437 131.501 105.299 131.345 105.213C131.193 105.134 131.021 105.101 130.851 105.119H119.666L119.753 105.191C118.887 99.4656 118.082 94.1224 117.361 89.3167C117.34 88.9951 117.193 88.6945 116.953 88.4797C116.715 88.2816 116.424 88.1564 116.116 88.1189C115.822 88.0897 115.527 88.0801 115.232 88.09H114.37L111.065 88.0684L105.195 88.0323L96.8755 87.989H94.0649H94.6386L96.8755 88.0215L105.231 88.1153L111.101 88.173L114.406 88.2019H115.268C115.556 88.1933 115.844 88.2029 116.131 88.2307C116.412 88.2701 116.677 88.3876 116.895 88.5699C117.002 88.6649 117.089 88.7802 117.151 88.909C117.213 89.0378 117.249 89.1776 117.256 89.3203L119.623 105.195V105.267H130.862C131.002 105.251 131.145 105.275 131.273 105.336C131.362 105.385 131.437 105.457 131.489 105.545C131.541 105.633 131.569 105.733 131.569 105.835C131.569 105.937 131.541 106.038 131.489 106.126C131.437 106.214 131.362 106.286 131.273 106.335C131.145 106.397 131.003 106.422 130.862 106.407H129.92L94.9019 106.429L94.9705 106.487C94.0902 100.548 93.3758 95.7207 92.8779 92.369L92.5424 90.1465C92.4813 89.8547 92.4511 89.5572 92.4522 89.259C92.4838 88.9658 92.6045 88.6893 92.798 88.4668C92.9915 88.2442 93.2486 88.0863 93.5346 88.0143C93.6459 88.0005 93.7579 87.9933 93.8701 87.9926Z" fill="#263238"/>
<path d="M107.142 97.0555C107.142 97.3275 107.061 97.5934 106.91 97.8196C106.759 98.0457 106.544 98.2219 106.292 98.3258C106.041 98.4297 105.764 98.4568 105.498 98.4034C105.231 98.3501 104.986 98.2188 104.794 98.0262C104.602 97.8336 104.471 97.5883 104.419 97.3215C104.366 97.0546 104.394 96.7781 104.498 96.527C104.603 96.2759 104.78 96.0614 105.006 95.9108C105.233 95.7602 105.499 95.6802 105.771 95.6809C106.135 95.6819 106.483 95.8271 106.74 96.0848C106.997 96.3425 107.142 96.6916 107.142 97.0555Z" fill="white"/>
<path d="M118.817 106.378C118.785 106.378 118.096 102.309 117.255 97.2829C116.414 92.2572 115.779 88.1767 115.812 88.1694C115.844 88.1622 116.533 92.2355 117.374 97.2649C118.215 102.294 118.846 106.371 118.817 106.378Z" fill="#263238"/>
</svg>
