<svg width="52" height="52" viewBox="0 0 52 52" fill="none" xmlns="http://www.w3.org/2000/svg">
<rect width="52" height="52" rx="26" fill="#D1FADF" fill-opacity="0.5"/>
<path d="M33.4688 27.125C29.3677 27.125 26.0312 30.4614 26.0312 34.5625C26.0312 38.6636 29.3677 42 33.4688 42C37.6042 42 40.9688 38.6636 40.9688 34.5625C40.9688 30.4614 37.6042 27.125 33.4688 27.125ZM35.7514 33.6627L33.2514 36.6627C33.0722 36.8777 32.8076 37 32.5313 37C32.4954 37 32.4593 36.9979 32.4231 36.9937C32.1089 36.9572 31.8342 36.7648 31.6927 36.4818L30.6927 34.4818C30.4611 34.0187 30.6489 33.4555 31.1119 33.224C31.575 32.9923 32.1382 33.1801 32.3697 33.6432L32.7287 34.3611L34.311 32.4623C34.6425 32.0646 35.2337 32.0109 35.6314 32.3423C36.0292 32.6738 36.0829 33.2649 35.7514 33.6627Z" fill="#12B76A"/>
<path d="M33.0647 15.3408L29.2608 11.4071C29.259 11.4052 29.2571 11.4033 29.2553 11.4014C28.3795 10.5108 27.1608 10 25.9119 10H13.8438C12.2929 10 11.0312 11.2617 11.0312 12.8125V37.125C11.0312 38.6758 12.2929 39.9375 13.8438 39.9375H25.8681C24.7904 38.418 24.1562 36.563 24.1562 34.5625C24.1562 29.4276 28.3338 25.25 33.4688 25.25C33.7851 25.25 34.0978 25.2659 34.4062 25.2964V18.6237C34.4062 17.3882 33.9298 16.2225 33.0647 15.3408ZM20.9688 30.9375H15.9688C15.451 30.9375 15.0312 30.5177 15.0312 30C15.0312 29.4823 15.451 29.0625 15.9688 29.0625H20.9688C21.4865 29.0625 21.9062 29.4823 21.9062 30C21.9062 30.5177 21.4865 30.9375 20.9688 30.9375ZM20.9688 25.9375H15.9688C15.451 25.9375 15.0312 25.5177 15.0312 25C15.0312 24.4823 15.451 24.0625 15.9688 24.0625H20.9688C21.4865 24.0625 21.9062 24.4823 21.9062 25C21.9062 25.5177 21.4865 25.9375 20.9688 25.9375ZM20.9688 20.9375H15.9688C15.451 20.9375 15.0312 20.5177 15.0312 20C15.0312 19.4823 15.451 19.0625 15.9688 19.0625H20.9688C21.4865 19.0625 21.9062 19.4823 21.9062 20C21.9062 20.5177 21.4865 20.9375 20.9688 20.9375ZM26.9688 25.9375H25.9688C25.451 25.9375 25.0312 25.5177 25.0312 25C25.0312 24.4823 25.451 24.0625 25.9688 24.0625H26.9688C27.4865 24.0625 27.9062 24.4823 27.9062 25C27.9062 25.5177 27.4865 25.9375 26.9688 25.9375ZM26.9688 20.9375H25.9688C25.451 20.9375 25.0312 20.5177 25.0312 20C25.0312 19.4823 25.451 19.0625 25.9688 19.0625H26.9688C27.4865 19.0625 27.9062 19.4823 27.9062 20C27.9062 20.5177 27.4865 20.9375 26.9688 20.9375Z" fill="#12B76A"/>
</svg>
