<svg width="366" height="272" viewBox="0 0 366 272" fill="none" xmlns="http://www.w3.org/2000/svg">
<path d="M365.042 239.029H0V239.212H365.042V239.029Z" fill="#EBEBEB"/>
<path d="M328.464 250.776H304.284V250.958H328.464V250.776Z" fill="#EBEBEB"/>
<path d="M241.818 252.762H235.474V252.945H241.818V252.762Z" fill="#EBEBEB"/>
<path d="M303.554 244.001H289.544V244.183H303.554V244.001Z" fill="#EBEBEB"/>
<path d="M69.8324 245.228H38.3001V245.41H69.8324V245.228Z" fill="#EBEBEB"/>
<path d="M80.959 245.228H76.3375V245.41H80.959V245.228Z" fill="#EBEBEB"/>
<path d="M164.378 248.309H95.984V248.491H164.378V248.309Z" fill="#EBEBEB"/>
<path d="M173.03 206.467H32.0579C30.9535 206.466 29.8951 206.025 29.1148 205.244C28.3346 204.462 27.8964 203.403 27.8964 202.299V4.13227C27.906 3.03424 28.3485 1.98435 29.1277 1.21064C29.9068 0.436924 30.9598 0.00188098 32.0579 0H173.03C174.135 0 175.196 0.439209 175.977 1.22101C176.759 2.0028 177.198 3.06315 177.198 4.16877V202.299C177.198 203.404 176.759 204.465 175.977 205.246C175.196 206.028 174.135 206.467 173.03 206.467ZM32.0579 0.146017C31.0019 0.147951 29.9899 0.568782 29.2439 1.31614C28.4979 2.0635 28.0789 3.07631 28.0789 4.13227V202.299C28.0789 203.355 28.4979 204.367 29.2439 205.115C29.9899 205.862 31.0019 206.283 32.0579 206.285H173.03C174.086 206.283 175.099 205.862 175.846 205.115C176.593 204.368 177.014 203.355 177.016 202.299V4.13227C177.014 3.07564 176.593 2.06284 175.846 1.31569C175.099 0.568545 174.086 0.147947 173.03 0.146017H32.0579Z" fill="#EBEBEB"/>
<path d="M330.954 206.467H189.975C188.87 206.466 187.811 206.026 187.029 205.244C186.248 204.463 185.808 203.404 185.806 202.299V4.13227C185.818 3.03358 186.262 1.98369 187.042 1.21018C187.822 0.436669 188.876 0.00186046 189.975 0H330.954C332.051 0.00379971 333.102 0.439692 333.879 1.2132C334.657 1.98671 335.099 3.0355 335.108 4.13227V202.299C335.108 203.402 334.671 204.46 333.892 205.241C333.114 206.023 332.057 206.464 330.954 206.467ZM189.975 0.146017C188.918 0.147947 187.905 0.568545 187.158 1.31569C186.411 2.06284 185.991 3.07564 185.989 4.13227V202.299C185.991 203.355 186.411 204.368 187.158 205.115C187.905 205.862 188.918 206.283 189.975 206.285H330.954C332.011 206.283 333.023 205.862 333.771 205.115C334.518 204.368 334.938 203.355 334.94 202.299V4.13227C334.938 3.07564 334.518 2.06284 333.771 1.31569C333.023 0.568545 332.011 0.147947 330.954 0.146017H189.975Z" fill="#EBEBEB"/>
<path d="M197.677 238.24H296.457V93.4064H197.677V238.24Z" fill="#F0F0F0"/>
<path d="M201.167 124.72L292.968 124.72V97.9695L201.167 97.9695V124.72Z" fill="#E0E0E0"/>
<path d="M287.755 124.72H292.968V102.299H287.755V124.72Z" fill="#EBEBEB"/>
<path d="M262.538 124.72H267.751V102.299H262.538V124.72Z" fill="#EBEBEB"/>
<path d="M230.108 123.826L235.245 124.712L239.054 102.617L233.917 101.731L230.108 123.826Z" fill="#EBEBEB"/>
<path d="M281.294 124.72H286.507V105.256H281.294V124.72Z" fill="#EBEBEB"/>
<path d="M269.306 124.72H274.519V105.256H269.306V124.72Z" fill="#EBEBEB"/>
<path d="M239.051 124.72H244.264V105.256H239.051V124.72Z" fill="#EBEBEB"/>
<path d="M251.478 123.581L256.566 124.712L260.789 105.711L255.7 104.581L251.478 123.581Z" fill="#EBEBEB"/>
<path d="M276.782 124.72H279.388V101.189H276.782V124.72Z" fill="#EBEBEB"/>
<path d="M245.768 124.72H248.374V101.189H245.768V124.72Z" fill="#EBEBEB"/>
<path d="M292.968 128.955H201.167V155.705H292.968V128.955Z" fill="#E0E0E0"/>
<path d="M206.38 133.284H201.167V155.705H206.38V133.284Z" fill="#EBEBEB"/>
<path d="M231.597 133.284H226.384V155.705H231.597V133.284Z" fill="#EBEBEB"/>
<path d="M260.231 132.712L255.094 133.597L258.902 155.692L264.039 154.807L260.231 132.712Z" fill="#EBEBEB"/>
<path d="M212.841 136.241H207.628V155.705H212.841V136.241Z" fill="#EBEBEB"/>
<path d="M224.829 136.241H219.616V155.705H224.829V136.241Z" fill="#EBEBEB"/>
<path d="M255.084 136.241H249.871V155.705H255.084V136.241Z" fill="#EBEBEB"/>
<path d="M238.458 135.558L233.37 136.688L237.592 155.689L242.681 154.558L238.458 135.558Z" fill="#EBEBEB"/>
<path d="M217.353 132.174H214.747V155.704H217.353V132.174Z" fill="#EBEBEB"/>
<path d="M248.367 132.174H245.761V155.704H248.367V132.174Z" fill="#EBEBEB"/>
<path d="M287.755 155.705H292.968V133.284H287.755V155.705Z" fill="#EBEBEB"/>
<path d="M281.294 155.705H286.507V136.241H281.294V155.705Z" fill="#EBEBEB"/>
<path d="M269.306 155.705H274.519V136.241H269.306V155.705Z" fill="#EBEBEB"/>
<path d="M276.782 155.705H279.388V132.174H276.782V155.705Z" fill="#EBEBEB"/>
<path d="M201.167 186.69H292.968V159.94H201.167V186.69Z" fill="#E0E0E0"/>
<path d="M235.065 186.69H240.278V164.269H235.065V186.69Z" fill="#EBEBEB"/>
<path d="M202.636 185.792L207.773 186.678L211.582 164.583L206.445 163.697L202.636 185.792Z" fill="#EBEBEB"/>
<path d="M253.821 186.69H259.034V167.226H253.821V186.69Z" fill="#EBEBEB"/>
<path d="M241.833 186.69H247.045V167.226H241.833V186.69Z" fill="#EBEBEB"/>
<path d="M211.578 186.69H216.791V167.226H211.578V186.69Z" fill="#EBEBEB"/>
<path d="M224.004 185.547L229.092 186.678L233.315 167.677L228.226 166.546L224.004 185.547Z" fill="#EBEBEB"/>
<path d="M249.309 186.69H251.915V163.159H249.309V186.69Z" fill="#EBEBEB"/>
<path d="M218.295 186.69H220.901V163.159H218.295V186.69Z" fill="#EBEBEB"/>
<path d="M262.637 185.794L267.774 186.68L271.583 164.585L266.446 163.699L262.637 185.794Z" fill="#EBEBEB"/>
<path d="M271.576 186.69H276.789V167.226H271.576V186.69Z" fill="#EBEBEB"/>
<path d="M284.007 185.55L289.096 186.681L293.318 167.68L288.23 166.549L284.007 185.55Z" fill="#EBEBEB"/>
<path d="M278.286 186.69H280.892V163.159H278.286V186.69Z" fill="#EBEBEB"/>
<path d="M313.498 93.4136H296.457V238.62H313.498V93.4136Z" fill="#E0E0E0"/>
<path d="M76.2353 62.2324C76.2353 62.2324 75.3811 56.5962 79.4915 52.975C83.6019 49.3538 83.2441 47.2073 82.0687 46.9299C80.8933 46.6525 79.8127 50.2664 78.0021 51.2593C78.0021 51.2593 77.9437 46.1049 79.7835 44.2067C81.6233 42.3085 82.5797 37.4169 80.8348 37.3293C79.0899 37.2417 78.9074 40.2496 78.5424 42.3523C78.1773 44.4549 76.2353 47.4629 76.2353 47.4629C76.2353 47.4629 75.8557 42.8487 74.6656 40.9505C73.4756 39.0523 76.6442 34.7083 75.3957 32.8101C74.1473 30.9119 72.0081 34.5331 72.1834 38.5996C72.3586 42.6662 75.1037 47.0102 74.4466 51.2593C74.4466 51.2593 73.2493 48.2732 72.1761 48.0031C71.1028 47.733 69.9858 45.7545 69.2557 45.0244C68.5256 44.2943 67.6276 46.8277 69.2557 49.1786C70.8838 51.5294 75.0453 57.8154 74.4101 62.9041L76.2353 62.2324Z" fill="#E6E6E6"/>
<path d="M78.6957 59.6699L80.039 68.1243C80.1373 68.7379 80.1012 69.3655 79.9332 69.9638C79.7652 70.5621 79.4693 71.1168 79.066 71.5895C78.6626 72.0623 78.1615 72.4418 77.5971 72.702C77.0328 72.9621 76.4186 73.0966 75.7972 73.0961H74.3371C73.715 73.0976 73.1001 72.9639 72.5348 72.7043C71.9696 72.4446 71.4675 72.0652 71.0634 71.5923C70.6592 71.1194 70.3627 70.5644 70.1943 69.9656C70.0259 69.3668 69.9896 68.7385 70.088 68.1243L71.4313 59.6699H78.6957Z" fill="#E6E6E6"/>
<path d="M58.3117 74.8701L153.544 74.8701V69.9786L58.3117 69.9786V74.8701Z" fill="#E0E0E0"/>
<path d="M144.965 69.9785H149.163V51.9455H144.965V69.9785Z" fill="#EBEBEB"/>
<path d="M124.684 69.9785H128.882V51.9455H124.684V69.9785Z" fill="#EBEBEB"/>
<path d="M98.5833 69.2659L102.72 69.979L105.783 52.208L101.646 51.4949L98.5833 69.2659Z" fill="#EBEBEB"/>
<path d="M139.767 69.9785H143.965V54.3182H139.767V69.9785Z" fill="#EBEBEB"/>
<path d="M130.123 69.9785H134.321V54.3182H130.123V69.9785Z" fill="#EBEBEB"/>
<path d="M105.782 69.9785H109.98V54.3182H105.782V69.9785Z" fill="#EBEBEB"/>
<path d="M115.777 69.059L119.875 69.9697L123.273 54.6824L119.175 53.7717L115.777 69.059Z" fill="#EBEBEB"/>
<path d="M136.146 69.9717H138.241V51.0406H136.146V69.9717Z" fill="#EBEBEB"/>
<path d="M111.192 69.9717H113.287V51.0406H111.192V69.9717Z" fill="#EBEBEB"/>
<path d="M153.551 106.504H58.3191V111.396H153.551V106.504Z" fill="#E0E0E0"/>
<path d="M66.8975 88.4717H62.6996V106.505H66.8975V88.4717Z" fill="#EBEBEB"/>
<path d="M87.1865 88.4717H82.9886V106.505H87.1865V88.4717Z" fill="#EBEBEB"/>
<path d="M110.22 88.0174L106.083 88.7305L109.146 106.501L113.283 105.788L110.22 88.0174Z" fill="#EBEBEB"/>
<path d="M72.0957 90.8442H67.8977V106.505H72.0957V90.8442Z" fill="#EBEBEB"/>
<path d="M81.7401 90.8442H77.5421V106.505H81.7401V90.8442Z" fill="#EBEBEB"/>
<path d="M106.081 90.8442H101.883V106.505H106.081V90.8442Z" fill="#EBEBEB"/>
<path d="M92.7032 90.2973L88.6052 91.208L92.0027 106.495L96.1007 105.585L92.7032 90.2973Z" fill="#EBEBEB"/>
<path d="M75.7169 87.5737H73.6216V106.505H75.7169V87.5737Z" fill="#EBEBEB"/>
<path d="M100.671 87.5737H98.5758V106.505H100.671V87.5737Z" fill="#EBEBEB"/>
<path d="M144.41 92.231H123.968V106.343H144.41V92.231Z" fill="#EBEBEB"/>
<path d="M252.368 62.101C260.243 62.101 266.626 55.7173 266.626 47.8425C266.626 39.9677 260.243 33.584 252.368 33.584C244.493 33.584 238.109 39.9677 238.109 47.8425C238.109 55.7173 244.493 62.101 252.368 62.101Z" fill="#E0E0E0"/>
<path d="M252.368 59.9687C259.065 59.9687 264.494 54.5394 264.494 47.842C264.494 41.1446 259.065 35.7153 252.368 35.7153C245.67 35.7153 240.241 41.1446 240.241 47.842C240.241 54.5394 245.67 59.9687 252.368 59.9687Z" fill="#F0F0F0"/>
<path d="M251.798 39.5269V48.0031L246.177 44.82" fill="#F0F0F0"/>
<path d="M251.798 48.7333C251.673 48.7314 251.55 48.6988 251.441 48.6384L245.819 45.4552C245.651 45.3601 245.527 45.2022 245.475 45.0161C245.423 44.83 245.447 44.6308 245.542 44.4623C245.589 44.3781 245.652 44.304 245.728 44.2443C245.804 44.1847 245.891 44.1407 245.984 44.1149C246.077 44.0891 246.174 44.082 246.27 44.094C246.366 44.106 246.458 44.1369 246.542 44.1849L251.068 46.7475V39.527C251.068 39.3333 251.145 39.1476 251.282 39.0107C251.419 38.8738 251.605 38.7969 251.798 38.7969C251.992 38.7969 252.178 38.8738 252.315 39.0107C252.452 39.1476 252.528 39.3333 252.528 39.527V48.0032C252.528 48.1969 252.452 48.3826 252.315 48.5195C252.178 48.6564 251.992 48.7333 251.798 48.7333Z" fill="#E0E0E0"/>
<path d="M182.521 272C260.7 272 324.077 268.3 324.077 263.736C324.077 259.171 260.7 255.471 182.521 255.471C104.342 255.471 40.965 259.171 40.965 263.736C40.965 268.3 104.342 272 182.521 272Z" fill="#F5F5F5"/>
<path d="M308.467 53.0625H163.166V190.639H308.467V53.0625Z" fill="#175CD3"/>
<path opacity="0.7" d="M308.467 53.0625H163.166V190.639H308.467V53.0625Z" fill="white"/>
<path d="M308.467 53.0625H163.166V60.064H308.467V53.0625Z" fill="#175CD3"/>
<path opacity="0.2" d="M308.467 60.0713H303.663V190.771H308.467V60.0713Z" fill="black"/>
<path opacity="0.6" d="M306.336 63.167H305.898C305.22 63.167 304.671 63.7161 304.671 64.3935V80.1487C304.671 80.8261 305.22 81.3753 305.898 81.3753H306.336C307.013 81.3753 307.562 80.8261 307.562 80.1487V64.3935C307.562 63.7161 307.013 63.167 306.336 63.167Z" fill="white"/>
<path opacity="0.2" d="M300.488 150.397H166.152C166.056 150.395 165.964 150.356 165.896 150.288C165.828 150.22 165.789 150.128 165.787 150.032C165.787 149.935 165.826 149.842 165.894 149.774C165.963 149.705 166.056 149.667 166.152 149.667H300.488C300.584 149.667 300.677 149.705 300.746 149.774C300.814 149.842 300.853 149.935 300.853 150.032C300.853 150.129 300.814 150.222 300.746 150.29C300.677 150.359 300.584 150.397 300.488 150.397Z" fill="black"/>
<path opacity="0.2" d="M300.488 119.004H166.152C166.056 119.002 165.964 118.963 165.896 118.895C165.828 118.826 165.789 118.735 165.787 118.638C165.787 118.542 165.826 118.449 165.894 118.38C165.963 118.312 166.056 118.273 166.152 118.273H300.488C300.584 118.273 300.677 118.312 300.746 118.38C300.814 118.449 300.853 118.542 300.853 118.638C300.853 118.735 300.814 118.828 300.746 118.897C300.677 118.965 300.584 119.004 300.488 119.004Z" fill="black"/>
<path d="M300.495 63.1592H166.189V83.6964H300.495V63.1592Z" fill="#175CD3"/>
<path opacity="0.6" d="M306.796 56.5671C306.796 56.9151 306.692 57.2553 306.499 57.5446C306.306 57.834 306.031 58.0595 305.709 58.1927C305.388 58.3258 305.034 58.3607 304.693 58.2928C304.351 58.2249 304.038 58.0573 303.792 57.8113C303.546 57.5652 303.378 57.2517 303.31 56.9104C303.242 56.5691 303.277 56.2153 303.41 55.8938C303.544 55.5723 303.769 55.2975 304.059 55.1041C304.348 54.9108 304.688 54.8076 305.036 54.8076C305.503 54.8076 305.95 54.993 306.28 55.323C306.61 55.6529 306.796 56.1005 306.796 56.5671Z" fill="white"/>
<path opacity="0.6" d="M300.59 56.5671C300.59 56.9151 300.487 57.2553 300.293 57.5446C300.1 57.834 299.825 58.0595 299.504 58.1927C299.182 58.3258 298.828 58.3607 298.487 58.2928C298.146 58.2249 297.832 58.0573 297.586 57.8113C297.34 57.5652 297.172 57.2517 297.105 56.9104C297.037 56.5691 297.072 56.2153 297.205 55.8938C297.338 55.5723 297.563 55.2975 297.853 55.1041C298.142 54.9108 298.482 54.8076 298.83 54.8076C299.297 54.8076 299.744 54.993 300.074 55.323C300.404 55.6529 300.59 56.1005 300.59 56.5671Z" fill="white"/>
<path opacity="0.6" d="M294.384 56.5671C294.384 56.9151 294.281 57.2553 294.088 57.5446C293.894 57.834 293.619 58.0595 293.298 58.1927C292.976 58.3258 292.623 58.3607 292.281 58.2928C291.94 58.2249 291.627 58.0573 291.38 57.8113C291.134 57.5652 290.967 57.2517 290.899 56.9104C290.831 56.5691 290.866 56.2153 290.999 55.8938C291.132 55.5723 291.358 55.2975 291.647 55.1041C291.936 54.9108 292.277 54.8076 292.625 54.8076C293.091 54.8076 293.539 54.993 293.869 55.323C294.199 55.6529 294.384 56.1005 294.384 56.5671Z" fill="white"/>
<path opacity="0.4" d="M171.942 97.4515C171.091 97.4515 170.26 97.1993 169.553 96.7267C168.846 96.2542 168.294 95.5826 167.969 94.7969C167.644 94.0111 167.558 93.1465 167.724 92.3123C167.89 91.4782 168.3 90.712 168.901 90.1106C169.503 89.5092 170.269 89.0996 171.103 88.9337C171.937 88.7678 172.802 88.8529 173.587 89.1784C174.373 89.5039 175.045 90.055 175.517 90.7622C175.99 91.4694 176.242 92.3008 176.242 93.1513C176.24 94.2912 175.786 95.3838 174.98 96.1898C174.174 96.9959 173.082 97.4495 171.942 97.4515Z" fill="black"/>
<path d="M172.468 91.5161V94.7796H171.737V92.1221H171.088V91.5161H172.468Z" fill="white"/>
<path opacity="0.4" d="M294.683 88.9829H180.287C179.827 88.9829 179.454 89.3555 179.454 89.8152V90.3336C179.454 90.7932 179.827 91.1659 180.287 91.1659H294.683C295.143 91.1659 295.516 90.7932 295.516 90.3336V89.8152C295.516 89.3555 295.143 88.9829 294.683 88.9829Z" fill="black"/>
<path opacity="0.4" d="M294.683 94.6558H180.287C179.827 94.6558 179.454 95.0284 179.454 95.4881V96.0064C179.454 96.4661 179.827 96.8387 180.287 96.8387H294.683C295.143 96.8387 295.516 96.4661 295.516 96.0064V95.4881C295.516 95.0284 295.143 94.6558 294.683 94.6558Z" fill="black"/>
<path opacity="0.4" d="M255.113 100.321H180.287C179.827 100.321 179.454 100.693 179.454 101.153V101.671C179.454 102.131 179.827 102.504 180.287 102.504H255.113C255.573 102.504 255.945 102.131 255.945 101.671V101.153C255.945 100.693 255.573 100.321 255.113 100.321Z" fill="black"/>
<path opacity="0.2" d="M181.455 113.192C182.556 113.192 183.448 112.3 183.448 111.199C183.448 110.098 182.556 109.206 181.455 109.206C180.354 109.206 179.462 110.098 179.462 111.199C179.462 112.3 180.354 113.192 181.455 113.192Z" fill="black"/>
<path d="M182.827 111.198C182.829 111.472 182.749 111.74 182.598 111.968C182.447 112.196 182.231 112.374 181.979 112.479C181.727 112.584 181.448 112.612 181.18 112.559C180.912 112.506 180.665 112.375 180.472 112.181C180.278 111.988 180.147 111.741 180.094 111.473C180.041 111.205 180.069 110.927 180.174 110.674C180.279 110.422 180.457 110.206 180.685 110.055C180.914 109.904 181.181 109.824 181.455 109.826C181.819 109.826 182.168 109.97 182.425 110.228C182.683 110.485 182.827 110.834 182.827 111.198Z" fill="white"/>
<path opacity="0.4" d="M207.285 110.111H187.967C187.507 110.111 187.135 110.484 187.135 110.944V111.462C187.135 111.922 187.507 112.294 187.967 112.294H207.285C207.745 112.294 208.117 111.922 208.117 111.462V110.944C208.117 110.484 207.745 110.111 207.285 110.111Z" fill="black"/>
<path opacity="0.2" d="M223.946 111.155C223.946 111.549 223.829 111.935 223.61 112.263C223.391 112.59 223.079 112.846 222.715 112.997C222.351 113.147 221.95 113.187 221.564 113.11C221.177 113.033 220.822 112.843 220.543 112.565C220.264 112.286 220.075 111.931 219.998 111.544C219.921 111.157 219.96 110.757 220.111 110.392C220.262 110.028 220.517 109.717 220.845 109.498C221.173 109.279 221.558 109.162 221.953 109.162C222.481 109.162 222.988 109.372 223.362 109.746C223.736 110.12 223.946 110.627 223.946 111.155Z" fill="black"/>
<path d="M223.332 111.155C223.334 111.428 223.254 111.696 223.103 111.924C222.953 112.152 222.738 112.33 222.486 112.435C222.234 112.541 221.956 112.569 221.688 112.517C221.42 112.464 221.173 112.334 220.979 112.141C220.786 111.948 220.654 111.702 220.6 111.434C220.546 111.167 220.573 110.889 220.677 110.636C220.781 110.384 220.958 110.168 221.185 110.016C221.412 109.864 221.679 109.783 221.953 109.783C222.317 109.783 222.667 109.927 222.926 110.184C223.184 110.441 223.33 110.791 223.332 111.155Z" fill="#175CD3"/>
<path opacity="0.4" d="M247.797 110.067H228.472C228.013 110.067 227.64 110.44 227.64 110.9V111.418C227.64 111.878 228.013 112.25 228.472 112.25H247.797C248.257 112.25 248.63 111.878 248.63 111.418V110.9C248.63 110.44 248.257 110.067 247.797 110.067Z" fill="black"/>
<path opacity="0.2" d="M264.451 111.111C264.451 111.505 264.334 111.891 264.115 112.219C263.896 112.546 263.585 112.802 263.22 112.953C262.856 113.104 262.455 113.143 262.069 113.066C261.682 112.989 261.327 112.799 261.048 112.521C260.77 112.242 260.58 111.887 260.503 111.5C260.426 111.113 260.465 110.713 260.616 110.349C260.767 109.984 261.023 109.673 261.35 109.454C261.678 109.235 262.063 109.118 262.458 109.118C262.986 109.118 263.493 109.328 263.867 109.702C264.241 110.076 264.451 110.583 264.451 111.111Z" fill="black"/>
<path d="M263.837 111.111C263.837 111.384 263.756 111.651 263.605 111.878C263.453 112.105 263.238 112.282 262.986 112.386C262.733 112.491 262.456 112.518 262.188 112.465C261.921 112.411 261.675 112.28 261.482 112.087C261.289 111.894 261.157 111.648 261.104 111.38C261.051 111.113 261.078 110.835 261.183 110.583C261.287 110.331 261.464 110.116 261.691 109.964C261.918 109.812 262.185 109.731 262.458 109.731C262.824 109.731 263.174 109.877 263.433 110.136C263.692 110.394 263.837 110.745 263.837 111.111Z" fill="white"/>
<path opacity="0.4" d="M288.295 110.016H268.977C268.518 110.016 268.145 110.389 268.145 110.848V111.367C268.145 111.826 268.518 112.199 268.977 112.199H288.295C288.755 112.199 289.127 111.826 289.127 111.367V110.848C289.127 110.389 288.755 110.016 288.295 110.016Z" fill="black"/>
<path opacity="0.4" d="M171.942 133.824C174.317 133.824 176.242 131.899 176.242 129.524C176.242 127.149 174.317 125.224 171.942 125.224C169.567 125.224 167.642 127.149 167.642 129.524C167.642 131.899 169.567 133.824 171.942 133.824Z" fill="black"/>
<path d="M173.183 130.568V131.182H170.723V130.685L171.978 129.495C172.27 129.218 172.321 129.05 172.321 128.897C172.321 128.743 172.146 128.488 171.796 128.488C171.666 128.483 171.536 128.511 171.419 128.568C171.302 128.625 171.201 128.711 171.124 128.816L170.577 128.459C170.726 128.259 170.922 128.1 171.147 127.994C171.372 127.889 171.62 127.84 171.869 127.853C172.599 127.853 173.081 128.225 173.081 128.816C173.077 129.019 173.025 129.217 172.93 129.396C172.835 129.575 172.699 129.729 172.533 129.846L171.803 130.576L173.183 130.568Z" fill="white"/>
<path opacity="0.4" d="M294.683 125.377H180.287C179.827 125.377 179.454 125.75 179.454 126.21V126.728C179.454 127.188 179.827 127.56 180.287 127.56H294.683C295.143 127.56 295.516 127.188 295.516 126.728V126.21C295.516 125.75 295.143 125.377 294.683 125.377Z" fill="black"/>
<path opacity="0.4" d="M202.029 131.042H180.287C179.827 131.042 179.454 131.415 179.454 131.875V132.393C179.454 132.853 179.827 133.225 180.287 133.225H202.029C202.488 133.225 202.861 132.853 202.861 132.393V131.875C202.861 131.415 202.488 131.042 202.029 131.042Z" fill="black"/>
<path opacity="0.2" d="M181.455 143.827C182.556 143.827 183.448 142.934 183.448 141.833C183.448 140.733 182.556 139.84 181.455 139.84C180.354 139.84 179.462 140.733 179.462 141.833C179.462 142.934 180.354 143.827 181.455 143.827Z" fill="black"/>
<path d="M181.455 143.213C182.217 143.213 182.835 142.595 182.835 141.833C182.835 141.071 182.217 140.453 181.455 140.453C180.693 140.453 180.075 141.071 180.075 141.833C180.075 142.595 180.693 143.213 181.455 143.213Z" fill="white"/>
<path opacity="0.4" d="M207.285 140.745H187.967C187.507 140.745 187.135 141.118 187.135 141.577V142.096C187.135 142.555 187.507 142.928 187.967 142.928H207.285C207.745 142.928 208.117 142.555 208.117 142.096V141.577C208.117 141.118 207.745 140.745 207.285 140.745Z" fill="black"/>
<path opacity="0.2" d="M221.953 143.782C223.053 143.782 223.946 142.89 223.946 141.789C223.946 140.688 223.053 139.796 221.953 139.796C220.852 139.796 219.959 140.688 219.959 141.789C219.959 142.89 220.852 143.782 221.953 143.782Z" fill="black"/>
<path d="M221.953 143.17C222.715 143.17 223.332 142.552 223.332 141.79C223.332 141.028 222.715 140.41 221.953 140.41C221.19 140.41 220.573 141.028 220.573 141.79C220.573 142.552 221.19 143.17 221.953 143.17Z" fill="white"/>
<path opacity="0.4" d="M247.797 140.694H228.472C228.013 140.694 227.64 141.066 227.64 141.526V142.044C227.64 142.504 228.013 142.877 228.472 142.877H247.797C248.257 142.877 248.63 142.504 248.63 142.044V141.526C248.63 141.066 248.257 140.694 247.797 140.694Z" fill="black"/>
<path opacity="0.2" d="M264.451 141.746C264.451 142.14 264.334 142.525 264.115 142.853C263.896 143.181 263.585 143.436 263.22 143.587C262.856 143.738 262.455 143.777 262.069 143.7C261.682 143.623 261.327 143.434 261.048 143.155C260.77 142.876 260.58 142.521 260.503 142.134C260.426 141.748 260.465 141.347 260.616 140.983C260.767 140.619 261.023 140.307 261.35 140.088C261.678 139.869 262.063 139.752 262.458 139.752C262.986 139.752 263.493 139.962 263.867 140.336C264.241 140.71 264.451 141.217 264.451 141.746Z" fill="black"/>
<path d="M263.837 141.746C263.837 142.018 263.756 142.285 263.605 142.512C263.453 142.739 263.238 142.916 262.986 143.02C262.733 143.125 262.456 143.152 262.188 143.099C261.921 143.046 261.675 142.914 261.482 142.721C261.289 142.528 261.157 142.282 261.104 142.015C261.051 141.747 261.078 141.47 261.183 141.218C261.287 140.965 261.464 140.75 261.691 140.598C261.918 140.447 262.185 140.366 262.458 140.366C262.824 140.366 263.174 140.511 263.433 140.77C263.692 141.029 263.837 141.38 263.837 141.746Z" fill="#175CD3"/>
<path opacity="0.4" d="M288.295 140.651H268.977C268.518 140.651 268.145 141.024 268.145 141.483V142.002C268.145 142.461 268.518 142.834 268.977 142.834H288.295C288.755 142.834 289.127 142.461 289.127 142.002V141.483C289.127 141.024 288.755 140.651 288.295 140.651Z" fill="black"/>
<path opacity="0.4" d="M171.942 165.407C171.091 165.407 170.26 165.155 169.553 164.682C168.846 164.21 168.294 163.538 167.969 162.752C167.644 161.967 167.558 161.102 167.724 160.268C167.89 159.434 168.3 158.668 168.901 158.066C169.503 157.465 170.269 157.055 171.103 156.889C171.937 156.723 172.802 156.809 173.587 157.134C174.373 157.459 175.045 158.011 175.517 158.718C175.99 159.425 176.242 160.256 176.242 161.107C176.242 162.247 175.789 163.341 174.983 164.148C174.176 164.954 173.082 165.407 171.942 165.407Z" fill="black"/>
<path d="M173.154 161.714C173.154 162.261 172.73 162.765 171.803 162.765C171.364 162.775 170.931 162.653 170.562 162.414L170.854 161.838C171.126 162.028 171.449 162.13 171.781 162.13C172.161 162.13 172.395 161.976 172.395 161.714C172.395 161.451 172.212 161.312 171.781 161.312H171.438V160.816L172.11 160.085H170.723V159.479H173.03V159.969L172.3 160.808C172.53 160.825 172.745 160.927 172.903 161.094C173.061 161.262 173.151 161.483 173.154 161.714Z" fill="white"/>
<path opacity="0.4" d="M294.683 156.931H180.287C179.827 156.931 179.454 157.304 179.454 157.763V158.282C179.454 158.741 179.827 159.114 180.287 159.114H294.683C295.143 159.114 295.516 158.741 295.516 158.282V157.763C295.516 157.304 295.143 156.931 294.683 156.931Z" fill="black"/>
<path opacity="0.4" d="M294.683 162.597H180.287C179.827 162.597 179.454 162.97 179.454 163.429V163.948C179.454 164.407 179.827 164.78 180.287 164.78H294.683C295.143 164.78 295.516 164.407 295.516 163.948V163.429C295.516 162.97 295.143 162.597 294.683 162.597Z" fill="black"/>
<path opacity="0.4" d="M237.591 168.27H180.287C179.827 168.27 179.454 168.642 179.454 169.102V169.62C179.454 170.08 179.827 170.452 180.287 170.452H237.591C238.051 170.452 238.423 170.08 238.423 169.62V169.102C238.423 168.642 238.051 168.27 237.591 168.27Z" fill="black"/>
<path opacity="0.4" d="M223.654 177.293H220.251C220.09 177.293 219.959 177.424 219.959 177.585V180.987C219.959 181.148 220.09 181.279 220.251 181.279H223.654C223.815 181.279 223.946 181.148 223.946 180.987V177.585C223.946 177.424 223.815 177.293 223.654 177.293Z" fill="black"/>
<path d="M223.471 180.805V177.775H220.441V180.805H223.471Z" fill="white"/>
<path opacity="0.4" d="M247.797 178.199H228.472C228.013 178.199 227.64 178.571 227.64 179.031V179.549C227.64 180.009 228.013 180.382 228.472 180.382H247.797C248.257 180.382 248.63 180.009 248.63 179.549V179.031C248.63 178.571 248.257 178.199 247.797 178.199Z" fill="black"/>
<path d="M221.792 180.162C221.769 180.162 221.746 180.158 221.725 180.149C221.703 180.141 221.684 180.128 221.668 180.111L220.938 179.425C220.904 179.389 220.885 179.342 220.885 179.293C220.885 179.244 220.904 179.197 220.938 179.162C220.955 179.144 220.975 179.13 220.998 179.12C221.02 179.111 221.045 179.106 221.069 179.106C221.094 179.106 221.118 179.111 221.141 179.12C221.163 179.13 221.184 179.144 221.201 179.162L221.821 179.724L222.88 178.468C222.911 178.43 222.955 178.407 223.004 178.402C223.053 178.397 223.101 178.412 223.139 178.443C223.177 178.474 223.201 178.518 223.205 178.567C223.21 178.616 223.195 178.664 223.165 178.702L221.945 180.096C221.913 180.132 221.869 180.155 221.821 180.162H221.792Z" fill="#175CD3"/>
<path opacity="0.4" d="M264.159 177.25H260.757C260.595 177.25 260.464 177.381 260.464 177.542V180.944C260.464 181.106 260.595 181.236 260.757 181.236H264.159C264.32 181.236 264.451 181.106 264.451 180.944V177.542C264.451 177.381 264.32 177.25 264.159 177.25Z" fill="black"/>
<path d="M263.969 180.761V177.731H260.939V180.761H263.969Z" fill="white"/>
<path opacity="0.4" d="M288.295 178.147H268.977C268.518 178.147 268.145 178.52 268.145 178.98V179.498C268.145 179.958 268.518 180.33 268.977 180.33H288.295C288.755 180.33 289.127 179.958 289.127 179.498V178.98C289.127 178.52 288.755 178.147 288.295 178.147Z" fill="black"/>
<path d="M262.297 180.119C262.251 180.116 262.207 180.098 262.173 180.067L261.443 179.374C261.421 179.359 261.404 179.339 261.391 179.317C261.378 179.294 261.369 179.269 261.367 179.243C261.364 179.217 261.367 179.191 261.376 179.166C261.384 179.141 261.398 179.119 261.416 179.1C261.434 179.081 261.456 179.066 261.48 179.056C261.504 179.046 261.53 179.042 261.556 179.043C261.582 179.044 261.608 179.05 261.631 179.062C261.654 179.074 261.675 179.091 261.691 179.111L262.304 179.673L263.37 178.417C263.384 178.396 263.403 178.378 263.425 178.364C263.446 178.35 263.471 178.341 263.496 178.338C263.522 178.334 263.548 178.336 263.572 178.343C263.597 178.35 263.62 178.362 263.64 178.379C263.659 178.395 263.675 178.416 263.687 178.439C263.698 178.462 263.704 178.488 263.705 178.513C263.705 178.539 263.701 178.564 263.691 178.588C263.681 178.612 263.666 178.633 263.648 178.651L262.465 180.053C262.43 180.089 262.383 180.112 262.333 180.119H262.297Z" fill="#175CD3"/>
<path opacity="0.4" d="M183.149 177.337H179.746C179.585 177.337 179.454 177.468 179.454 177.629V181.031C179.454 181.192 179.585 181.323 179.746 181.323H183.149C183.31 181.323 183.441 181.192 183.441 181.031V177.629C183.441 177.468 183.31 177.337 183.149 177.337Z" fill="black"/>
<path d="M182.966 180.849V177.819H179.936V180.849H182.966Z" fill="white"/>
<path opacity="0.4" d="M207.285 178.242H187.967C187.507 178.242 187.135 178.615 187.135 179.074V179.593C187.135 180.052 187.507 180.425 187.967 180.425H207.285C207.745 180.425 208.117 180.052 208.117 179.593V179.074C208.117 178.615 207.745 178.242 207.285 178.242Z" fill="black"/>
<path d="M172.628 72.7747C172.596 72.2156 172.732 71.6598 173.02 71.1791C173.307 70.6985 173.732 70.3152 174.24 70.079C174.748 69.8427 175.315 69.7643 175.867 69.8539C176.42 69.9436 176.933 70.1972 177.34 70.5818C177.747 70.9664 178.029 71.4644 178.15 72.0112C178.271 72.5581 178.225 73.1286 178.017 73.6488C177.81 74.1691 177.452 74.6151 176.988 74.9292C176.524 75.2432 175.977 75.4108 175.417 75.4103C175.058 75.4312 174.699 75.3785 174.361 75.2555C174.024 75.1324 173.715 74.9416 173.453 74.6947C173.192 74.4479 172.984 74.1502 172.842 73.82C172.7 73.4898 172.628 73.1341 172.628 72.7747ZM177.009 72.7747C177.003 72.4598 176.904 72.1536 176.725 71.8945C176.546 71.6355 176.294 71.4351 176.002 71.3185C175.709 71.202 175.389 71.1744 175.08 71.2394C174.772 71.3044 174.49 71.4589 174.269 71.6836C174.049 71.9083 173.899 72.1932 173.84 72.5026C173.78 72.8119 173.814 73.1319 173.936 73.4223C174.057 73.7128 174.262 73.9608 174.525 74.1352C174.787 74.3097 175.095 74.4027 175.41 74.4028C175.624 74.409 175.838 74.371 176.037 74.2911C176.236 74.2112 176.417 74.0911 176.567 73.9383C176.718 73.7856 176.836 73.6034 176.913 73.4032C176.99 73.203 177.025 72.9891 177.016 72.7747H177.009Z" fill="white"/>
<path d="M183.017 73.0813V75.3227H181.886V73.2565C181.886 72.6214 181.594 72.3293 181.09 72.3293C180.586 72.3293 180.148 72.6652 180.148 73.3879V75.3227H179.016V71.4021H180.097V71.8621C180.265 71.6896 180.468 71.5543 180.692 71.4651C180.916 71.3758 181.156 71.3344 181.396 71.3437C181.623 71.3286 181.851 71.3642 182.062 71.4479C182.274 71.5316 182.464 71.6614 182.619 71.8277C182.775 71.9941 182.891 72.1929 182.96 72.4097C183.028 72.6265 183.048 72.8559 183.017 73.0813Z" fill="white"/>
<path d="M184.047 69.9199H185.178V75.3225H184.047V69.9199Z" fill="white"/>
<path d="M186.098 70.2268C186.099 70.1355 186.12 70.0455 186.159 69.9627C186.197 69.8799 186.252 69.8061 186.321 69.7462C186.39 69.6863 186.471 69.6415 186.558 69.6149C186.646 69.5883 186.738 69.5803 186.828 69.5916C186.917 69.5781 187.008 69.5838 187.095 69.6082C187.182 69.6326 187.263 69.6753 187.332 69.7333C187.401 69.7913 187.457 69.8634 187.496 69.9447C187.535 70.026 187.556 70.1147 187.558 70.2049C187.516 70.3596 187.425 70.4961 187.297 70.5934C187.17 70.6908 187.014 70.7435 186.854 70.7435C186.694 70.7435 186.538 70.6908 186.41 70.5934C186.283 70.4961 186.191 70.3596 186.149 70.2049L186.098 70.2268ZM186.237 71.4022H187.376V75.3228H186.237V71.4022Z" fill="white"/>
<path d="M192.435 73.0813V75.3226H191.282V73.2565C191.282 72.6213 190.99 72.3293 190.486 72.3293C189.982 72.3293 189.551 72.6651 189.551 73.3879V75.3226H188.413V71.4021H189.5V71.862C189.667 71.6894 189.868 71.5539 190.091 71.4646C190.314 71.3753 190.553 71.3341 190.793 71.3437C191.021 71.3265 191.25 71.3605 191.464 71.4432C191.678 71.5258 191.87 71.6551 192.027 71.8216C192.185 71.988 192.303 72.1874 192.374 72.4054C192.444 72.6233 192.465 72.8542 192.435 73.0813Z" fill="white"/>
<path d="M197.319 73.6868H194.355C194.416 73.93 194.562 74.1432 194.767 74.2868C194.973 74.4304 195.223 74.4948 195.472 74.468C195.653 74.4747 195.834 74.4453 196.003 74.3813C196.172 74.3174 196.327 74.2203 196.458 74.0957L197.064 74.7455C196.857 74.9633 196.604 75.133 196.324 75.2428C196.044 75.3525 195.743 75.3996 195.443 75.3806C195.161 75.408 194.877 75.3764 194.608 75.2878C194.339 75.1991 194.092 75.0554 193.882 74.8658C193.672 74.6762 193.503 74.4449 193.387 74.1866C193.272 73.9283 193.211 73.6487 193.209 73.3656C193.206 73.0929 193.258 72.8224 193.363 72.5707C193.469 72.319 193.624 72.0915 193.82 71.9021C194.016 71.7127 194.249 71.5654 194.505 71.4693C194.76 71.3732 195.032 71.3303 195.304 71.3433C195.576 71.3297 195.846 71.373 196.1 71.4706C196.353 71.5681 196.583 71.7177 196.775 71.9096C196.967 72.1016 197.117 72.3316 197.214 72.5849C197.312 72.8382 197.355 73.1091 197.341 73.3802C197.341 73.4678 197.327 73.5919 197.319 73.6868ZM194.341 73.0225H196.268C196.229 72.7956 196.11 72.5901 195.934 72.4419C195.758 72.2938 195.535 72.2125 195.304 72.2125C195.074 72.2125 194.851 72.2938 194.675 72.4419C194.499 72.5901 194.38 72.7956 194.341 73.0225Z" fill="white"/>
<path d="M201.291 71.183H199.663V70.2266H204.102V71.183H202.474V75.3225H201.291V71.183Z" fill="white"/>
<path d="M208.074 73.6872H205.11C205.17 73.9304 205.316 74.1436 205.522 74.2872C205.727 74.4308 205.977 74.4952 206.227 74.4684C206.407 74.4751 206.588 74.4457 206.757 74.3817C206.926 74.3178 207.081 74.2207 207.212 74.0961L207.818 74.7458C207.611 74.9637 207.358 75.1334 207.078 75.2431C206.798 75.3529 206.498 75.3999 206.197 75.381C205.916 75.4084 205.631 75.3768 205.362 75.2881C205.094 75.1995 204.846 75.0558 204.636 74.8662C204.426 74.6766 204.257 74.4453 204.142 74.187C204.026 73.9287 203.965 73.6491 203.963 73.366C203.96 73.0939 204.012 72.824 204.117 72.5729C204.222 72.3217 204.376 72.0945 204.572 71.9052C204.767 71.7159 204.999 71.5685 205.254 71.4719C205.508 71.3754 205.78 71.3317 206.051 71.3436C206.323 71.329 206.595 71.3716 206.849 71.4686C207.103 71.5657 207.334 71.7151 207.527 71.9072C207.72 72.0992 207.87 72.3296 207.968 72.5834C208.066 72.8373 208.109 73.1088 208.096 73.3806C208.074 73.4682 208.074 73.5923 208.074 73.6872ZM205.095 73.0228H207.022C206.983 72.796 206.864 72.5904 206.688 72.4423C206.512 72.2941 206.289 72.2129 206.059 72.2129C205.828 72.2129 205.606 72.2941 205.429 72.4423C205.253 72.5904 205.135 72.796 205.095 73.0228Z" fill="white"/>
<path d="M208.468 74.9583L208.848 74.1479C209.263 74.3885 209.733 74.5169 210.213 74.5202C210.738 74.5202 210.943 74.3815 210.943 74.1698C210.943 73.5273 208.57 74.1698 208.57 72.6147C208.57 71.8846 209.242 71.3443 210.388 71.3443C210.91 71.3343 211.426 71.4521 211.892 71.6875L211.512 72.4979C211.171 72.3011 210.782 72.2002 210.388 72.2058C209.877 72.2058 209.658 72.3665 209.658 72.5709C209.658 73.2426 212.023 72.5709 212.023 74.1406C212.023 74.8706 211.344 75.3817 210.176 75.3817C209.579 75.3942 208.99 75.2481 208.468 74.9583Z" fill="white"/>
<path d="M215.243 75.1328C214.966 75.3068 214.643 75.3933 214.316 75.381C214.123 75.4086 213.926 75.3918 213.74 75.3321C213.555 75.2723 213.385 75.171 213.244 75.0359C213.104 74.9008 212.995 74.7355 212.928 74.5524C212.861 74.3693 212.836 74.1733 212.856 73.9792V72.3657H212.25V71.4896H212.856V70.5405H213.987V71.4896H214.966V72.3657H213.987V73.9646C213.978 74.032 213.985 74.1005 214.006 74.1651C214.027 74.2297 214.062 74.2887 214.109 74.3378C214.156 74.3869 214.213 74.4248 214.277 74.4487C214.341 74.4725 214.409 74.4818 214.477 74.4757C214.642 74.4778 214.803 74.4266 214.936 74.3297L215.243 75.1328Z" fill="white"/>
<path d="M292.679 77.6036C294.94 75.3426 294.94 71.6769 292.679 69.4159C290.418 67.155 286.753 67.155 284.492 69.4159C282.231 71.6769 282.231 75.3426 284.492 77.6036C286.753 79.8646 290.418 79.8646 292.679 77.6036Z" fill="white"/>
<path opacity="0.2" d="M293.712 70.8177L288.602 73.519V67.7295C289.654 67.7313 290.686 68.0198 291.586 68.5639C292.486 69.108 293.222 69.8872 293.712 70.8177Z" fill="black"/>
<path d="M277.716 251.718C277.716 251.718 280.87 236.802 275.124 228.727C269.379 220.653 280.315 228.632 281.578 236.196C281.578 236.196 283.462 222.675 277.884 213.169C272.306 203.664 282.739 211.461 283.63 221.266C283.63 221.266 285.338 209.205 282.776 202.422C280.213 195.64 284.667 200.006 286.382 204.255C288.098 208.504 285.849 219.025 285.849 219.025C285.849 219.025 290.317 199.568 294.552 201.116C298.786 202.663 288.222 215.411 286.762 222.04C286.762 222.04 291.748 213.118 295.523 214.98C299.297 216.842 289.682 217.762 285.243 231.042L283.703 237.277C283.703 237.277 288.295 228.472 291.296 231.253C294.296 234.035 282.396 238.824 279.614 252.17L277.716 251.718Z" fill="#263238"/>
<path d="M278.337 252.609C278.337 252.609 278.994 233.809 288.288 225.851C297.582 217.894 282.097 224.194 278.337 232.875C278.337 232.875 280.104 216.119 289.609 206.387C299.115 196.655 284.302 202.905 280.323 214.375C280.323 214.375 281.87 199.422 286.959 192.071C292.048 184.719 285.411 188.603 282.097 193.18C278.782 197.758 278.337 210.994 278.337 210.994C278.337 210.994 278.775 186.361 273.226 186.96C267.678 187.559 276.541 205.942 276.322 214.338C276.322 214.338 273 202.168 267.919 203.263C262.837 204.358 274.11 208.373 275.438 225.589V233.525C275.438 233.525 272.562 221.61 268.138 224.034C263.713 226.457 276.541 235.759 275.876 252.565L278.337 252.609Z" fill="#263238"/>
<path opacity="0.2" d="M278.337 252.609C278.337 252.609 278.994 233.809 288.288 225.851C297.582 217.894 282.097 224.194 278.337 232.875C278.337 232.875 280.104 216.119 289.609 206.387C299.115 196.655 284.302 202.905 280.323 214.375C280.323 214.375 281.87 199.422 286.959 192.071C292.048 184.719 285.411 188.603 282.097 193.18C278.782 197.758 278.337 210.994 278.337 210.994C278.337 210.994 278.775 186.361 273.226 186.96C267.678 187.559 276.541 205.942 276.322 214.338C276.322 214.338 273 202.168 267.919 203.263C262.837 204.358 274.11 208.373 275.438 225.589V233.525C275.438 233.525 272.562 221.61 268.138 224.034C263.713 226.457 276.541 235.759 275.876 252.565L278.337 252.609Z" fill="white"/>
<path d="M282.922 265.816H271.664C269.534 265.816 267.491 264.97 265.985 263.464C264.479 261.958 263.633 259.915 263.633 257.785V256.274H290.945V257.785C290.945 259.914 290.1 261.955 288.596 263.461C287.091 264.967 285.05 265.814 282.922 265.816Z" fill="#175CD3"/>
<path d="M263.137 259.303H291.449C293.147 259.303 294.523 257.927 294.523 256.23V253.835C294.523 252.137 293.147 250.761 291.449 250.761H263.137C261.439 250.761 260.063 252.137 260.063 253.835V256.23C260.063 257.927 261.439 259.303 263.137 259.303Z" fill="#175CD3"/>
<path opacity="0.2" d="M263.137 259.303H291.449C293.147 259.303 294.523 257.927 294.523 256.23V253.835C294.523 252.137 293.147 250.761 291.449 250.761H263.137C261.439 250.761 260.063 252.137 260.063 253.835V256.23C260.063 257.927 261.439 259.303 263.137 259.303Z" fill="white"/>
<path d="M125.363 163.151C125.261 163.362 125.216 163.597 125.235 163.83C125.253 164.064 125.333 164.288 125.467 164.481C125.601 164.673 125.783 164.827 125.996 164.925C126.208 165.024 126.443 165.064 126.677 165.042H161.253C161.828 165.015 162.383 164.821 162.85 164.486C163.318 164.15 163.679 163.687 163.889 163.151L171.19 142.052C171.263 141.856 171.3 141.648 171.299 141.439C171.298 141.259 171.26 141.081 171.186 140.916C171.112 140.752 171.004 140.605 170.87 140.485C170.736 140.364 170.578 140.274 170.407 140.218C170.236 140.162 170.055 140.143 169.876 140.161H135.321C134.746 140.189 134.192 140.382 133.724 140.717C133.256 141.053 132.896 141.516 132.685 142.052L125.363 163.151Z" fill="#263238"/>
<path d="M161.516 163.984C161.798 163.971 162.07 163.877 162.3 163.712C162.529 163.547 162.706 163.32 162.809 163.057L170.109 141.958C170.14 141.873 170.155 141.784 170.153 141.695C170.153 141.403 169.941 141.22 169.606 141.22H135.065C134.783 141.233 134.511 141.328 134.282 141.492C134.053 141.657 133.876 141.885 133.773 142.147L126.472 163.247C126.435 163.332 126.419 163.425 126.425 163.518C126.432 163.611 126.46 163.7 126.509 163.78C126.563 163.85 126.635 163.906 126.716 163.942C126.798 163.977 126.887 163.992 126.976 163.984H161.516Z" fill="#175CD3"/>
<path opacity="0.8" d="M161.516 163.984C161.798 163.971 162.07 163.877 162.3 163.712C162.529 163.547 162.706 163.32 162.809 163.057L170.109 141.958C170.14 141.873 170.155 141.784 170.153 141.695C170.153 141.403 169.941 141.22 169.606 141.22H135.065C134.783 141.233 134.511 141.328 134.282 141.492C134.053 141.657 133.876 141.885 133.773 142.147L126.472 163.247C126.435 163.332 126.419 163.425 126.425 163.518C126.432 163.611 126.46 163.7 126.509 163.78C126.563 163.85 126.635 163.906 126.716 163.942C126.798 163.977 126.887 163.992 126.976 163.984H161.516Z" fill="white"/>
<path d="M110.564 163.479V164.45L117.412 166.21H161.093C161.416 166.21 161.726 166.082 161.955 165.853C162.184 165.624 162.312 165.314 162.312 164.991V163.479H110.564Z" fill="#263238"/>
<path opacity="0.2" d="M147.112 163.479V164.45L153.967 166.21H117.412L110.564 164.45V163.479H147.112Z" fill="white"/>
<g opacity="0.2">
<path d="M167.934 146.177H132.985L134.343 142.366H169.292L167.934 146.177Z" fill="#175CD3"/>
</g>
<g opacity="0.1">
<path d="M166.182 151.083H131.232C131.13 151.083 131.079 151.002 131.116 150.893C131.136 150.841 131.169 150.797 131.213 150.763C131.257 150.73 131.309 150.709 131.364 150.703H166.32C166.415 150.703 166.466 150.791 166.43 150.893C166.412 150.946 166.379 150.992 166.335 151.026C166.291 151.06 166.237 151.08 166.182 151.083Z" fill="black"/>
</g>
<g opacity="0.1">
<path d="M164.269 156.434H129.32C129.217 156.434 129.166 156.347 129.203 156.245C129.223 156.192 129.258 156.146 129.303 156.113C129.348 156.079 129.402 156.059 129.458 156.055H164.407C164.51 156.055 164.561 156.135 164.524 156.245C164.504 156.297 164.469 156.343 164.424 156.376C164.379 156.41 164.325 156.43 164.269 156.434Z" fill="black"/>
</g>
<g opacity="0.1">
<path d="M162.363 161.786H127.414C127.312 161.786 127.261 161.699 127.297 161.597C127.314 161.543 127.347 161.495 127.391 161.46C127.436 161.425 127.489 161.404 127.546 161.399H162.495C162.597 161.399 162.648 161.487 162.611 161.597C162.592 161.648 162.559 161.694 162.515 161.727C162.471 161.761 162.418 161.781 162.363 161.786Z" fill="black"/>
</g>
<path d="M150.74 265.728H154.544L161.385 170.496H156.333L150.74 265.728Z" fill="#263238"/>
<path opacity="0.2" d="M150.733 265.728H154.544L161.049 175.227L161.385 170.649H156.333L156.063 175.227L150.733 265.728Z" fill="white"/>
<path opacity="0.2" d="M156.063 175.001H161.049L161.385 170.649H156.333L156.063 175.001Z" fill="black"/>
<path d="M122.8 265.728H126.604L127.224 170.496H122.179L122.8 265.728Z" fill="#263238"/>
<path opacity="0.3" d="M122.172 170.649L122.274 186.01L122.793 265.728H126.604L127.129 186.01L127.224 170.649H122.172Z" fill="white"/>
<path opacity="0.2" d="M122.172 170.649L122.274 186.186H127.129L127.224 170.649H122.172Z" fill="black"/>
<path d="M82.3826 265.728H86.1863L93.0272 170.496H87.975L82.3826 265.728Z" fill="#263238"/>
<path opacity="0.3" d="M82.3826 265.728H86.1863L92.6987 175.227L93.0272 170.649H87.975L87.7049 175.227L82.3826 265.728Z" fill="white"/>
<path opacity="0.2" d="M87.7049 175.001H92.6986L93.0272 170.649H87.975L87.7049 175.001Z" fill="black"/>
<path d="M194.29 265.728H198.093L192.501 170.496H187.449L194.29 265.728Z" fill="#263238"/>
<path opacity="0.3" d="M187.449 170.649L187.785 175.227L194.29 265.728H198.093L192.771 175.227L192.501 170.649H187.449Z" fill="white"/>
<path opacity="0.2" d="M192.501 170.649H187.449L187.785 175.001H192.771L192.501 170.649Z" fill="black"/>
<path d="M194.925 172.883H85.5439C85.3368 172.883 85.1317 172.842 84.9404 172.763C84.749 172.684 84.5752 172.568 84.4288 172.421C84.2823 172.275 84.1662 172.101 84.0869 171.91C84.0077 171.718 83.9669 171.513 83.9669 171.306V168.116H196.516V171.306C196.516 171.515 196.475 171.721 196.395 171.913C196.315 172.105 196.197 172.28 196.049 172.427C195.901 172.573 195.726 172.689 195.533 172.767C195.34 172.846 195.133 172.885 194.925 172.883Z" fill="#175CD3"/>
<path opacity="0.2" d="M83.9741 170.496H196.502V168.109H83.9741V170.496Z" fill="black"/>
<path d="M81.616 168.729H198.86C199.216 168.729 199.558 168.588 199.81 168.336C200.062 168.084 200.203 167.742 200.203 167.386C200.203 167.03 200.062 166.688 199.81 166.436C199.558 166.184 199.216 166.042 198.86 166.042H81.616C81.2598 166.042 80.9181 166.184 80.6661 166.436C80.4142 166.688 80.2727 167.03 80.2727 167.386C80.2727 167.742 80.4142 168.084 80.6661 168.336C80.9181 168.588 81.2598 168.729 81.616 168.729Z" fill="#175CD3"/>
<path d="M195.115 162.662C195.166 163.822 194.954 164.977 194.494 166.043H167.78V165.408H168.321V159.888H167.78V159.253H194.494C194.951 160.329 195.163 161.494 195.115 162.662Z" fill="#263238"/>
<path opacity="0.2" d="M195.115 162.662C195.166 163.822 194.954 164.977 194.494 166.043H167.78V165.408H168.321V159.888H167.78V159.253H194.494C194.951 160.329 195.163 161.494 195.115 162.662Z" fill="white"/>
<path opacity="0.2" d="M180.82 162.662C180.871 163.822 180.659 164.977 180.199 166.043H167.788V165.408H168.328V159.888H167.788V159.253H180.199C180.656 160.329 180.868 161.494 180.82 162.662Z" fill="black"/>
<path opacity="0.8" d="M179.505 162.662C179.548 163.604 179.375 164.543 179.002 165.408H168.321V159.888H179.002C179.373 160.764 179.545 161.712 179.505 162.662Z" fill="white"/>
<path opacity="0.6" d="M190.763 162.662C190.815 163.822 190.603 164.977 190.143 166.043H185.171C185.631 164.977 185.843 163.822 185.792 162.662C185.837 161.501 185.625 160.345 185.171 159.275H190.143C190.597 160.345 190.809 161.501 190.763 162.662Z" fill="white"/>
<path d="M197.495 155.894C197.546 157.053 197.334 158.209 196.874 159.274H170.16V158.639H170.701V153.142H170.16V152.506H196.874C197.327 153.576 197.539 154.733 197.495 155.894Z" fill="#175CD3"/>
<path opacity="0.2" d="M183.2 155.894C183.251 157.053 183.039 158.209 182.579 159.274H170.168V158.639H170.708V153.142H170.168V152.506H182.579C183.032 153.576 183.244 154.733 183.2 155.894Z" fill="black"/>
<path opacity="0.8" d="M181.886 155.895C181.928 156.836 181.755 157.775 181.382 158.64H170.701V153.143H181.382C181.749 154.012 181.921 154.952 181.886 155.895Z" fill="white"/>
<path opacity="0.2" d="M193.143 155.894C193.195 157.053 192.983 158.209 192.523 159.274H187.551C188.011 158.209 188.223 157.053 188.172 155.894C188.215 154.733 188.004 153.576 187.551 152.506H192.523C192.975 153.576 193.187 154.733 193.143 155.894Z" fill="black"/>
<path d="M107.87 249.448L105.519 260.326L99.9484 260.231L102.277 249.448H107.87Z" fill="#EBB376"/>
<path opacity="0.2" d="M107.877 249.448L106.709 254.828L101.19 254.456L102.277 249.448H107.877Z" fill="black"/>
<path d="M106.358 260.048H106.475C106.475 260.048 106.599 260.092 106.614 260.107C106.621 260.11 106.628 260.112 106.636 260.112C106.643 260.112 106.651 260.11 106.658 260.107C107.132 260.259 107.622 260.357 108.118 260.399C108.485 260.466 108.864 260.39 109.177 260.187C109.279 260.099 109.354 259.983 109.39 259.853C109.427 259.723 109.423 259.585 109.381 259.457C109.371 259.374 109.34 259.294 109.292 259.225C109.243 259.156 109.179 259.101 109.104 259.063C108.57 258.975 108.023 259.075 107.556 259.347C107.886 259.004 108.081 258.553 108.103 258.077C108.083 257.965 108.026 257.863 107.942 257.786C107.857 257.71 107.75 257.663 107.636 257.654C107.528 257.634 107.417 257.637 107.311 257.662C107.204 257.688 107.104 257.734 107.016 257.8C106.431 258.303 106.337 259.88 106.337 259.99L106.358 260.048ZM106.957 259.727L106.848 259.793C106.813 259.19 106.977 258.592 107.315 258.092C107.353 258.056 107.397 258.028 107.446 258.01C107.495 257.993 107.548 257.986 107.6 257.989H107.665C107.848 257.989 107.892 258.114 107.892 258.194C107.772 258.8 107.441 259.343 106.957 259.727ZM107.037 260.005C107.709 259.632 108.666 259.231 109.023 259.391C109.059 259.409 109.09 259.436 109.113 259.469C109.136 259.503 109.15 259.541 109.155 259.581C109.175 259.662 109.174 259.747 109.152 259.827C109.131 259.908 109.089 259.981 109.031 260.041C108.782 260.275 108.052 260.26 107.037 260.005Z" fill="#175CD3"/>
<path d="M106.227 259.369L99.9849 258.982C99.9331 258.976 99.8806 258.98 99.8304 258.995C99.7802 259.009 99.7334 259.033 99.6927 259.066C99.6519 259.098 99.618 259.139 99.593 259.185C99.568 259.23 99.5523 259.281 99.5469 259.333L98.9336 264.261C98.9194 264.519 99.0069 264.773 99.1775 264.968C99.348 265.163 99.5879 265.284 99.8462 265.305C102.036 265.4 103.073 265.341 105.818 265.487C108.257 265.747 110.712 265.834 113.163 265.75C115.492 265.524 115.207 263.224 114.2 263.114C111.82 262.844 108.666 261.092 107.169 259.763C106.907 259.532 106.576 259.393 106.227 259.369Z" fill="#263238"/>
<path d="M140.483 249.448L138.132 260.326L132.554 260.231L134.89 249.448H140.483Z" fill="#EBB376"/>
<path opacity="0.2" d="M140.483 249.448L139.314 254.828L133.795 254.456L134.883 249.448H140.483Z" fill="black"/>
<path d="M138.964 260.048H139.081C139.081 260.048 139.205 260.092 139.227 260.107C139.234 260.11 139.241 260.112 139.249 260.112C139.256 260.112 139.264 260.11 139.271 260.107C139.745 260.258 140.235 260.356 140.731 260.399C141.1 260.468 141.482 260.392 141.797 260.187C141.898 260.099 141.971 259.982 142.006 259.852C142.041 259.722 142.037 259.585 141.994 259.457C141.986 259.373 141.956 259.292 141.907 259.223C141.858 259.154 141.793 259.099 141.716 259.063C141.183 258.975 140.636 259.075 140.169 259.348C140.498 259.003 140.695 258.553 140.724 258.077C140.7 257.965 140.642 257.863 140.556 257.787C140.471 257.711 140.363 257.664 140.249 257.654C140.141 257.635 140.03 257.638 139.924 257.663C139.817 257.688 139.717 257.735 139.628 257.8C139.044 258.303 138.949 259.88 138.949 259.99L138.964 260.048ZM139.563 259.727L139.453 259.793C139.422 259.19 139.586 258.594 139.92 258.092C139.958 258.056 140.003 258.029 140.052 258.011C140.101 257.993 140.153 257.986 140.205 257.99H140.271C140.453 257.99 140.497 258.114 140.505 258.194C140.378 258.799 140.045 259.341 139.563 259.727ZM139.643 260.005C140.315 259.632 141.271 259.231 141.629 259.391C141.665 259.409 141.696 259.436 141.719 259.469C141.742 259.503 141.756 259.541 141.76 259.581C141.781 259.661 141.782 259.746 141.761 259.826C141.741 259.907 141.7 259.981 141.643 260.041C141.359 260.275 140.629 260.26 139.643 260.005Z" fill="#175CD3"/>
<path d="M138.833 259.369L132.59 258.982C132.539 258.976 132.486 258.98 132.436 258.995C132.386 259.009 132.339 259.033 132.298 259.066C132.257 259.098 132.224 259.139 132.199 259.185C132.173 259.23 132.158 259.281 132.152 259.333L131.539 264.261C131.525 264.519 131.612 264.773 131.783 264.968C131.953 265.163 132.193 265.284 132.452 265.305C134.642 265.4 135.679 265.341 138.424 265.487C140.861 265.739 143.313 265.82 145.761 265.728C148.09 265.502 147.805 263.202 146.805 263.093C144.418 262.822 141.264 261.07 139.774 259.741C139.51 259.518 139.179 259.387 138.833 259.369Z" fill="#263238"/>
<path d="M117.865 228.742C115.743 236.925 113.03 244.943 109.746 252.733L99.5687 251.959C99.5687 251.959 103.745 235.649 105.256 220.711C106.191 211.49 106.11 203.861 103.409 203.269C101.708 202.89 97.7362 202.904 92.6402 203.021V184.039C106.935 186.959 121.157 192.508 122.238 196.947C123.749 203.204 121.106 216.433 117.865 228.742Z" fill="#175CD3"/>
<path opacity="0.4" d="M117.865 228.742C115.743 236.925 113.03 244.943 109.746 252.733L99.5687 251.959C99.5687 251.959 103.745 235.649 105.256 220.711C106.191 211.49 106.11 203.861 103.409 203.269C101.708 202.89 97.7362 202.904 92.6402 203.021V184.039C106.935 186.959 121.157 192.508 122.238 196.947C123.749 203.204 121.106 216.433 117.865 228.742Z" fill="white"/>
<path opacity="0.2" d="M117.865 228.742C114.068 226.333 109.622 223.507 105.256 220.711C106.191 211.49 106.11 203.861 103.409 203.269C101.708 202.89 97.7362 202.904 92.6402 203.021V184.039C106.935 186.959 121.157 192.508 122.238 196.947C123.749 203.204 121.106 216.433 117.865 228.742Z" fill="black"/>
<path d="M112.301 182.177L113.199 174.971L84.0691 170.175C84.0691 170.175 74.5415 189.091 79.2067 198.305C83.4777 206.788 129.006 201.736 136.014 203.262C143.023 204.788 132.145 251.951 132.145 251.951L142.366 252.733C142.366 252.733 158.092 210.3 154.858 196.954C153.434 191.135 129.429 183.426 112.301 182.177Z" fill="#175CD3"/>
<path opacity="0.6" d="M112.301 182.177L113.199 174.971L84.0691 170.175C84.0691 170.175 74.5415 189.091 79.2067 198.305C83.4777 206.788 129.006 201.736 136.014 203.262C143.023 204.788 132.145 251.951 132.145 251.951L142.366 252.733C142.366 252.733 158.092 210.3 154.858 196.954C153.434 191.135 129.429 183.426 112.301 182.177Z" fill="white"/>
<path d="M128.327 123.559C128.078 123.99 128.108 124.479 128.392 124.639C128.677 124.8 129.122 124.581 129.349 124.143C129.575 123.705 129.568 123.23 129.29 123.062C129.013 122.894 128.597 123.143 128.327 123.559Z" fill="#263238"/>
<path d="M127.867 121.23C127.807 121.2 127.756 121.155 127.721 121.098C127.693 121.026 127.693 120.947 127.722 120.875C127.75 120.803 127.804 120.745 127.874 120.711C128.299 120.518 128.764 120.428 129.23 120.451C129.696 120.474 130.15 120.608 130.553 120.843C130.617 120.883 130.663 120.947 130.68 121.021C130.698 121.094 130.687 121.172 130.648 121.237C130.604 121.301 130.536 121.345 130.46 121.36C130.384 121.375 130.305 121.36 130.239 121.317C129.919 121.138 129.561 121.037 129.194 121.023C128.827 121.009 128.462 121.082 128.13 121.237C128.088 121.256 128.043 121.266 127.997 121.265C127.952 121.263 127.907 121.251 127.867 121.23Z" fill="#263238"/>
<path d="M128.736 123.005C128.496 124.628 128.479 126.276 128.684 127.904C128.266 127.943 127.844 127.892 127.447 127.753C127.05 127.615 126.688 127.392 126.385 127.101L128.736 123.005Z" fill="#DE5753"/>
<path d="M126.122 129.109C125.947 129.32 125.771 129.525 125.582 129.714C124.517 130.831 123.136 131.596 121.625 131.905C121.242 131.984 120.854 132.036 120.464 132.058C119.439 132.126 118.411 131.965 117.457 131.586C116.502 131.208 115.643 130.62 114.944 129.868C114.317 129.182 113.833 128.378 113.521 127.502C112.163 123.852 113.521 120.932 115.499 115.887C115.936 114.694 116.67 113.633 117.632 112.805C118.595 111.977 119.753 111.409 120.998 111.155C122.242 110.901 123.53 110.969 124.74 111.354C125.95 111.739 127.042 112.427 127.911 113.353C131.868 117.486 129.225 125.144 126.122 129.109Z" fill="#E4897B"/>
<path opacity="0.2" d="M121.625 131.89C121.242 131.969 120.854 132.021 120.464 132.043C119.439 132.111 118.411 131.95 117.457 131.571C116.502 131.193 115.643 130.605 114.944 129.853C115.435 129.359 115.987 128.93 116.587 128.575C118.548 129.177 120.296 130.327 121.625 131.89Z" fill="black"/>
<path d="M105.176 132.079C105.672 135.657 113.484 136.993 113.484 136.993C113.484 136.993 117.339 138.745 117.5 137.219C115.901 135.372 115.726 133.759 116.28 132.35C116.647 131.495 117.18 130.723 117.85 130.079C118.21 129.708 118.591 129.357 118.989 129.028L116.602 119.245C114.886 122.961 109.016 131.554 105.176 132.079Z" fill="#E4897B"/>
<path d="M127.465 110.549C127.465 110.549 129.137 110.338 130.386 113.47C131.466 116.091 128.925 116.66 129.035 119.449C129.144 122.238 126.604 123.779 126.604 123.779C126.604 123.779 124.457 125.626 122.639 124.625C122.639 124.625 120.259 125.794 119.631 127.831C119.004 129.867 115.317 126.188 111.995 126.75C111.995 126.75 109.753 124.647 109.914 119.551C110.042 117.338 110.585 115.169 111.513 113.156C111.954 112.09 112.602 111.123 113.421 110.311C114.239 109.499 115.211 108.858 116.28 108.425C120.106 106.717 126.757 108.001 127.465 110.549Z" fill="#263238"/>
<path d="M122.209 123.107C122.096 123.612 122.096 124.135 122.21 124.64C122.323 125.145 122.547 125.619 122.866 126.027C123.676 126.91 124.976 125.786 125.509 124.238C125.961 122.858 126.122 120.697 124.932 120.456C123.742 120.215 122.464 121.617 122.209 123.107Z" fill="#E4897B"/>
<path d="M116.602 133.386C114.451 131.485 111.796 130.248 108.958 129.823C107.717 129.67 106.462 129.938 105.392 130.584C104.322 131.231 103.501 132.217 103.059 133.386L116.156 136.036L116.602 133.386Z" fill="#175CD3"/>
<path d="M114.375 161.028L119.712 161.823C120.926 161.445 122.172 161.178 123.435 161.028C124.808 160.911 126.188 160.911 127.56 161.028C127.56 161.028 129.955 161.933 129.955 164.269C129.955 164.269 124.319 165.78 122.158 164.875L114.375 164.269V161.028Z" fill="#E4897B"/>
<path opacity="0.2" d="M114.375 161.028L119.712 161.823C120.926 161.445 122.172 161.178 123.435 161.028C124.808 160.911 126.188 160.911 127.56 161.028C127.56 161.028 129.955 161.933 129.955 164.269C129.955 164.269 124.319 165.78 122.158 164.875L114.375 164.269V161.028Z" fill="black"/>
<path d="M123.048 135.066C121.963 138.103 120.989 141.023 120.128 143.827C119.573 145.564 119.069 147.265 118.609 148.937C118.215 150.317 117.879 151.653 117.521 152.953C117.361 153.573 117.2 154.194 117.047 154.807C116.207 158.165 115.528 161.239 114.995 163.94C114.108 168.192 113.45 172.489 113.024 176.812L83.0908 173.066C84.1275 167.919 84.9379 163.429 86.0695 158.582C86.6901 155.924 87.4056 153.164 88.3182 150.134C88.9606 147.944 89.7053 145.644 90.596 143.133C93.5967 134.511 96.371 132.123 96.371 132.123C107.862 130.232 123.048 135.066 123.048 135.066Z" fill="#175CD3"/>
<path d="M133.007 161.582L138.343 162.385C139.557 162.002 140.803 161.733 142.067 161.582C143.44 161.47 144.819 161.47 146.192 161.582C146.192 161.582 148.608 162.487 148.608 164.802C148.608 164.802 142.972 166.313 140.804 165.408L133.007 164.802V161.582Z" fill="#E4897B"/>
<path d="M98.4882 252.434L110.608 253.237L112.389 248.002L99.0358 247.374L98.4882 252.434Z" fill="#175CD3"/>
<path opacity="0.2" d="M98.4882 252.434L110.608 253.237L112.389 248.002L99.0358 247.374L98.4882 252.434Z" fill="white"/>
<path d="M131.094 252.434L143.213 253.237L144.995 248.002L131.641 247.374L131.094 252.434Z" fill="#175CD3"/>
<path opacity="0.2" d="M131.094 252.434L143.213 253.237L144.995 248.002L131.641 247.374L131.094 252.434Z" fill="white"/>
<path d="M82.9958 173.453L96.4951 175.227L96.9331 173.234L83.412 171.27L82.9958 173.453Z" fill="black"/>
<path d="M98.0575 173.249L97.8896 175.227L110.367 176.943V174.986L98.0575 173.249Z" fill="black"/>
<path d="M111.141 175.096V176.943L112.951 177.184V175.395L111.141 175.096Z" fill="black"/>
<path opacity="0.2" d="M120.121 143.826C119.566 145.564 119.062 147.265 118.602 148.937C118.208 150.317 117.872 151.653 117.514 152.952C116.58 147.842 118.244 141.731 118.244 141.731L120.121 143.826Z" fill="black"/>
<path d="M122.143 136.789C124.581 137.278 125.844 154.216 126.385 156.457C126.859 158.414 138.343 162.385 138.343 162.385V165.138C138.343 165.138 125.64 164.269 122.654 163.042C119.668 161.816 117.865 145.09 117.865 145.09L122.143 136.789Z" fill="#E4897B"/>
<g opacity="0.2">
<path d="M123.048 135.066C121.963 138.103 120.989 141.023 120.128 143.827C119.573 145.564 119.069 147.265 118.609 148.937C118.215 150.317 117.879 151.653 117.521 152.953C117.361 153.573 117.2 154.194 117.047 154.807C116.207 158.165 115.528 161.239 114.995 163.94C114.108 168.192 113.45 172.489 113.024 176.812L83.0908 173.066C84.1275 167.919 84.9379 163.429 86.0695 158.582C86.6901 155.924 87.4056 153.164 88.3182 150.134C88.9606 147.944 89.7053 145.644 90.596 143.133C93.5967 134.511 96.371 132.123 96.371 132.123C107.862 130.232 123.048 135.066 123.048 135.066Z" fill="white"/>
</g>
<path d="M123.048 135.065C125.282 135.796 126.385 150.397 126.385 150.397L118.273 151.47L116.594 145.469C116.594 145.469 117.266 142.636 118.23 139.665C119.631 135.357 123.048 135.065 123.048 135.065Z" fill="#175CD3"/>
<path d="M70.7232 263.239C70.7232 262.73 70.5722 262.233 70.2895 261.81C70.0068 261.388 69.605 261.058 69.135 260.864C68.665 260.67 68.1479 260.619 67.6492 260.719C67.1505 260.819 66.6926 261.064 66.3335 261.424C65.9744 261.784 65.7302 262.243 65.6319 262.742C65.5335 263.241 65.5855 263.758 65.7811 264.227C65.9767 264.697 66.3072 265.098 66.7308 265.379C67.1544 265.661 67.652 265.81 68.1606 265.809C68.4977 265.809 68.8315 265.742 69.1429 265.613C69.4543 265.484 69.7371 265.294 69.9752 265.056C70.2132 264.817 70.4018 264.533 70.5302 264.222C70.6585 263.91 70.7241 263.576 70.7232 263.239Z" fill="#263238"/>
<path opacity="0.2" d="M70.7232 263.239C70.7232 262.73 70.5722 262.233 70.2895 261.81C70.0068 261.388 69.605 261.058 69.135 260.864C68.665 260.67 68.1479 260.619 67.6492 260.719C67.1505 260.819 66.6926 261.064 66.3335 261.424C65.9744 261.784 65.7302 262.243 65.6319 262.742C65.5335 263.241 65.5855 263.758 65.7811 264.227C65.9767 264.697 66.3072 265.098 66.7308 265.379C67.1544 265.661 67.652 265.81 68.1606 265.809C68.4977 265.809 68.8315 265.742 69.1429 265.613C69.4543 265.484 69.7371 265.294 69.9752 265.056C70.2132 264.817 70.4018 264.533 70.5302 264.222C70.6585 263.91 70.7241 263.576 70.7232 263.239Z" fill="white"/>
<path d="M132.495 263.239C132.495 262.731 132.345 262.234 132.062 261.811C131.78 261.388 131.379 261.059 130.909 260.865C130.439 260.67 129.923 260.619 129.424 260.718C128.926 260.817 128.468 261.062 128.108 261.422C127.749 261.781 127.504 262.239 127.405 262.737C127.306 263.236 127.357 263.753 127.551 264.222C127.746 264.692 128.075 265.093 128.498 265.376C128.92 265.658 129.417 265.809 129.926 265.809C130.263 265.81 130.598 265.744 130.91 265.615C131.222 265.486 131.506 265.297 131.745 265.058C131.984 264.819 132.173 264.536 132.302 264.223C132.431 263.911 132.496 263.577 132.495 263.239Z" fill="#263238"/>
<path opacity="0.2" d="M132.495 263.239C132.495 262.731 132.345 262.234 132.062 261.811C131.78 261.388 131.379 261.059 130.909 260.865C130.439 260.67 129.923 260.619 129.424 260.718C128.926 260.817 128.468 261.062 128.108 261.422C127.749 261.781 127.504 262.239 127.405 262.737C127.306 263.236 127.357 263.753 127.551 264.222C127.746 264.692 128.075 265.093 128.498 265.376C128.92 265.658 129.417 265.809 129.926 265.809C130.263 265.81 130.598 265.744 130.91 265.615C131.222 265.486 131.506 265.297 131.745 265.058C131.984 264.819 132.173 264.536 132.302 264.223C132.431 263.911 132.496 263.577 132.495 263.239Z" fill="white"/>
<path opacity="0.2" d="M69.4383 263.239C69.4383 262.985 69.3627 262.736 69.2212 262.524C69.0797 262.313 68.8786 262.148 68.6434 262.051C68.4081 261.954 68.1494 261.929 67.8999 261.979C67.6505 262.03 67.4216 262.153 67.2421 262.333C67.0627 262.513 66.9409 262.743 66.8922 262.993C66.8434 263.243 66.8699 263.501 66.9683 263.736C67.0667 263.97 67.2325 264.171 67.4448 264.311C67.657 264.451 67.9062 264.525 68.1606 264.524C68.329 264.524 68.4958 264.491 68.6513 264.426C68.8067 264.361 68.9479 264.267 69.0666 264.147C69.1854 264.028 69.2793 263.886 69.3431 263.73C69.4069 263.574 69.4392 263.407 69.4383 263.239Z" fill="white"/>
<path opacity="0.2" d="M129.926 264.524C130.635 264.524 131.211 263.949 131.211 263.239C131.211 262.529 130.635 261.954 129.926 261.954C129.216 261.954 128.641 262.529 128.641 263.239C128.641 263.949 129.216 264.524 129.926 264.524Z" fill="white"/>
<path d="M101.168 251.981V224.376H96.9185V251.981C80.3894 252.404 70.3435 258.187 68.3285 259.45C68.2136 259.523 68.1193 259.625 68.0542 259.745C67.9891 259.865 67.9554 259.999 67.9561 260.136V262.428C67.9561 262.643 68.0415 262.849 68.1935 263.001C68.3455 263.153 68.5516 263.239 68.7665 263.239C68.9139 263.244 69.0598 263.208 69.1884 263.136C69.3171 263.064 69.4236 262.958 69.4966 262.83L70.4749 261.107C79.039 258.377 87.9534 256.901 96.9404 256.726V261.268C96.9423 261.545 97.054 261.811 97.2509 262.006C97.4479 262.202 97.7142 262.312 97.9917 262.312H100.138C100.416 262.312 100.682 262.202 100.879 262.006C101.076 261.811 101.188 261.545 101.19 261.268V256.726C110.177 256.901 119.091 258.377 127.655 261.107L128.633 262.83C128.706 262.958 128.813 263.064 128.942 263.136C129.07 263.208 129.216 263.244 129.363 263.239C129.578 263.239 129.784 263.153 129.936 263.001C130.088 262.849 130.174 262.643 130.174 262.428V260.136C130.175 259.999 130.141 259.865 130.076 259.745C130.011 259.625 129.916 259.523 129.801 259.45C127.765 258.187 117.697 252.404 101.168 251.981Z" fill="#263238"/>
<path opacity="0.2" d="M101.168 251.981V224.376H96.9185V251.981C80.3894 252.404 70.3435 258.187 68.3285 259.45C68.2136 259.523 68.1193 259.625 68.0542 259.745C67.9891 259.865 67.9554 259.999 67.9561 260.136V262.428C67.9561 262.643 68.0415 262.849 68.1935 263.001C68.3455 263.153 68.5516 263.239 68.7665 263.239C68.9139 263.244 69.0598 263.208 69.1884 263.136C69.3171 263.064 69.4236 262.958 69.4966 262.83L70.4749 261.107C79.039 258.377 87.9534 256.901 96.9404 256.726V261.268C96.9423 261.545 97.054 261.811 97.2509 262.006C97.4479 262.202 97.7142 262.312 97.9917 262.312H100.138C100.416 262.312 100.682 262.202 100.879 262.006C101.076 261.811 101.188 261.545 101.19 261.268V256.726C110.177 256.901 119.091 258.377 127.655 261.107L128.633 262.83C128.706 262.958 128.813 263.064 128.942 263.136C129.07 263.208 129.216 263.244 129.363 263.239C129.578 263.239 129.784 263.153 129.936 263.001C130.088 262.849 130.174 262.643 130.174 262.428V260.136C130.175 259.999 130.141 259.865 130.076 259.745C130.011 259.625 129.916 259.523 129.801 259.45C127.765 258.187 117.697 252.404 101.168 251.981Z" fill="black"/>
<path d="M99.8754 260.676H98.2108C97.9003 260.676 97.6486 260.927 97.6486 261.238V265.246C97.6486 265.557 97.9003 265.808 98.2108 265.808H99.8754C100.186 265.808 100.438 265.557 100.438 265.246V261.238C100.438 260.927 100.186 260.676 99.8754 260.676Z" fill="#263238"/>
<path opacity="0.2" d="M99.8754 260.676H98.2108C97.9003 260.676 97.6486 260.927 97.6486 261.238V265.246C97.6486 265.557 97.9003 265.808 98.2108 265.808H99.8754C100.186 265.808 100.438 265.557 100.438 265.246V261.238C100.438 260.927 100.186 260.676 99.8754 260.676Z" fill="white"/>
<path d="M71.2196 197.203H126.874C128.405 197.203 129.874 197.811 130.957 198.894C132.04 199.977 132.649 201.446 132.649 202.978V206.467H65.4374V202.963C65.4412 201.433 66.0524 199.966 67.1366 198.886C68.2207 197.806 69.6893 197.201 71.2196 197.203Z" fill="#175CD3"/>
<path d="M89.406 174.263H126.407C126.86 174.249 127.311 174.34 127.723 174.53C128.135 174.72 128.497 175.003 128.78 175.358C129.064 175.712 129.26 176.127 129.355 176.571C129.45 177.015 129.441 177.474 129.327 177.914L122.654 206.474H121.128L126.764 181.418C126.862 180.982 126.861 180.53 126.759 180.095C126.658 179.661 126.459 179.254 126.178 178.907C125.897 178.56 125.541 178.281 125.137 178.092C124.732 177.902 124.291 177.806 123.844 177.811H90.1653L89.406 174.263Z" fill="#263238"/>
<path d="M103.409 207.475V231.626C103.407 231.997 103.259 232.352 102.996 232.615C102.734 232.877 102.378 233.026 102.007 233.028H96.0863C95.9019 233.028 95.7192 232.993 95.5487 232.923C95.3782 232.853 95.2233 232.749 95.0929 232.619C94.9625 232.489 94.8593 232.334 94.7892 232.163C94.7191 231.993 94.6835 231.81 94.6845 231.626V207.475H103.409Z" fill="#263238"/>
<path opacity="0.2" d="M103.416 207.475H94.6845V217.506H103.416V207.475Z" fill="black"/>
<path d="M134.481 204.985V207.905C134.481 208.293 134.327 208.664 134.054 208.938C133.78 209.212 133.408 209.366 133.021 209.366H65.1234C64.7362 209.366 64.3648 209.212 64.0909 208.938C63.8171 208.664 63.6633 208.293 63.6633 207.905V204.985C63.6633 204.598 63.8171 204.226 64.0909 203.953C64.3648 203.679 64.7362 203.525 65.1234 203.525H133.021C133.408 203.525 133.78 203.679 134.054 203.953C134.327 204.226 134.481 204.598 134.481 204.985Z" fill="#263238"/>
<path d="M103.234 206.475H63.6049C63.6049 206.475 51.0182 185.536 51.0182 150.938V138.227C51.0182 135.71 52.0182 133.296 53.7981 131.516C55.578 129.736 57.9921 128.736 60.5093 128.736H77.3012C79.7707 128.724 82.1469 129.679 83.9208 131.397C85.6948 133.115 86.7255 135.459 86.7923 137.928C87.223 155.786 89.8513 194.392 103.234 206.475Z" fill="#263238"/>
<path opacity="0.2" d="M94.5166 206.475H65.4009C64.8487 206.476 64.3068 206.326 63.8343 206.04C63.3618 205.754 62.9769 205.344 62.7215 204.854C59.8596 199.328 51.0402 179.922 51.0402 150.938V138.227C51.0402 135.71 52.0401 133.296 53.8201 131.516C55.6 129.736 58.0141 128.736 60.5313 128.736H75.0526C77.5188 128.735 79.8886 129.693 81.6602 131.409C83.4317 133.125 84.4659 135.463 84.5437 137.928C84.9818 153.851 87.1209 186.361 97.1157 201.73C97.4365 202.191 97.6223 202.733 97.6522 203.294C97.6821 203.855 97.5549 204.414 97.2849 204.907C97.015 205.4 96.6129 205.808 96.1238 206.085C95.6348 206.362 95.0783 206.497 94.5166 206.475Z" fill="white"/>
<path opacity="0.2" d="M134.481 204.986V207.906C134.481 208.293 134.327 208.665 134.054 208.938C133.78 209.212 133.408 209.366 133.021 209.366H102.577C102.049 209.364 101.543 209.154 101.169 208.78C100.796 208.407 100.586 207.901 100.584 207.373V205.526C100.584 204.997 100.794 204.49 101.167 204.117C101.541 203.743 102.048 203.533 102.577 203.533H133.014C133.206 203.532 133.396 203.569 133.573 203.641C133.751 203.714 133.912 203.82 134.049 203.955C134.185 204.09 134.293 204.251 134.367 204.427C134.442 204.604 134.48 204.794 134.481 204.986Z" fill="black"/>
</svg>
